M48
; DRILL file {KiCad 9.0.4} date 2025-10-20T06:34:03-0700
; FORMAT={-:-/ absolute / metric / decimal}
; #@! TF.CreationDate,2025-10-20T06:34:03-07:00
; #@! TF.GenerationSoftware,Kicad,Pcbnew,9.0.4
; #@! TF.FileFunction,Plated,1,2,PTH
FMAT,2
METRIC
; #@! TA.AperFunction,Plated,PTH,ViaDrill
T1C0.800
; #@! TA.AperFunction,Plated,PTH,ComponentDrill
T2C0.800
; #@! TA.AperFunction,Plated,PTH,ComponentDrill
T3C1.000
; #@! TA.AperFunction,Plated,PTH,ComponentDrill
T4C1.016
; #@! TA.AperFunction,Plated,PTH,ComponentDrill
T5C1.200
%
G90
G05
T1
X143.0Y-116.215
X143.1Y-74.625
X143.65Y-90.0
X149.55Y-116.25
X150.325Y-89.95
X153.8Y-74.65
T2
X114.87Y-97.555
X114.87Y-105.175
X114.897Y-74.562
X114.897Y-82.182
X115.35Y-117.03
X115.35Y-124.65
X120.625Y-121.8
X122.215Y-115.175
X122.5Y-86.2
X122.78Y-129.15
X123.125Y-121.8
X123.975Y-104.875
X124.165Y-79.65
X124.315Y-73.825
X124.555Y-93.15
X124.79Y-98.425
X125.0Y-86.2
X126.475Y-104.875
X128.625Y-121.775
X129.835Y-115.175
X130.4Y-129.15
X131.125Y-121.775
X131.75Y-84.925
X131.75Y-87.425
X131.785Y-79.65
X131.935Y-73.825
X132.175Y-93.15
X132.41Y-98.425
X132.8Y-103.325
X132.8Y-105.825
X134.07Y-109.15
X134.07Y-116.77
X137.3Y-68.875
X137.3Y-71.375
X138.33Y-103.275
X142.3Y-128.69
X142.3Y-136.31
X145.95Y-103.275
X151.705Y-103.2
X159.325Y-103.2
X159.575Y-69.4
X159.575Y-71.9
X160.04Y-77.2
X160.065Y-87.325
X160.115Y-82.25
X162.8Y-113.93
X162.8Y-121.55
X163.6Y-92.59
X163.6Y-100.21
X164.2Y-104.375
X164.2Y-106.875
X167.45Y-129.025
X167.66Y-77.2
X167.685Y-87.325
X167.735Y-82.25
X167.925Y-120.715
X169.765Y-113.075
X170.425Y-120.715
X172.5Y-93.35
X172.5Y-95.85
X172.5Y-100.29
X172.5Y-107.91
X173.975Y-77.725
X173.975Y-80.225
X174.025Y-84.925
X174.025Y-87.425
X175.07Y-129.025
X175.505Y-120.715
X177.385Y-113.075
X178.005Y-120.715
X180.903Y-99.935
X180.903Y-107.555
X180.91Y-77.235
X180.91Y-84.855
T3
X145.56Y-68.825
X148.075Y-74.935
X148.075Y-77.475
X148.1Y-68.825
X150.64Y-68.825
X153.475Y-130.785
X153.475Y-133.325
T4
X140.27Y-82.315
X140.27Y-84.855
X140.27Y-87.395
X140.27Y-89.935
X140.27Y-92.475
X140.27Y-95.015
X140.27Y-97.555
X140.346Y-108.595
X140.346Y-111.135
X140.346Y-113.675
X140.346Y-116.215
X140.346Y-118.755
X140.346Y-121.295
X140.346Y-123.835
X155.51Y-82.315
X155.51Y-84.855
X155.51Y-87.395
X155.51Y-89.935
X155.51Y-92.475
X155.51Y-95.015
X155.51Y-97.555
X155.586Y-108.595
X155.586Y-111.135
X155.586Y-113.675
X155.586Y-116.215
X155.586Y-118.755
X155.586Y-121.295
X155.586Y-123.835
T5
X105.066Y-74.572
X105.066Y-79.572
X105.066Y-84.572
X105.066Y-97.555
X105.066Y-102.555
X105.066Y-107.555
X105.082Y-120.442
X105.082Y-125.442
X105.082Y-130.442
X191.07Y-74.855
X191.07Y-79.855
X191.07Y-84.855
X191.07Y-97.555
X191.07Y-102.555
X191.07Y-107.555
X191.07Y-120.415
X191.07Y-125.415
X191.07Y-130.415
M30
