%TF.GenerationSoftware,KiCad,Pcbnew,9.0.4*%
%TF.CreationDate,2025-10-20T06:34:00-07:00*%
%TF.ProjectId,PCB_ProyectoParte_1,5043425f-5072-46f7-9965-63746f506172,rev?*%
%TF.SameCoordinates,Original*%
%TF.FileFunction,Legend,Top*%
%TF.FilePolarity,Positive*%
%FSLAX46Y46*%
G04 Gerber Fmt 4.6, Leading zero omitted, Abs format (unit mm)*
G04 Created by KiCad (PCBNEW 9.0.4) date 2025-10-20 06:34:00*
%MOMM*%
%LPD*%
G01*
G04 APERTURE LIST*
%ADD10C,0.150000*%
%ADD11C,0.050000*%
%ADD12C,0.120000*%
G04 APERTURE END LIST*
D10*
X122869819Y-73891666D02*
X122393628Y-74224999D01*
X122869819Y-74463094D02*
X121869819Y-74463094D01*
X121869819Y-74463094D02*
X121869819Y-74082142D01*
X121869819Y-74082142D02*
X121917438Y-73986904D01*
X121917438Y-73986904D02*
X121965057Y-73939285D01*
X121965057Y-73939285D02*
X122060295Y-73891666D01*
X122060295Y-73891666D02*
X122203152Y-73891666D01*
X122203152Y-73891666D02*
X122298390Y-73939285D01*
X122298390Y-73939285D02*
X122346009Y-73986904D01*
X122346009Y-73986904D02*
X122393628Y-74082142D01*
X122393628Y-74082142D02*
X122393628Y-74463094D01*
X122869819Y-72939285D02*
X122869819Y-73510713D01*
X122869819Y-73224999D02*
X121869819Y-73224999D01*
X121869819Y-73224999D02*
X122012676Y-73320237D01*
X122012676Y-73320237D02*
X122107914Y-73415475D01*
X122107914Y-73415475D02*
X122155533Y-73510713D01*
X145124819Y-133142857D02*
X144648628Y-133476190D01*
X145124819Y-133714285D02*
X144124819Y-133714285D01*
X144124819Y-133714285D02*
X144124819Y-133333333D01*
X144124819Y-133333333D02*
X144172438Y-133238095D01*
X144172438Y-133238095D02*
X144220057Y-133190476D01*
X144220057Y-133190476D02*
X144315295Y-133142857D01*
X144315295Y-133142857D02*
X144458152Y-133142857D01*
X144458152Y-133142857D02*
X144553390Y-133190476D01*
X144553390Y-133190476D02*
X144601009Y-133238095D01*
X144601009Y-133238095D02*
X144648628Y-133333333D01*
X144648628Y-133333333D02*
X144648628Y-133714285D01*
X144220057Y-132761904D02*
X144172438Y-132714285D01*
X144172438Y-132714285D02*
X144124819Y-132619047D01*
X144124819Y-132619047D02*
X144124819Y-132380952D01*
X144124819Y-132380952D02*
X144172438Y-132285714D01*
X144172438Y-132285714D02*
X144220057Y-132238095D01*
X144220057Y-132238095D02*
X144315295Y-132190476D01*
X144315295Y-132190476D02*
X144410533Y-132190476D01*
X144410533Y-132190476D02*
X144553390Y-132238095D01*
X144553390Y-132238095D02*
X145124819Y-132809523D01*
X145124819Y-132809523D02*
X145124819Y-132190476D01*
X144124819Y-131857142D02*
X144124819Y-131238095D01*
X144124819Y-131238095D02*
X144505771Y-131571428D01*
X144505771Y-131571428D02*
X144505771Y-131428571D01*
X144505771Y-131428571D02*
X144553390Y-131333333D01*
X144553390Y-131333333D02*
X144601009Y-131285714D01*
X144601009Y-131285714D02*
X144696247Y-131238095D01*
X144696247Y-131238095D02*
X144934342Y-131238095D01*
X144934342Y-131238095D02*
X145029580Y-131285714D01*
X145029580Y-131285714D02*
X145077200Y-131333333D01*
X145077200Y-131333333D02*
X145124819Y-131428571D01*
X145124819Y-131428571D02*
X145124819Y-131714285D01*
X145124819Y-131714285D02*
X145077200Y-131809523D01*
X145077200Y-131809523D02*
X145029580Y-131857142D01*
X172932142Y-111159819D02*
X172598809Y-110683628D01*
X172360714Y-111159819D02*
X172360714Y-110159819D01*
X172360714Y-110159819D02*
X172741666Y-110159819D01*
X172741666Y-110159819D02*
X172836904Y-110207438D01*
X172836904Y-110207438D02*
X172884523Y-110255057D01*
X172884523Y-110255057D02*
X172932142Y-110350295D01*
X172932142Y-110350295D02*
X172932142Y-110493152D01*
X172932142Y-110493152D02*
X172884523Y-110588390D01*
X172884523Y-110588390D02*
X172836904Y-110636009D01*
X172836904Y-110636009D02*
X172741666Y-110683628D01*
X172741666Y-110683628D02*
X172360714Y-110683628D01*
X173884523Y-111159819D02*
X173313095Y-111159819D01*
X173598809Y-111159819D02*
X173598809Y-110159819D01*
X173598809Y-110159819D02*
X173503571Y-110302676D01*
X173503571Y-110302676D02*
X173408333Y-110397914D01*
X173408333Y-110397914D02*
X173313095Y-110445533D01*
X174789285Y-110159819D02*
X174313095Y-110159819D01*
X174313095Y-110159819D02*
X174265476Y-110636009D01*
X174265476Y-110636009D02*
X174313095Y-110588390D01*
X174313095Y-110588390D02*
X174408333Y-110540771D01*
X174408333Y-110540771D02*
X174646428Y-110540771D01*
X174646428Y-110540771D02*
X174741666Y-110588390D01*
X174741666Y-110588390D02*
X174789285Y-110636009D01*
X174789285Y-110636009D02*
X174836904Y-110731247D01*
X174836904Y-110731247D02*
X174836904Y-110969342D01*
X174836904Y-110969342D02*
X174789285Y-111064580D01*
X174789285Y-111064580D02*
X174741666Y-111112200D01*
X174741666Y-111112200D02*
X174646428Y-111159819D01*
X174646428Y-111159819D02*
X174408333Y-111159819D01*
X174408333Y-111159819D02*
X174313095Y-111112200D01*
X174313095Y-111112200D02*
X174265476Y-111064580D01*
X190474761Y-115669819D02*
X190141428Y-115193628D01*
X189903333Y-115669819D02*
X189903333Y-114669819D01*
X189903333Y-114669819D02*
X190284285Y-114669819D01*
X190284285Y-114669819D02*
X190379523Y-114717438D01*
X190379523Y-114717438D02*
X190427142Y-114765057D01*
X190427142Y-114765057D02*
X190474761Y-114860295D01*
X190474761Y-114860295D02*
X190474761Y-115003152D01*
X190474761Y-115003152D02*
X190427142Y-115098390D01*
X190427142Y-115098390D02*
X190379523Y-115146009D01*
X190379523Y-115146009D02*
X190284285Y-115193628D01*
X190284285Y-115193628D02*
X189903333Y-115193628D01*
X190760476Y-114669819D02*
X191093809Y-115669819D01*
X191093809Y-115669819D02*
X191427142Y-114669819D01*
X192189047Y-114669819D02*
X191998571Y-114669819D01*
X191998571Y-114669819D02*
X191903333Y-114717438D01*
X191903333Y-114717438D02*
X191855714Y-114765057D01*
X191855714Y-114765057D02*
X191760476Y-114907914D01*
X191760476Y-114907914D02*
X191712857Y-115098390D01*
X191712857Y-115098390D02*
X191712857Y-115479342D01*
X191712857Y-115479342D02*
X191760476Y-115574580D01*
X191760476Y-115574580D02*
X191808095Y-115622200D01*
X191808095Y-115622200D02*
X191903333Y-115669819D01*
X191903333Y-115669819D02*
X192093809Y-115669819D01*
X192093809Y-115669819D02*
X192189047Y-115622200D01*
X192189047Y-115622200D02*
X192236666Y-115574580D01*
X192236666Y-115574580D02*
X192284285Y-115479342D01*
X192284285Y-115479342D02*
X192284285Y-115241247D01*
X192284285Y-115241247D02*
X192236666Y-115146009D01*
X192236666Y-115146009D02*
X192189047Y-115098390D01*
X192189047Y-115098390D02*
X192093809Y-115050771D01*
X192093809Y-115050771D02*
X191903333Y-115050771D01*
X191903333Y-115050771D02*
X191808095Y-115098390D01*
X191808095Y-115098390D02*
X191760476Y-115146009D01*
X191760476Y-115146009D02*
X191712857Y-115241247D01*
X134039819Y-79941666D02*
X133563628Y-80274999D01*
X134039819Y-80513094D02*
X133039819Y-80513094D01*
X133039819Y-80513094D02*
X133039819Y-80132142D01*
X133039819Y-80132142D02*
X133087438Y-80036904D01*
X133087438Y-80036904D02*
X133135057Y-79989285D01*
X133135057Y-79989285D02*
X133230295Y-79941666D01*
X133230295Y-79941666D02*
X133373152Y-79941666D01*
X133373152Y-79941666D02*
X133468390Y-79989285D01*
X133468390Y-79989285D02*
X133516009Y-80036904D01*
X133516009Y-80036904D02*
X133563628Y-80132142D01*
X133563628Y-80132142D02*
X133563628Y-80513094D01*
X133135057Y-79560713D02*
X133087438Y-79513094D01*
X133087438Y-79513094D02*
X133039819Y-79417856D01*
X133039819Y-79417856D02*
X133039819Y-79179761D01*
X133039819Y-79179761D02*
X133087438Y-79084523D01*
X133087438Y-79084523D02*
X133135057Y-79036904D01*
X133135057Y-79036904D02*
X133230295Y-78989285D01*
X133230295Y-78989285D02*
X133325533Y-78989285D01*
X133325533Y-78989285D02*
X133468390Y-79036904D01*
X133468390Y-79036904D02*
X134039819Y-79608332D01*
X134039819Y-79608332D02*
X134039819Y-78989285D01*
X121384580Y-104991666D02*
X121432200Y-105039285D01*
X121432200Y-105039285D02*
X121479819Y-105182142D01*
X121479819Y-105182142D02*
X121479819Y-105277380D01*
X121479819Y-105277380D02*
X121432200Y-105420237D01*
X121432200Y-105420237D02*
X121336961Y-105515475D01*
X121336961Y-105515475D02*
X121241723Y-105563094D01*
X121241723Y-105563094D02*
X121051247Y-105610713D01*
X121051247Y-105610713D02*
X120908390Y-105610713D01*
X120908390Y-105610713D02*
X120717914Y-105563094D01*
X120717914Y-105563094D02*
X120622676Y-105515475D01*
X120622676Y-105515475D02*
X120527438Y-105420237D01*
X120527438Y-105420237D02*
X120479819Y-105277380D01*
X120479819Y-105277380D02*
X120479819Y-105182142D01*
X120479819Y-105182142D02*
X120527438Y-105039285D01*
X120527438Y-105039285D02*
X120575057Y-104991666D01*
X120479819Y-104658332D02*
X120479819Y-104039285D01*
X120479819Y-104039285D02*
X120860771Y-104372618D01*
X120860771Y-104372618D02*
X120860771Y-104229761D01*
X120860771Y-104229761D02*
X120908390Y-104134523D01*
X120908390Y-104134523D02*
X120956009Y-104086904D01*
X120956009Y-104086904D02*
X121051247Y-104039285D01*
X121051247Y-104039285D02*
X121289342Y-104039285D01*
X121289342Y-104039285D02*
X121384580Y-104086904D01*
X121384580Y-104086904D02*
X121432200Y-104134523D01*
X121432200Y-104134523D02*
X121479819Y-104229761D01*
X121479819Y-104229761D02*
X121479819Y-104515475D01*
X121479819Y-104515475D02*
X121432200Y-104610713D01*
X121432200Y-104610713D02*
X121384580Y-104658332D01*
X178987663Y-104387857D02*
X178511472Y-104721190D01*
X178987663Y-104959285D02*
X177987663Y-104959285D01*
X177987663Y-104959285D02*
X177987663Y-104578333D01*
X177987663Y-104578333D02*
X178035282Y-104483095D01*
X178035282Y-104483095D02*
X178082901Y-104435476D01*
X178082901Y-104435476D02*
X178178139Y-104387857D01*
X178178139Y-104387857D02*
X178320996Y-104387857D01*
X178320996Y-104387857D02*
X178416234Y-104435476D01*
X178416234Y-104435476D02*
X178463853Y-104483095D01*
X178463853Y-104483095D02*
X178511472Y-104578333D01*
X178511472Y-104578333D02*
X178511472Y-104959285D01*
X178987663Y-103435476D02*
X178987663Y-104006904D01*
X178987663Y-103721190D02*
X177987663Y-103721190D01*
X177987663Y-103721190D02*
X178130520Y-103816428D01*
X178130520Y-103816428D02*
X178225758Y-103911666D01*
X178225758Y-103911666D02*
X178273377Y-104006904D01*
X178987663Y-102959285D02*
X178987663Y-102768809D01*
X178987663Y-102768809D02*
X178940044Y-102673571D01*
X178940044Y-102673571D02*
X178892424Y-102625952D01*
X178892424Y-102625952D02*
X178749567Y-102530714D01*
X178749567Y-102530714D02*
X178559091Y-102483095D01*
X178559091Y-102483095D02*
X178178139Y-102483095D01*
X178178139Y-102483095D02*
X178082901Y-102530714D01*
X178082901Y-102530714D02*
X178035282Y-102578333D01*
X178035282Y-102578333D02*
X177987663Y-102673571D01*
X177987663Y-102673571D02*
X177987663Y-102864047D01*
X177987663Y-102864047D02*
X178035282Y-102959285D01*
X178035282Y-102959285D02*
X178082901Y-103006904D01*
X178082901Y-103006904D02*
X178178139Y-103054523D01*
X178178139Y-103054523D02*
X178416234Y-103054523D01*
X178416234Y-103054523D02*
X178511472Y-103006904D01*
X178511472Y-103006904D02*
X178559091Y-102959285D01*
X178559091Y-102959285D02*
X178606710Y-102864047D01*
X178606710Y-102864047D02*
X178606710Y-102673571D01*
X178606710Y-102673571D02*
X178559091Y-102578333D01*
X178559091Y-102578333D02*
X178511472Y-102530714D01*
X178511472Y-102530714D02*
X178416234Y-102483095D01*
X174733333Y-75909580D02*
X174685714Y-75957200D01*
X174685714Y-75957200D02*
X174542857Y-76004819D01*
X174542857Y-76004819D02*
X174447619Y-76004819D01*
X174447619Y-76004819D02*
X174304762Y-75957200D01*
X174304762Y-75957200D02*
X174209524Y-75861961D01*
X174209524Y-75861961D02*
X174161905Y-75766723D01*
X174161905Y-75766723D02*
X174114286Y-75576247D01*
X174114286Y-75576247D02*
X174114286Y-75433390D01*
X174114286Y-75433390D02*
X174161905Y-75242914D01*
X174161905Y-75242914D02*
X174209524Y-75147676D01*
X174209524Y-75147676D02*
X174304762Y-75052438D01*
X174304762Y-75052438D02*
X174447619Y-75004819D01*
X174447619Y-75004819D02*
X174542857Y-75004819D01*
X174542857Y-75004819D02*
X174685714Y-75052438D01*
X174685714Y-75052438D02*
X174733333Y-75100057D01*
X175304762Y-75433390D02*
X175209524Y-75385771D01*
X175209524Y-75385771D02*
X175161905Y-75338152D01*
X175161905Y-75338152D02*
X175114286Y-75242914D01*
X175114286Y-75242914D02*
X175114286Y-75195295D01*
X175114286Y-75195295D02*
X175161905Y-75100057D01*
X175161905Y-75100057D02*
X175209524Y-75052438D01*
X175209524Y-75052438D02*
X175304762Y-75004819D01*
X175304762Y-75004819D02*
X175495238Y-75004819D01*
X175495238Y-75004819D02*
X175590476Y-75052438D01*
X175590476Y-75052438D02*
X175638095Y-75100057D01*
X175638095Y-75100057D02*
X175685714Y-75195295D01*
X175685714Y-75195295D02*
X175685714Y-75242914D01*
X175685714Y-75242914D02*
X175638095Y-75338152D01*
X175638095Y-75338152D02*
X175590476Y-75385771D01*
X175590476Y-75385771D02*
X175495238Y-75433390D01*
X175495238Y-75433390D02*
X175304762Y-75433390D01*
X175304762Y-75433390D02*
X175209524Y-75481009D01*
X175209524Y-75481009D02*
X175161905Y-75528628D01*
X175161905Y-75528628D02*
X175114286Y-75623866D01*
X175114286Y-75623866D02*
X175114286Y-75814342D01*
X175114286Y-75814342D02*
X175161905Y-75909580D01*
X175161905Y-75909580D02*
X175209524Y-75957200D01*
X175209524Y-75957200D02*
X175304762Y-76004819D01*
X175304762Y-76004819D02*
X175495238Y-76004819D01*
X175495238Y-76004819D02*
X175590476Y-75957200D01*
X175590476Y-75957200D02*
X175638095Y-75909580D01*
X175638095Y-75909580D02*
X175685714Y-75814342D01*
X175685714Y-75814342D02*
X175685714Y-75623866D01*
X175685714Y-75623866D02*
X175638095Y-75528628D01*
X175638095Y-75528628D02*
X175590476Y-75481009D01*
X175590476Y-75481009D02*
X175495238Y-75433390D01*
X153091666Y-127704819D02*
X153091666Y-128419104D01*
X153091666Y-128419104D02*
X153044047Y-128561961D01*
X153044047Y-128561961D02*
X152948809Y-128657200D01*
X152948809Y-128657200D02*
X152805952Y-128704819D01*
X152805952Y-128704819D02*
X152710714Y-128704819D01*
X153472619Y-127704819D02*
X154091666Y-127704819D01*
X154091666Y-127704819D02*
X153758333Y-128085771D01*
X153758333Y-128085771D02*
X153901190Y-128085771D01*
X153901190Y-128085771D02*
X153996428Y-128133390D01*
X153996428Y-128133390D02*
X154044047Y-128181009D01*
X154044047Y-128181009D02*
X154091666Y-128276247D01*
X154091666Y-128276247D02*
X154091666Y-128514342D01*
X154091666Y-128514342D02*
X154044047Y-128609580D01*
X154044047Y-128609580D02*
X153996428Y-128657200D01*
X153996428Y-128657200D02*
X153901190Y-128704819D01*
X153901190Y-128704819D02*
X153615476Y-128704819D01*
X153615476Y-128704819D02*
X153520238Y-128657200D01*
X153520238Y-128657200D02*
X153472619Y-128609580D01*
X104486406Y-136096365D02*
X104153073Y-135620174D01*
X103914978Y-136096365D02*
X103914978Y-135096365D01*
X103914978Y-135096365D02*
X104295930Y-135096365D01*
X104295930Y-135096365D02*
X104391168Y-135143984D01*
X104391168Y-135143984D02*
X104438787Y-135191603D01*
X104438787Y-135191603D02*
X104486406Y-135286841D01*
X104486406Y-135286841D02*
X104486406Y-135429698D01*
X104486406Y-135429698D02*
X104438787Y-135524936D01*
X104438787Y-135524936D02*
X104391168Y-135572555D01*
X104391168Y-135572555D02*
X104295930Y-135620174D01*
X104295930Y-135620174D02*
X103914978Y-135620174D01*
X104772121Y-135096365D02*
X105105454Y-136096365D01*
X105105454Y-136096365D02*
X105438787Y-135096365D01*
X106248311Y-135096365D02*
X105772121Y-135096365D01*
X105772121Y-135096365D02*
X105724502Y-135572555D01*
X105724502Y-135572555D02*
X105772121Y-135524936D01*
X105772121Y-135524936D02*
X105867359Y-135477317D01*
X105867359Y-135477317D02*
X106105454Y-135477317D01*
X106105454Y-135477317D02*
X106200692Y-135524936D01*
X106200692Y-135524936D02*
X106248311Y-135572555D01*
X106248311Y-135572555D02*
X106295930Y-135667793D01*
X106295930Y-135667793D02*
X106295930Y-135905888D01*
X106295930Y-135905888D02*
X106248311Y-136001126D01*
X106248311Y-136001126D02*
X106200692Y-136048746D01*
X106200692Y-136048746D02*
X106105454Y-136096365D01*
X106105454Y-136096365D02*
X105867359Y-136096365D01*
X105867359Y-136096365D02*
X105772121Y-136048746D01*
X105772121Y-136048746D02*
X105724502Y-136001126D01*
X168532142Y-116674580D02*
X168484523Y-116722200D01*
X168484523Y-116722200D02*
X168341666Y-116769819D01*
X168341666Y-116769819D02*
X168246428Y-116769819D01*
X168246428Y-116769819D02*
X168103571Y-116722200D01*
X168103571Y-116722200D02*
X168008333Y-116626961D01*
X168008333Y-116626961D02*
X167960714Y-116531723D01*
X167960714Y-116531723D02*
X167913095Y-116341247D01*
X167913095Y-116341247D02*
X167913095Y-116198390D01*
X167913095Y-116198390D02*
X167960714Y-116007914D01*
X167960714Y-116007914D02*
X168008333Y-115912676D01*
X168008333Y-115912676D02*
X168103571Y-115817438D01*
X168103571Y-115817438D02*
X168246428Y-115769819D01*
X168246428Y-115769819D02*
X168341666Y-115769819D01*
X168341666Y-115769819D02*
X168484523Y-115817438D01*
X168484523Y-115817438D02*
X168532142Y-115865057D01*
X169484523Y-116769819D02*
X168913095Y-116769819D01*
X169198809Y-116769819D02*
X169198809Y-115769819D01*
X169198809Y-115769819D02*
X169103571Y-115912676D01*
X169103571Y-115912676D02*
X169008333Y-116007914D01*
X169008333Y-116007914D02*
X168913095Y-116055533D01*
X170436904Y-116769819D02*
X169865476Y-116769819D01*
X170151190Y-116769819D02*
X170151190Y-115769819D01*
X170151190Y-115769819D02*
X170055952Y-115912676D01*
X170055952Y-115912676D02*
X169960714Y-116007914D01*
X169960714Y-116007914D02*
X169865476Y-116055533D01*
X158654819Y-82742857D02*
X158178628Y-83076190D01*
X158654819Y-83314285D02*
X157654819Y-83314285D01*
X157654819Y-83314285D02*
X157654819Y-82933333D01*
X157654819Y-82933333D02*
X157702438Y-82838095D01*
X157702438Y-82838095D02*
X157750057Y-82790476D01*
X157750057Y-82790476D02*
X157845295Y-82742857D01*
X157845295Y-82742857D02*
X157988152Y-82742857D01*
X157988152Y-82742857D02*
X158083390Y-82790476D01*
X158083390Y-82790476D02*
X158131009Y-82838095D01*
X158131009Y-82838095D02*
X158178628Y-82933333D01*
X158178628Y-82933333D02*
X158178628Y-83314285D01*
X158654819Y-81790476D02*
X158654819Y-82361904D01*
X158654819Y-82076190D02*
X157654819Y-82076190D01*
X157654819Y-82076190D02*
X157797676Y-82171428D01*
X157797676Y-82171428D02*
X157892914Y-82266666D01*
X157892914Y-82266666D02*
X157940533Y-82361904D01*
X158654819Y-80838095D02*
X158654819Y-81409523D01*
X158654819Y-81123809D02*
X157654819Y-81123809D01*
X157654819Y-81123809D02*
X157797676Y-81219047D01*
X157797676Y-81219047D02*
X157892914Y-81314285D01*
X157892914Y-81314285D02*
X157940533Y-81409523D01*
X147816666Y-71804819D02*
X147816666Y-72519104D01*
X147816666Y-72519104D02*
X147769047Y-72661961D01*
X147769047Y-72661961D02*
X147673809Y-72757200D01*
X147673809Y-72757200D02*
X147530952Y-72804819D01*
X147530952Y-72804819D02*
X147435714Y-72804819D01*
X148245238Y-71900057D02*
X148292857Y-71852438D01*
X148292857Y-71852438D02*
X148388095Y-71804819D01*
X148388095Y-71804819D02*
X148626190Y-71804819D01*
X148626190Y-71804819D02*
X148721428Y-71852438D01*
X148721428Y-71852438D02*
X148769047Y-71900057D01*
X148769047Y-71900057D02*
X148816666Y-71995295D01*
X148816666Y-71995295D02*
X148816666Y-72090533D01*
X148816666Y-72090533D02*
X148769047Y-72233390D01*
X148769047Y-72233390D02*
X148197619Y-72804819D01*
X148197619Y-72804819D02*
X148816666Y-72804819D01*
X155348333Y-101284819D02*
X155015000Y-100808628D01*
X154776905Y-101284819D02*
X154776905Y-100284819D01*
X154776905Y-100284819D02*
X155157857Y-100284819D01*
X155157857Y-100284819D02*
X155253095Y-100332438D01*
X155253095Y-100332438D02*
X155300714Y-100380057D01*
X155300714Y-100380057D02*
X155348333Y-100475295D01*
X155348333Y-100475295D02*
X155348333Y-100618152D01*
X155348333Y-100618152D02*
X155300714Y-100713390D01*
X155300714Y-100713390D02*
X155253095Y-100761009D01*
X155253095Y-100761009D02*
X155157857Y-100808628D01*
X155157857Y-100808628D02*
X154776905Y-100808628D01*
X156205476Y-100284819D02*
X156015000Y-100284819D01*
X156015000Y-100284819D02*
X155919762Y-100332438D01*
X155919762Y-100332438D02*
X155872143Y-100380057D01*
X155872143Y-100380057D02*
X155776905Y-100522914D01*
X155776905Y-100522914D02*
X155729286Y-100713390D01*
X155729286Y-100713390D02*
X155729286Y-101094342D01*
X155729286Y-101094342D02*
X155776905Y-101189580D01*
X155776905Y-101189580D02*
X155824524Y-101237200D01*
X155824524Y-101237200D02*
X155919762Y-101284819D01*
X155919762Y-101284819D02*
X156110238Y-101284819D01*
X156110238Y-101284819D02*
X156205476Y-101237200D01*
X156205476Y-101237200D02*
X156253095Y-101189580D01*
X156253095Y-101189580D02*
X156300714Y-101094342D01*
X156300714Y-101094342D02*
X156300714Y-100856247D01*
X156300714Y-100856247D02*
X156253095Y-100761009D01*
X156253095Y-100761009D02*
X156205476Y-100713390D01*
X156205476Y-100713390D02*
X156110238Y-100665771D01*
X156110238Y-100665771D02*
X155919762Y-100665771D01*
X155919762Y-100665771D02*
X155824524Y-100713390D01*
X155824524Y-100713390D02*
X155776905Y-100761009D01*
X155776905Y-100761009D02*
X155729286Y-100856247D01*
X177259580Y-94766666D02*
X177307200Y-94814285D01*
X177307200Y-94814285D02*
X177354819Y-94957142D01*
X177354819Y-94957142D02*
X177354819Y-95052380D01*
X177354819Y-95052380D02*
X177307200Y-95195237D01*
X177307200Y-95195237D02*
X177211961Y-95290475D01*
X177211961Y-95290475D02*
X177116723Y-95338094D01*
X177116723Y-95338094D02*
X176926247Y-95385713D01*
X176926247Y-95385713D02*
X176783390Y-95385713D01*
X176783390Y-95385713D02*
X176592914Y-95338094D01*
X176592914Y-95338094D02*
X176497676Y-95290475D01*
X176497676Y-95290475D02*
X176402438Y-95195237D01*
X176402438Y-95195237D02*
X176354819Y-95052380D01*
X176354819Y-95052380D02*
X176354819Y-94957142D01*
X176354819Y-94957142D02*
X176402438Y-94814285D01*
X176402438Y-94814285D02*
X176450057Y-94766666D01*
X176354819Y-93861904D02*
X176354819Y-94338094D01*
X176354819Y-94338094D02*
X176831009Y-94385713D01*
X176831009Y-94385713D02*
X176783390Y-94338094D01*
X176783390Y-94338094D02*
X176735771Y-94242856D01*
X176735771Y-94242856D02*
X176735771Y-94004761D01*
X176735771Y-94004761D02*
X176783390Y-93909523D01*
X176783390Y-93909523D02*
X176831009Y-93861904D01*
X176831009Y-93861904D02*
X176926247Y-93814285D01*
X176926247Y-93814285D02*
X177164342Y-93814285D01*
X177164342Y-93814285D02*
X177259580Y-93861904D01*
X177259580Y-93861904D02*
X177307200Y-93909523D01*
X177307200Y-93909523D02*
X177354819Y-94004761D01*
X177354819Y-94004761D02*
X177354819Y-94242856D01*
X177354819Y-94242856D02*
X177307200Y-94338094D01*
X177307200Y-94338094D02*
X177259580Y-94385713D01*
X178784580Y-86341666D02*
X178832200Y-86389285D01*
X178832200Y-86389285D02*
X178879819Y-86532142D01*
X178879819Y-86532142D02*
X178879819Y-86627380D01*
X178879819Y-86627380D02*
X178832200Y-86770237D01*
X178832200Y-86770237D02*
X178736961Y-86865475D01*
X178736961Y-86865475D02*
X178641723Y-86913094D01*
X178641723Y-86913094D02*
X178451247Y-86960713D01*
X178451247Y-86960713D02*
X178308390Y-86960713D01*
X178308390Y-86960713D02*
X178117914Y-86913094D01*
X178117914Y-86913094D02*
X178022676Y-86865475D01*
X178022676Y-86865475D02*
X177927438Y-86770237D01*
X177927438Y-86770237D02*
X177879819Y-86627380D01*
X177879819Y-86627380D02*
X177879819Y-86532142D01*
X177879819Y-86532142D02*
X177927438Y-86389285D01*
X177927438Y-86389285D02*
X177975057Y-86341666D01*
X177879819Y-86008332D02*
X177879819Y-85341666D01*
X177879819Y-85341666D02*
X178879819Y-85770237D01*
X133257142Y-119334580D02*
X133209523Y-119382200D01*
X133209523Y-119382200D02*
X133066666Y-119429819D01*
X133066666Y-119429819D02*
X132971428Y-119429819D01*
X132971428Y-119429819D02*
X132828571Y-119382200D01*
X132828571Y-119382200D02*
X132733333Y-119286961D01*
X132733333Y-119286961D02*
X132685714Y-119191723D01*
X132685714Y-119191723D02*
X132638095Y-119001247D01*
X132638095Y-119001247D02*
X132638095Y-118858390D01*
X132638095Y-118858390D02*
X132685714Y-118667914D01*
X132685714Y-118667914D02*
X132733333Y-118572676D01*
X132733333Y-118572676D02*
X132828571Y-118477438D01*
X132828571Y-118477438D02*
X132971428Y-118429819D01*
X132971428Y-118429819D02*
X133066666Y-118429819D01*
X133066666Y-118429819D02*
X133209523Y-118477438D01*
X133209523Y-118477438D02*
X133257142Y-118525057D01*
X134209523Y-119429819D02*
X133638095Y-119429819D01*
X133923809Y-119429819D02*
X133923809Y-118429819D01*
X133923809Y-118429819D02*
X133828571Y-118572676D01*
X133828571Y-118572676D02*
X133733333Y-118667914D01*
X133733333Y-118667914D02*
X133638095Y-118715533D01*
X134828571Y-118429819D02*
X134923809Y-118429819D01*
X134923809Y-118429819D02*
X135019047Y-118477438D01*
X135019047Y-118477438D02*
X135066666Y-118525057D01*
X135066666Y-118525057D02*
X135114285Y-118620295D01*
X135114285Y-118620295D02*
X135161904Y-118810771D01*
X135161904Y-118810771D02*
X135161904Y-119048866D01*
X135161904Y-119048866D02*
X135114285Y-119239342D01*
X135114285Y-119239342D02*
X135066666Y-119334580D01*
X135066666Y-119334580D02*
X135019047Y-119382200D01*
X135019047Y-119382200D02*
X134923809Y-119429819D01*
X134923809Y-119429819D02*
X134828571Y-119429819D01*
X134828571Y-119429819D02*
X134733333Y-119382200D01*
X134733333Y-119382200D02*
X134685714Y-119334580D01*
X134685714Y-119334580D02*
X134638095Y-119239342D01*
X134638095Y-119239342D02*
X134590476Y-119048866D01*
X134590476Y-119048866D02*
X134590476Y-118810771D01*
X134590476Y-118810771D02*
X134638095Y-118620295D01*
X134638095Y-118620295D02*
X134685714Y-118525057D01*
X134685714Y-118525057D02*
X134733333Y-118477438D01*
X134733333Y-118477438D02*
X134828571Y-118429819D01*
X136894819Y-113602857D02*
X136418628Y-113936190D01*
X136894819Y-114174285D02*
X135894819Y-114174285D01*
X135894819Y-114174285D02*
X135894819Y-113793333D01*
X135894819Y-113793333D02*
X135942438Y-113698095D01*
X135942438Y-113698095D02*
X135990057Y-113650476D01*
X135990057Y-113650476D02*
X136085295Y-113602857D01*
X136085295Y-113602857D02*
X136228152Y-113602857D01*
X136228152Y-113602857D02*
X136323390Y-113650476D01*
X136323390Y-113650476D02*
X136371009Y-113698095D01*
X136371009Y-113698095D02*
X136418628Y-113793333D01*
X136418628Y-113793333D02*
X136418628Y-114174285D01*
X136894819Y-112650476D02*
X136894819Y-113221904D01*
X136894819Y-112936190D02*
X135894819Y-112936190D01*
X135894819Y-112936190D02*
X136037676Y-113031428D01*
X136037676Y-113031428D02*
X136132914Y-113126666D01*
X136132914Y-113126666D02*
X136180533Y-113221904D01*
X135990057Y-112269523D02*
X135942438Y-112221904D01*
X135942438Y-112221904D02*
X135894819Y-112126666D01*
X135894819Y-112126666D02*
X135894819Y-111888571D01*
X135894819Y-111888571D02*
X135942438Y-111793333D01*
X135942438Y-111793333D02*
X135990057Y-111745714D01*
X135990057Y-111745714D02*
X136085295Y-111698095D01*
X136085295Y-111698095D02*
X136180533Y-111698095D01*
X136180533Y-111698095D02*
X136323390Y-111745714D01*
X136323390Y-111745714D02*
X136894819Y-112317142D01*
X136894819Y-112317142D02*
X136894819Y-111698095D01*
X190474761Y-70109819D02*
X190141428Y-69633628D01*
X189903333Y-70109819D02*
X189903333Y-69109819D01*
X189903333Y-69109819D02*
X190284285Y-69109819D01*
X190284285Y-69109819D02*
X190379523Y-69157438D01*
X190379523Y-69157438D02*
X190427142Y-69205057D01*
X190427142Y-69205057D02*
X190474761Y-69300295D01*
X190474761Y-69300295D02*
X190474761Y-69443152D01*
X190474761Y-69443152D02*
X190427142Y-69538390D01*
X190427142Y-69538390D02*
X190379523Y-69586009D01*
X190379523Y-69586009D02*
X190284285Y-69633628D01*
X190284285Y-69633628D02*
X189903333Y-69633628D01*
X190760476Y-69109819D02*
X191093809Y-70109819D01*
X191093809Y-70109819D02*
X191427142Y-69109819D01*
X192189047Y-69443152D02*
X192189047Y-70109819D01*
X191950952Y-69062200D02*
X191712857Y-69776485D01*
X191712857Y-69776485D02*
X192331904Y-69776485D01*
X175324819Y-104266666D02*
X174848628Y-104599999D01*
X175324819Y-104838094D02*
X174324819Y-104838094D01*
X174324819Y-104838094D02*
X174324819Y-104457142D01*
X174324819Y-104457142D02*
X174372438Y-104361904D01*
X174372438Y-104361904D02*
X174420057Y-104314285D01*
X174420057Y-104314285D02*
X174515295Y-104266666D01*
X174515295Y-104266666D02*
X174658152Y-104266666D01*
X174658152Y-104266666D02*
X174753390Y-104314285D01*
X174753390Y-104314285D02*
X174801009Y-104361904D01*
X174801009Y-104361904D02*
X174848628Y-104457142D01*
X174848628Y-104457142D02*
X174848628Y-104838094D01*
X174324819Y-103933332D02*
X174324819Y-103266666D01*
X174324819Y-103266666D02*
X175324819Y-103695237D01*
X142059580Y-70992857D02*
X142107200Y-71040476D01*
X142107200Y-71040476D02*
X142154819Y-71183333D01*
X142154819Y-71183333D02*
X142154819Y-71278571D01*
X142154819Y-71278571D02*
X142107200Y-71421428D01*
X142107200Y-71421428D02*
X142011961Y-71516666D01*
X142011961Y-71516666D02*
X141916723Y-71564285D01*
X141916723Y-71564285D02*
X141726247Y-71611904D01*
X141726247Y-71611904D02*
X141583390Y-71611904D01*
X141583390Y-71611904D02*
X141392914Y-71564285D01*
X141392914Y-71564285D02*
X141297676Y-71516666D01*
X141297676Y-71516666D02*
X141202438Y-71421428D01*
X141202438Y-71421428D02*
X141154819Y-71278571D01*
X141154819Y-71278571D02*
X141154819Y-71183333D01*
X141154819Y-71183333D02*
X141202438Y-71040476D01*
X141202438Y-71040476D02*
X141250057Y-70992857D01*
X142154819Y-70040476D02*
X142154819Y-70611904D01*
X142154819Y-70326190D02*
X141154819Y-70326190D01*
X141154819Y-70326190D02*
X141297676Y-70421428D01*
X141297676Y-70421428D02*
X141392914Y-70516666D01*
X141392914Y-70516666D02*
X141440533Y-70611904D01*
X141488152Y-69183333D02*
X142154819Y-69183333D01*
X141107200Y-69421428D02*
X141821485Y-69659523D01*
X141821485Y-69659523D02*
X141821485Y-69040476D01*
X134694819Y-93291666D02*
X134218628Y-93624999D01*
X134694819Y-93863094D02*
X133694819Y-93863094D01*
X133694819Y-93863094D02*
X133694819Y-93482142D01*
X133694819Y-93482142D02*
X133742438Y-93386904D01*
X133742438Y-93386904D02*
X133790057Y-93339285D01*
X133790057Y-93339285D02*
X133885295Y-93291666D01*
X133885295Y-93291666D02*
X134028152Y-93291666D01*
X134028152Y-93291666D02*
X134123390Y-93339285D01*
X134123390Y-93339285D02*
X134171009Y-93386904D01*
X134171009Y-93386904D02*
X134218628Y-93482142D01*
X134218628Y-93482142D02*
X134218628Y-93863094D01*
X133694819Y-92386904D02*
X133694819Y-92863094D01*
X133694819Y-92863094D02*
X134171009Y-92910713D01*
X134171009Y-92910713D02*
X134123390Y-92863094D01*
X134123390Y-92863094D02*
X134075771Y-92767856D01*
X134075771Y-92767856D02*
X134075771Y-92529761D01*
X134075771Y-92529761D02*
X134123390Y-92434523D01*
X134123390Y-92434523D02*
X134171009Y-92386904D01*
X134171009Y-92386904D02*
X134266247Y-92339285D01*
X134266247Y-92339285D02*
X134504342Y-92339285D01*
X134504342Y-92339285D02*
X134599580Y-92386904D01*
X134599580Y-92386904D02*
X134647200Y-92434523D01*
X134647200Y-92434523D02*
X134694819Y-92529761D01*
X134694819Y-92529761D02*
X134694819Y-92767856D01*
X134694819Y-92767856D02*
X134647200Y-92863094D01*
X134647200Y-92863094D02*
X134599580Y-92910713D01*
X168959580Y-105791666D02*
X169007200Y-105839285D01*
X169007200Y-105839285D02*
X169054819Y-105982142D01*
X169054819Y-105982142D02*
X169054819Y-106077380D01*
X169054819Y-106077380D02*
X169007200Y-106220237D01*
X169007200Y-106220237D02*
X168911961Y-106315475D01*
X168911961Y-106315475D02*
X168816723Y-106363094D01*
X168816723Y-106363094D02*
X168626247Y-106410713D01*
X168626247Y-106410713D02*
X168483390Y-106410713D01*
X168483390Y-106410713D02*
X168292914Y-106363094D01*
X168292914Y-106363094D02*
X168197676Y-106315475D01*
X168197676Y-106315475D02*
X168102438Y-106220237D01*
X168102438Y-106220237D02*
X168054819Y-106077380D01*
X168054819Y-106077380D02*
X168054819Y-105982142D01*
X168054819Y-105982142D02*
X168102438Y-105839285D01*
X168102438Y-105839285D02*
X168150057Y-105791666D01*
X168054819Y-104934523D02*
X168054819Y-105124999D01*
X168054819Y-105124999D02*
X168102438Y-105220237D01*
X168102438Y-105220237D02*
X168150057Y-105267856D01*
X168150057Y-105267856D02*
X168292914Y-105363094D01*
X168292914Y-105363094D02*
X168483390Y-105410713D01*
X168483390Y-105410713D02*
X168864342Y-105410713D01*
X168864342Y-105410713D02*
X168959580Y-105363094D01*
X168959580Y-105363094D02*
X169007200Y-105315475D01*
X169007200Y-105315475D02*
X169054819Y-105220237D01*
X169054819Y-105220237D02*
X169054819Y-105029761D01*
X169054819Y-105029761D02*
X169007200Y-104934523D01*
X169007200Y-104934523D02*
X168959580Y-104886904D01*
X168959580Y-104886904D02*
X168864342Y-104839285D01*
X168864342Y-104839285D02*
X168626247Y-104839285D01*
X168626247Y-104839285D02*
X168531009Y-104886904D01*
X168531009Y-104886904D02*
X168483390Y-104934523D01*
X168483390Y-104934523D02*
X168435771Y-105029761D01*
X168435771Y-105029761D02*
X168435771Y-105220237D01*
X168435771Y-105220237D02*
X168483390Y-105315475D01*
X168483390Y-105315475D02*
X168531009Y-105363094D01*
X168531009Y-105363094D02*
X168626247Y-105410713D01*
X131583333Y-82234580D02*
X131535714Y-82282200D01*
X131535714Y-82282200D02*
X131392857Y-82329819D01*
X131392857Y-82329819D02*
X131297619Y-82329819D01*
X131297619Y-82329819D02*
X131154762Y-82282200D01*
X131154762Y-82282200D02*
X131059524Y-82186961D01*
X131059524Y-82186961D02*
X131011905Y-82091723D01*
X131011905Y-82091723D02*
X130964286Y-81901247D01*
X130964286Y-81901247D02*
X130964286Y-81758390D01*
X130964286Y-81758390D02*
X131011905Y-81567914D01*
X131011905Y-81567914D02*
X131059524Y-81472676D01*
X131059524Y-81472676D02*
X131154762Y-81377438D01*
X131154762Y-81377438D02*
X131297619Y-81329819D01*
X131297619Y-81329819D02*
X131392857Y-81329819D01*
X131392857Y-81329819D02*
X131535714Y-81377438D01*
X131535714Y-81377438D02*
X131583333Y-81425057D01*
X131964286Y-81425057D02*
X132011905Y-81377438D01*
X132011905Y-81377438D02*
X132107143Y-81329819D01*
X132107143Y-81329819D02*
X132345238Y-81329819D01*
X132345238Y-81329819D02*
X132440476Y-81377438D01*
X132440476Y-81377438D02*
X132488095Y-81425057D01*
X132488095Y-81425057D02*
X132535714Y-81520295D01*
X132535714Y-81520295D02*
X132535714Y-81615533D01*
X132535714Y-81615533D02*
X132488095Y-81758390D01*
X132488095Y-81758390D02*
X131916667Y-82329819D01*
X131916667Y-82329819D02*
X132535714Y-82329819D01*
X119859580Y-86291666D02*
X119907200Y-86339285D01*
X119907200Y-86339285D02*
X119954819Y-86482142D01*
X119954819Y-86482142D02*
X119954819Y-86577380D01*
X119954819Y-86577380D02*
X119907200Y-86720237D01*
X119907200Y-86720237D02*
X119811961Y-86815475D01*
X119811961Y-86815475D02*
X119716723Y-86863094D01*
X119716723Y-86863094D02*
X119526247Y-86910713D01*
X119526247Y-86910713D02*
X119383390Y-86910713D01*
X119383390Y-86910713D02*
X119192914Y-86863094D01*
X119192914Y-86863094D02*
X119097676Y-86815475D01*
X119097676Y-86815475D02*
X119002438Y-86720237D01*
X119002438Y-86720237D02*
X118954819Y-86577380D01*
X118954819Y-86577380D02*
X118954819Y-86482142D01*
X118954819Y-86482142D02*
X119002438Y-86339285D01*
X119002438Y-86339285D02*
X119050057Y-86291666D01*
X119954819Y-85339285D02*
X119954819Y-85910713D01*
X119954819Y-85624999D02*
X118954819Y-85624999D01*
X118954819Y-85624999D02*
X119097676Y-85720237D01*
X119097676Y-85720237D02*
X119192914Y-85815475D01*
X119192914Y-85815475D02*
X119240533Y-85910713D01*
X117891365Y-79015126D02*
X117415174Y-79348459D01*
X117891365Y-79586554D02*
X116891365Y-79586554D01*
X116891365Y-79586554D02*
X116891365Y-79205602D01*
X116891365Y-79205602D02*
X116938984Y-79110364D01*
X116938984Y-79110364D02*
X116986603Y-79062745D01*
X116986603Y-79062745D02*
X117081841Y-79015126D01*
X117081841Y-79015126D02*
X117224698Y-79015126D01*
X117224698Y-79015126D02*
X117319936Y-79062745D01*
X117319936Y-79062745D02*
X117367555Y-79110364D01*
X117367555Y-79110364D02*
X117415174Y-79205602D01*
X117415174Y-79205602D02*
X117415174Y-79586554D01*
X117891365Y-78062745D02*
X117891365Y-78634173D01*
X117891365Y-78348459D02*
X116891365Y-78348459D01*
X116891365Y-78348459D02*
X117034222Y-78443697D01*
X117034222Y-78443697D02*
X117129460Y-78538935D01*
X117129460Y-78538935D02*
X117177079Y-78634173D01*
X116891365Y-77729411D02*
X116891365Y-77062745D01*
X116891365Y-77062745D02*
X117891365Y-77491316D01*
X145508333Y-101429819D02*
X145175000Y-100953628D01*
X144936905Y-101429819D02*
X144936905Y-100429819D01*
X144936905Y-100429819D02*
X145317857Y-100429819D01*
X145317857Y-100429819D02*
X145413095Y-100477438D01*
X145413095Y-100477438D02*
X145460714Y-100525057D01*
X145460714Y-100525057D02*
X145508333Y-100620295D01*
X145508333Y-100620295D02*
X145508333Y-100763152D01*
X145508333Y-100763152D02*
X145460714Y-100858390D01*
X145460714Y-100858390D02*
X145413095Y-100906009D01*
X145413095Y-100906009D02*
X145317857Y-100953628D01*
X145317857Y-100953628D02*
X144936905Y-100953628D01*
X145841667Y-100429819D02*
X146460714Y-100429819D01*
X146460714Y-100429819D02*
X146127381Y-100810771D01*
X146127381Y-100810771D02*
X146270238Y-100810771D01*
X146270238Y-100810771D02*
X146365476Y-100858390D01*
X146365476Y-100858390D02*
X146413095Y-100906009D01*
X146413095Y-100906009D02*
X146460714Y-101001247D01*
X146460714Y-101001247D02*
X146460714Y-101239342D01*
X146460714Y-101239342D02*
X146413095Y-101334580D01*
X146413095Y-101334580D02*
X146365476Y-101382200D01*
X146365476Y-101382200D02*
X146270238Y-101429819D01*
X146270238Y-101429819D02*
X145984524Y-101429819D01*
X145984524Y-101429819D02*
X145889286Y-101382200D01*
X145889286Y-101382200D02*
X145841667Y-101334580D01*
X181732142Y-75604819D02*
X181398809Y-75128628D01*
X181160714Y-75604819D02*
X181160714Y-74604819D01*
X181160714Y-74604819D02*
X181541666Y-74604819D01*
X181541666Y-74604819D02*
X181636904Y-74652438D01*
X181636904Y-74652438D02*
X181684523Y-74700057D01*
X181684523Y-74700057D02*
X181732142Y-74795295D01*
X181732142Y-74795295D02*
X181732142Y-74938152D01*
X181732142Y-74938152D02*
X181684523Y-75033390D01*
X181684523Y-75033390D02*
X181636904Y-75081009D01*
X181636904Y-75081009D02*
X181541666Y-75128628D01*
X181541666Y-75128628D02*
X181160714Y-75128628D01*
X182113095Y-74700057D02*
X182160714Y-74652438D01*
X182160714Y-74652438D02*
X182255952Y-74604819D01*
X182255952Y-74604819D02*
X182494047Y-74604819D01*
X182494047Y-74604819D02*
X182589285Y-74652438D01*
X182589285Y-74652438D02*
X182636904Y-74700057D01*
X182636904Y-74700057D02*
X182684523Y-74795295D01*
X182684523Y-74795295D02*
X182684523Y-74890533D01*
X182684523Y-74890533D02*
X182636904Y-75033390D01*
X182636904Y-75033390D02*
X182065476Y-75604819D01*
X182065476Y-75604819D02*
X182684523Y-75604819D01*
X183303571Y-74604819D02*
X183398809Y-74604819D01*
X183398809Y-74604819D02*
X183494047Y-74652438D01*
X183494047Y-74652438D02*
X183541666Y-74700057D01*
X183541666Y-74700057D02*
X183589285Y-74795295D01*
X183589285Y-74795295D02*
X183636904Y-74985771D01*
X183636904Y-74985771D02*
X183636904Y-75223866D01*
X183636904Y-75223866D02*
X183589285Y-75414342D01*
X183589285Y-75414342D02*
X183541666Y-75509580D01*
X183541666Y-75509580D02*
X183494047Y-75557200D01*
X183494047Y-75557200D02*
X183398809Y-75604819D01*
X183398809Y-75604819D02*
X183303571Y-75604819D01*
X183303571Y-75604819D02*
X183208333Y-75557200D01*
X183208333Y-75557200D02*
X183160714Y-75509580D01*
X183160714Y-75509580D02*
X183113095Y-75414342D01*
X183113095Y-75414342D02*
X183065476Y-75223866D01*
X183065476Y-75223866D02*
X183065476Y-74985771D01*
X183065476Y-74985771D02*
X183113095Y-74795295D01*
X183113095Y-74795295D02*
X183160714Y-74700057D01*
X183160714Y-74700057D02*
X183208333Y-74652438D01*
X183208333Y-74652438D02*
X183303571Y-74604819D01*
X125947142Y-127234819D02*
X125613809Y-126758628D01*
X125375714Y-127234819D02*
X125375714Y-126234819D01*
X125375714Y-126234819D02*
X125756666Y-126234819D01*
X125756666Y-126234819D02*
X125851904Y-126282438D01*
X125851904Y-126282438D02*
X125899523Y-126330057D01*
X125899523Y-126330057D02*
X125947142Y-126425295D01*
X125947142Y-126425295D02*
X125947142Y-126568152D01*
X125947142Y-126568152D02*
X125899523Y-126663390D01*
X125899523Y-126663390D02*
X125851904Y-126711009D01*
X125851904Y-126711009D02*
X125756666Y-126758628D01*
X125756666Y-126758628D02*
X125375714Y-126758628D01*
X126899523Y-127234819D02*
X126328095Y-127234819D01*
X126613809Y-127234819D02*
X126613809Y-126234819D01*
X126613809Y-126234819D02*
X126518571Y-126377676D01*
X126518571Y-126377676D02*
X126423333Y-126472914D01*
X126423333Y-126472914D02*
X126328095Y-126520533D01*
X127232857Y-126234819D02*
X127851904Y-126234819D01*
X127851904Y-126234819D02*
X127518571Y-126615771D01*
X127518571Y-126615771D02*
X127661428Y-126615771D01*
X127661428Y-126615771D02*
X127756666Y-126663390D01*
X127756666Y-126663390D02*
X127804285Y-126711009D01*
X127804285Y-126711009D02*
X127851904Y-126806247D01*
X127851904Y-126806247D02*
X127851904Y-127044342D01*
X127851904Y-127044342D02*
X127804285Y-127139580D01*
X127804285Y-127139580D02*
X127756666Y-127187200D01*
X127756666Y-127187200D02*
X127661428Y-127234819D01*
X127661428Y-127234819D02*
X127375714Y-127234819D01*
X127375714Y-127234819D02*
X127280476Y-127187200D01*
X127280476Y-127187200D02*
X127232857Y-127139580D01*
X104470361Y-90226619D02*
X104137028Y-89750428D01*
X103898933Y-90226619D02*
X103898933Y-89226619D01*
X103898933Y-89226619D02*
X104279885Y-89226619D01*
X104279885Y-89226619D02*
X104375123Y-89274238D01*
X104375123Y-89274238D02*
X104422742Y-89321857D01*
X104422742Y-89321857D02*
X104470361Y-89417095D01*
X104470361Y-89417095D02*
X104470361Y-89559952D01*
X104470361Y-89559952D02*
X104422742Y-89655190D01*
X104422742Y-89655190D02*
X104375123Y-89702809D01*
X104375123Y-89702809D02*
X104279885Y-89750428D01*
X104279885Y-89750428D02*
X103898933Y-89750428D01*
X104756076Y-89226619D02*
X105089409Y-90226619D01*
X105089409Y-90226619D02*
X105422742Y-89226619D01*
X106279885Y-90226619D02*
X105708457Y-90226619D01*
X105994171Y-90226619D02*
X105994171Y-89226619D01*
X105994171Y-89226619D02*
X105898933Y-89369476D01*
X105898933Y-89369476D02*
X105803695Y-89464714D01*
X105803695Y-89464714D02*
X105708457Y-89512333D01*
X117694819Y-102007857D02*
X117218628Y-102341190D01*
X117694819Y-102579285D02*
X116694819Y-102579285D01*
X116694819Y-102579285D02*
X116694819Y-102198333D01*
X116694819Y-102198333D02*
X116742438Y-102103095D01*
X116742438Y-102103095D02*
X116790057Y-102055476D01*
X116790057Y-102055476D02*
X116885295Y-102007857D01*
X116885295Y-102007857D02*
X117028152Y-102007857D01*
X117028152Y-102007857D02*
X117123390Y-102055476D01*
X117123390Y-102055476D02*
X117171009Y-102103095D01*
X117171009Y-102103095D02*
X117218628Y-102198333D01*
X117218628Y-102198333D02*
X117218628Y-102579285D01*
X117694819Y-101055476D02*
X117694819Y-101626904D01*
X117694819Y-101341190D02*
X116694819Y-101341190D01*
X116694819Y-101341190D02*
X116837676Y-101436428D01*
X116837676Y-101436428D02*
X116932914Y-101531666D01*
X116932914Y-101531666D02*
X116980533Y-101626904D01*
X117123390Y-100484047D02*
X117075771Y-100579285D01*
X117075771Y-100579285D02*
X117028152Y-100626904D01*
X117028152Y-100626904D02*
X116932914Y-100674523D01*
X116932914Y-100674523D02*
X116885295Y-100674523D01*
X116885295Y-100674523D02*
X116790057Y-100626904D01*
X116790057Y-100626904D02*
X116742438Y-100579285D01*
X116742438Y-100579285D02*
X116694819Y-100484047D01*
X116694819Y-100484047D02*
X116694819Y-100293571D01*
X116694819Y-100293571D02*
X116742438Y-100198333D01*
X116742438Y-100198333D02*
X116790057Y-100150714D01*
X116790057Y-100150714D02*
X116885295Y-100103095D01*
X116885295Y-100103095D02*
X116932914Y-100103095D01*
X116932914Y-100103095D02*
X117028152Y-100150714D01*
X117028152Y-100150714D02*
X117075771Y-100198333D01*
X117075771Y-100198333D02*
X117123390Y-100293571D01*
X117123390Y-100293571D02*
X117123390Y-100484047D01*
X117123390Y-100484047D02*
X117171009Y-100579285D01*
X117171009Y-100579285D02*
X117218628Y-100626904D01*
X117218628Y-100626904D02*
X117313866Y-100674523D01*
X117313866Y-100674523D02*
X117504342Y-100674523D01*
X117504342Y-100674523D02*
X117599580Y-100626904D01*
X117599580Y-100626904D02*
X117647200Y-100579285D01*
X117647200Y-100579285D02*
X117694819Y-100484047D01*
X117694819Y-100484047D02*
X117694819Y-100293571D01*
X117694819Y-100293571D02*
X117647200Y-100198333D01*
X117647200Y-100198333D02*
X117599580Y-100150714D01*
X117599580Y-100150714D02*
X117504342Y-100103095D01*
X117504342Y-100103095D02*
X117313866Y-100103095D01*
X117313866Y-100103095D02*
X117218628Y-100150714D01*
X117218628Y-100150714D02*
X117171009Y-100198333D01*
X117171009Y-100198333D02*
X117123390Y-100293571D01*
X158679819Y-87842857D02*
X158203628Y-88176190D01*
X158679819Y-88414285D02*
X157679819Y-88414285D01*
X157679819Y-88414285D02*
X157679819Y-88033333D01*
X157679819Y-88033333D02*
X157727438Y-87938095D01*
X157727438Y-87938095D02*
X157775057Y-87890476D01*
X157775057Y-87890476D02*
X157870295Y-87842857D01*
X157870295Y-87842857D02*
X158013152Y-87842857D01*
X158013152Y-87842857D02*
X158108390Y-87890476D01*
X158108390Y-87890476D02*
X158156009Y-87938095D01*
X158156009Y-87938095D02*
X158203628Y-88033333D01*
X158203628Y-88033333D02*
X158203628Y-88414285D01*
X158679819Y-86890476D02*
X158679819Y-87461904D01*
X158679819Y-87176190D02*
X157679819Y-87176190D01*
X157679819Y-87176190D02*
X157822676Y-87271428D01*
X157822676Y-87271428D02*
X157917914Y-87366666D01*
X157917914Y-87366666D02*
X157965533Y-87461904D01*
X157679819Y-86271428D02*
X157679819Y-86176190D01*
X157679819Y-86176190D02*
X157727438Y-86080952D01*
X157727438Y-86080952D02*
X157775057Y-86033333D01*
X157775057Y-86033333D02*
X157870295Y-85985714D01*
X157870295Y-85985714D02*
X158060771Y-85938095D01*
X158060771Y-85938095D02*
X158298866Y-85938095D01*
X158298866Y-85938095D02*
X158489342Y-85985714D01*
X158489342Y-85985714D02*
X158584580Y-86033333D01*
X158584580Y-86033333D02*
X158632200Y-86080952D01*
X158632200Y-86080952D02*
X158679819Y-86176190D01*
X158679819Y-86176190D02*
X158679819Y-86271428D01*
X158679819Y-86271428D02*
X158632200Y-86366666D01*
X158632200Y-86366666D02*
X158584580Y-86414285D01*
X158584580Y-86414285D02*
X158489342Y-86461904D01*
X158489342Y-86461904D02*
X158298866Y-86509523D01*
X158298866Y-86509523D02*
X158060771Y-86509523D01*
X158060771Y-86509523D02*
X157870295Y-86461904D01*
X157870295Y-86461904D02*
X157775057Y-86414285D01*
X157775057Y-86414285D02*
X157727438Y-86366666D01*
X157727438Y-86366666D02*
X157679819Y-86271428D01*
X113434819Y-121482857D02*
X112958628Y-121816190D01*
X113434819Y-122054285D02*
X112434819Y-122054285D01*
X112434819Y-122054285D02*
X112434819Y-121673333D01*
X112434819Y-121673333D02*
X112482438Y-121578095D01*
X112482438Y-121578095D02*
X112530057Y-121530476D01*
X112530057Y-121530476D02*
X112625295Y-121482857D01*
X112625295Y-121482857D02*
X112768152Y-121482857D01*
X112768152Y-121482857D02*
X112863390Y-121530476D01*
X112863390Y-121530476D02*
X112911009Y-121578095D01*
X112911009Y-121578095D02*
X112958628Y-121673333D01*
X112958628Y-121673333D02*
X112958628Y-122054285D01*
X112530057Y-121101904D02*
X112482438Y-121054285D01*
X112482438Y-121054285D02*
X112434819Y-120959047D01*
X112434819Y-120959047D02*
X112434819Y-120720952D01*
X112434819Y-120720952D02*
X112482438Y-120625714D01*
X112482438Y-120625714D02*
X112530057Y-120578095D01*
X112530057Y-120578095D02*
X112625295Y-120530476D01*
X112625295Y-120530476D02*
X112720533Y-120530476D01*
X112720533Y-120530476D02*
X112863390Y-120578095D01*
X112863390Y-120578095D02*
X113434819Y-121149523D01*
X113434819Y-121149523D02*
X113434819Y-120530476D01*
X113434819Y-119578095D02*
X113434819Y-120149523D01*
X113434819Y-119863809D02*
X112434819Y-119863809D01*
X112434819Y-119863809D02*
X112577676Y-119959047D01*
X112577676Y-119959047D02*
X112672914Y-120054285D01*
X112672914Y-120054285D02*
X112720533Y-120149523D01*
X132233333Y-109259580D02*
X132185714Y-109307200D01*
X132185714Y-109307200D02*
X132042857Y-109354819D01*
X132042857Y-109354819D02*
X131947619Y-109354819D01*
X131947619Y-109354819D02*
X131804762Y-109307200D01*
X131804762Y-109307200D02*
X131709524Y-109211961D01*
X131709524Y-109211961D02*
X131661905Y-109116723D01*
X131661905Y-109116723D02*
X131614286Y-108926247D01*
X131614286Y-108926247D02*
X131614286Y-108783390D01*
X131614286Y-108783390D02*
X131661905Y-108592914D01*
X131661905Y-108592914D02*
X131709524Y-108497676D01*
X131709524Y-108497676D02*
X131804762Y-108402438D01*
X131804762Y-108402438D02*
X131947619Y-108354819D01*
X131947619Y-108354819D02*
X132042857Y-108354819D01*
X132042857Y-108354819D02*
X132185714Y-108402438D01*
X132185714Y-108402438D02*
X132233333Y-108450057D01*
X133090476Y-108688152D02*
X133090476Y-109354819D01*
X132852381Y-108307200D02*
X132614286Y-109021485D01*
X132614286Y-109021485D02*
X133233333Y-109021485D01*
X142634819Y-69158333D02*
X143349104Y-69158333D01*
X143349104Y-69158333D02*
X143491961Y-69205952D01*
X143491961Y-69205952D02*
X143587200Y-69301190D01*
X143587200Y-69301190D02*
X143634819Y-69444047D01*
X143634819Y-69444047D02*
X143634819Y-69539285D01*
X143634819Y-68158333D02*
X143634819Y-68729761D01*
X143634819Y-68444047D02*
X142634819Y-68444047D01*
X142634819Y-68444047D02*
X142777676Y-68539285D01*
X142777676Y-68539285D02*
X142872914Y-68634523D01*
X142872914Y-68634523D02*
X142920533Y-68729761D01*
X155484580Y-71467857D02*
X155532200Y-71515476D01*
X155532200Y-71515476D02*
X155579819Y-71658333D01*
X155579819Y-71658333D02*
X155579819Y-71753571D01*
X155579819Y-71753571D02*
X155532200Y-71896428D01*
X155532200Y-71896428D02*
X155436961Y-71991666D01*
X155436961Y-71991666D02*
X155341723Y-72039285D01*
X155341723Y-72039285D02*
X155151247Y-72086904D01*
X155151247Y-72086904D02*
X155008390Y-72086904D01*
X155008390Y-72086904D02*
X154817914Y-72039285D01*
X154817914Y-72039285D02*
X154722676Y-71991666D01*
X154722676Y-71991666D02*
X154627438Y-71896428D01*
X154627438Y-71896428D02*
X154579819Y-71753571D01*
X154579819Y-71753571D02*
X154579819Y-71658333D01*
X154579819Y-71658333D02*
X154627438Y-71515476D01*
X154627438Y-71515476D02*
X154675057Y-71467857D01*
X155579819Y-70515476D02*
X155579819Y-71086904D01*
X155579819Y-70801190D02*
X154579819Y-70801190D01*
X154579819Y-70801190D02*
X154722676Y-70896428D01*
X154722676Y-70896428D02*
X154817914Y-70991666D01*
X154817914Y-70991666D02*
X154865533Y-71086904D01*
X154579819Y-70182142D02*
X154579819Y-69563095D01*
X154579819Y-69563095D02*
X154960771Y-69896428D01*
X154960771Y-69896428D02*
X154960771Y-69753571D01*
X154960771Y-69753571D02*
X155008390Y-69658333D01*
X155008390Y-69658333D02*
X155056009Y-69610714D01*
X155056009Y-69610714D02*
X155151247Y-69563095D01*
X155151247Y-69563095D02*
X155389342Y-69563095D01*
X155389342Y-69563095D02*
X155484580Y-69610714D01*
X155484580Y-69610714D02*
X155532200Y-69658333D01*
X155532200Y-69658333D02*
X155579819Y-69753571D01*
X155579819Y-69753571D02*
X155579819Y-70039285D01*
X155579819Y-70039285D02*
X155532200Y-70134523D01*
X155532200Y-70134523D02*
X155484580Y-70182142D01*
X176112142Y-116674580D02*
X176064523Y-116722200D01*
X176064523Y-116722200D02*
X175921666Y-116769819D01*
X175921666Y-116769819D02*
X175826428Y-116769819D01*
X175826428Y-116769819D02*
X175683571Y-116722200D01*
X175683571Y-116722200D02*
X175588333Y-116626961D01*
X175588333Y-116626961D02*
X175540714Y-116531723D01*
X175540714Y-116531723D02*
X175493095Y-116341247D01*
X175493095Y-116341247D02*
X175493095Y-116198390D01*
X175493095Y-116198390D02*
X175540714Y-116007914D01*
X175540714Y-116007914D02*
X175588333Y-115912676D01*
X175588333Y-115912676D02*
X175683571Y-115817438D01*
X175683571Y-115817438D02*
X175826428Y-115769819D01*
X175826428Y-115769819D02*
X175921666Y-115769819D01*
X175921666Y-115769819D02*
X176064523Y-115817438D01*
X176064523Y-115817438D02*
X176112142Y-115865057D01*
X177064523Y-116769819D02*
X176493095Y-116769819D01*
X176778809Y-116769819D02*
X176778809Y-115769819D01*
X176778809Y-115769819D02*
X176683571Y-115912676D01*
X176683571Y-115912676D02*
X176588333Y-116007914D01*
X176588333Y-116007914D02*
X176493095Y-116055533D01*
X177445476Y-115865057D02*
X177493095Y-115817438D01*
X177493095Y-115817438D02*
X177588333Y-115769819D01*
X177588333Y-115769819D02*
X177826428Y-115769819D01*
X177826428Y-115769819D02*
X177921666Y-115817438D01*
X177921666Y-115817438D02*
X177969285Y-115865057D01*
X177969285Y-115865057D02*
X178016904Y-115960295D01*
X178016904Y-115960295D02*
X178016904Y-116055533D01*
X178016904Y-116055533D02*
X177969285Y-116198390D01*
X177969285Y-116198390D02*
X177397857Y-116769819D01*
X177397857Y-116769819D02*
X178016904Y-116769819D01*
X190474761Y-92809819D02*
X190141428Y-92333628D01*
X189903333Y-92809819D02*
X189903333Y-91809819D01*
X189903333Y-91809819D02*
X190284285Y-91809819D01*
X190284285Y-91809819D02*
X190379523Y-91857438D01*
X190379523Y-91857438D02*
X190427142Y-91905057D01*
X190427142Y-91905057D02*
X190474761Y-92000295D01*
X190474761Y-92000295D02*
X190474761Y-92143152D01*
X190474761Y-92143152D02*
X190427142Y-92238390D01*
X190427142Y-92238390D02*
X190379523Y-92286009D01*
X190379523Y-92286009D02*
X190284285Y-92333628D01*
X190284285Y-92333628D02*
X189903333Y-92333628D01*
X190760476Y-91809819D02*
X191093809Y-92809819D01*
X191093809Y-92809819D02*
X191427142Y-91809819D01*
X191665238Y-91809819D02*
X192284285Y-91809819D01*
X192284285Y-91809819D02*
X191950952Y-92190771D01*
X191950952Y-92190771D02*
X192093809Y-92190771D01*
X192093809Y-92190771D02*
X192189047Y-92238390D01*
X192189047Y-92238390D02*
X192236666Y-92286009D01*
X192236666Y-92286009D02*
X192284285Y-92381247D01*
X192284285Y-92381247D02*
X192284285Y-92619342D01*
X192284285Y-92619342D02*
X192236666Y-92714580D01*
X192236666Y-92714580D02*
X192189047Y-92762200D01*
X192189047Y-92762200D02*
X192093809Y-92809819D01*
X192093809Y-92809819D02*
X191808095Y-92809819D01*
X191808095Y-92809819D02*
X191712857Y-92762200D01*
X191712857Y-92762200D02*
X191665238Y-92714580D01*
X158454819Y-77241666D02*
X157978628Y-77574999D01*
X158454819Y-77813094D02*
X157454819Y-77813094D01*
X157454819Y-77813094D02*
X157454819Y-77432142D01*
X157454819Y-77432142D02*
X157502438Y-77336904D01*
X157502438Y-77336904D02*
X157550057Y-77289285D01*
X157550057Y-77289285D02*
X157645295Y-77241666D01*
X157645295Y-77241666D02*
X157788152Y-77241666D01*
X157788152Y-77241666D02*
X157883390Y-77289285D01*
X157883390Y-77289285D02*
X157931009Y-77336904D01*
X157931009Y-77336904D02*
X157978628Y-77432142D01*
X157978628Y-77432142D02*
X157978628Y-77813094D01*
X158454819Y-76765475D02*
X158454819Y-76574999D01*
X158454819Y-76574999D02*
X158407200Y-76479761D01*
X158407200Y-76479761D02*
X158359580Y-76432142D01*
X158359580Y-76432142D02*
X158216723Y-76336904D01*
X158216723Y-76336904D02*
X158026247Y-76289285D01*
X158026247Y-76289285D02*
X157645295Y-76289285D01*
X157645295Y-76289285D02*
X157550057Y-76336904D01*
X157550057Y-76336904D02*
X157502438Y-76384523D01*
X157502438Y-76384523D02*
X157454819Y-76479761D01*
X157454819Y-76479761D02*
X157454819Y-76670237D01*
X157454819Y-76670237D02*
X157502438Y-76765475D01*
X157502438Y-76765475D02*
X157550057Y-76813094D01*
X157550057Y-76813094D02*
X157645295Y-76860713D01*
X157645295Y-76860713D02*
X157883390Y-76860713D01*
X157883390Y-76860713D02*
X157978628Y-76813094D01*
X157978628Y-76813094D02*
X158026247Y-76765475D01*
X158026247Y-76765475D02*
X158073866Y-76670237D01*
X158073866Y-76670237D02*
X158073866Y-76479761D01*
X158073866Y-76479761D02*
X158026247Y-76384523D01*
X158026247Y-76384523D02*
X157978628Y-76336904D01*
X157978628Y-76336904D02*
X157883390Y-76289285D01*
X104470361Y-113209819D02*
X104137028Y-112733628D01*
X103898933Y-113209819D02*
X103898933Y-112209819D01*
X103898933Y-112209819D02*
X104279885Y-112209819D01*
X104279885Y-112209819D02*
X104375123Y-112257438D01*
X104375123Y-112257438D02*
X104422742Y-112305057D01*
X104422742Y-112305057D02*
X104470361Y-112400295D01*
X104470361Y-112400295D02*
X104470361Y-112543152D01*
X104470361Y-112543152D02*
X104422742Y-112638390D01*
X104422742Y-112638390D02*
X104375123Y-112686009D01*
X104375123Y-112686009D02*
X104279885Y-112733628D01*
X104279885Y-112733628D02*
X103898933Y-112733628D01*
X104756076Y-112209819D02*
X105089409Y-113209819D01*
X105089409Y-113209819D02*
X105422742Y-112209819D01*
X105708457Y-112305057D02*
X105756076Y-112257438D01*
X105756076Y-112257438D02*
X105851314Y-112209819D01*
X105851314Y-112209819D02*
X106089409Y-112209819D01*
X106089409Y-112209819D02*
X106184647Y-112257438D01*
X106184647Y-112257438D02*
X106232266Y-112305057D01*
X106232266Y-112305057D02*
X106279885Y-112400295D01*
X106279885Y-112400295D02*
X106279885Y-112495533D01*
X106279885Y-112495533D02*
X106232266Y-112638390D01*
X106232266Y-112638390D02*
X105660838Y-113209819D01*
X105660838Y-113209819D02*
X106279885Y-113209819D01*
X121708333Y-126559580D02*
X121660714Y-126607200D01*
X121660714Y-126607200D02*
X121517857Y-126654819D01*
X121517857Y-126654819D02*
X121422619Y-126654819D01*
X121422619Y-126654819D02*
X121279762Y-126607200D01*
X121279762Y-126607200D02*
X121184524Y-126511961D01*
X121184524Y-126511961D02*
X121136905Y-126416723D01*
X121136905Y-126416723D02*
X121089286Y-126226247D01*
X121089286Y-126226247D02*
X121089286Y-126083390D01*
X121089286Y-126083390D02*
X121136905Y-125892914D01*
X121136905Y-125892914D02*
X121184524Y-125797676D01*
X121184524Y-125797676D02*
X121279762Y-125702438D01*
X121279762Y-125702438D02*
X121422619Y-125654819D01*
X121422619Y-125654819D02*
X121517857Y-125654819D01*
X121517857Y-125654819D02*
X121660714Y-125702438D01*
X121660714Y-125702438D02*
X121708333Y-125750057D01*
X122184524Y-126654819D02*
X122375000Y-126654819D01*
X122375000Y-126654819D02*
X122470238Y-126607200D01*
X122470238Y-126607200D02*
X122517857Y-126559580D01*
X122517857Y-126559580D02*
X122613095Y-126416723D01*
X122613095Y-126416723D02*
X122660714Y-126226247D01*
X122660714Y-126226247D02*
X122660714Y-125845295D01*
X122660714Y-125845295D02*
X122613095Y-125750057D01*
X122613095Y-125750057D02*
X122565476Y-125702438D01*
X122565476Y-125702438D02*
X122470238Y-125654819D01*
X122470238Y-125654819D02*
X122279762Y-125654819D01*
X122279762Y-125654819D02*
X122184524Y-125702438D01*
X122184524Y-125702438D02*
X122136905Y-125750057D01*
X122136905Y-125750057D02*
X122089286Y-125845295D01*
X122089286Y-125845295D02*
X122089286Y-126083390D01*
X122089286Y-126083390D02*
X122136905Y-126178628D01*
X122136905Y-126178628D02*
X122184524Y-126226247D01*
X122184524Y-126226247D02*
X122279762Y-126273866D01*
X122279762Y-126273866D02*
X122470238Y-126273866D01*
X122470238Y-126273866D02*
X122565476Y-126226247D01*
X122565476Y-126226247D02*
X122613095Y-126178628D01*
X122613095Y-126178628D02*
X122660714Y-126083390D01*
X125382142Y-117999819D02*
X125048809Y-117523628D01*
X124810714Y-117999819D02*
X124810714Y-116999819D01*
X124810714Y-116999819D02*
X125191666Y-116999819D01*
X125191666Y-116999819D02*
X125286904Y-117047438D01*
X125286904Y-117047438D02*
X125334523Y-117095057D01*
X125334523Y-117095057D02*
X125382142Y-117190295D01*
X125382142Y-117190295D02*
X125382142Y-117333152D01*
X125382142Y-117333152D02*
X125334523Y-117428390D01*
X125334523Y-117428390D02*
X125286904Y-117476009D01*
X125286904Y-117476009D02*
X125191666Y-117523628D01*
X125191666Y-117523628D02*
X124810714Y-117523628D01*
X126334523Y-117999819D02*
X125763095Y-117999819D01*
X126048809Y-117999819D02*
X126048809Y-116999819D01*
X126048809Y-116999819D02*
X125953571Y-117142676D01*
X125953571Y-117142676D02*
X125858333Y-117237914D01*
X125858333Y-117237914D02*
X125763095Y-117285533D01*
X127191666Y-117333152D02*
X127191666Y-117999819D01*
X126953571Y-116952200D02*
X126715476Y-117666485D01*
X126715476Y-117666485D02*
X127334523Y-117666485D01*
X162207142Y-111804819D02*
X161873809Y-111328628D01*
X161635714Y-111804819D02*
X161635714Y-110804819D01*
X161635714Y-110804819D02*
X162016666Y-110804819D01*
X162016666Y-110804819D02*
X162111904Y-110852438D01*
X162111904Y-110852438D02*
X162159523Y-110900057D01*
X162159523Y-110900057D02*
X162207142Y-110995295D01*
X162207142Y-110995295D02*
X162207142Y-111138152D01*
X162207142Y-111138152D02*
X162159523Y-111233390D01*
X162159523Y-111233390D02*
X162111904Y-111281009D01*
X162111904Y-111281009D02*
X162016666Y-111328628D01*
X162016666Y-111328628D02*
X161635714Y-111328628D01*
X163159523Y-111804819D02*
X162588095Y-111804819D01*
X162873809Y-111804819D02*
X162873809Y-110804819D01*
X162873809Y-110804819D02*
X162778571Y-110947676D01*
X162778571Y-110947676D02*
X162683333Y-111042914D01*
X162683333Y-111042914D02*
X162588095Y-111090533D01*
X164016666Y-110804819D02*
X163826190Y-110804819D01*
X163826190Y-110804819D02*
X163730952Y-110852438D01*
X163730952Y-110852438D02*
X163683333Y-110900057D01*
X163683333Y-110900057D02*
X163588095Y-111042914D01*
X163588095Y-111042914D02*
X163540476Y-111233390D01*
X163540476Y-111233390D02*
X163540476Y-111614342D01*
X163540476Y-111614342D02*
X163588095Y-111709580D01*
X163588095Y-111709580D02*
X163635714Y-111757200D01*
X163635714Y-111757200D02*
X163730952Y-111804819D01*
X163730952Y-111804819D02*
X163921428Y-111804819D01*
X163921428Y-111804819D02*
X164016666Y-111757200D01*
X164016666Y-111757200D02*
X164064285Y-111709580D01*
X164064285Y-111709580D02*
X164111904Y-111614342D01*
X164111904Y-111614342D02*
X164111904Y-111376247D01*
X164111904Y-111376247D02*
X164064285Y-111281009D01*
X164064285Y-111281009D02*
X164016666Y-111233390D01*
X164016666Y-111233390D02*
X163921428Y-111185771D01*
X163921428Y-111185771D02*
X163730952Y-111185771D01*
X163730952Y-111185771D02*
X163635714Y-111233390D01*
X163635714Y-111233390D02*
X163588095Y-111281009D01*
X163588095Y-111281009D02*
X163540476Y-111376247D01*
X170617142Y-131849819D02*
X170283809Y-131373628D01*
X170045714Y-131849819D02*
X170045714Y-130849819D01*
X170045714Y-130849819D02*
X170426666Y-130849819D01*
X170426666Y-130849819D02*
X170521904Y-130897438D01*
X170521904Y-130897438D02*
X170569523Y-130945057D01*
X170569523Y-130945057D02*
X170617142Y-131040295D01*
X170617142Y-131040295D02*
X170617142Y-131183152D01*
X170617142Y-131183152D02*
X170569523Y-131278390D01*
X170569523Y-131278390D02*
X170521904Y-131326009D01*
X170521904Y-131326009D02*
X170426666Y-131373628D01*
X170426666Y-131373628D02*
X170045714Y-131373628D01*
X170998095Y-130945057D02*
X171045714Y-130897438D01*
X171045714Y-130897438D02*
X171140952Y-130849819D01*
X171140952Y-130849819D02*
X171379047Y-130849819D01*
X171379047Y-130849819D02*
X171474285Y-130897438D01*
X171474285Y-130897438D02*
X171521904Y-130945057D01*
X171521904Y-130945057D02*
X171569523Y-131040295D01*
X171569523Y-131040295D02*
X171569523Y-131135533D01*
X171569523Y-131135533D02*
X171521904Y-131278390D01*
X171521904Y-131278390D02*
X170950476Y-131849819D01*
X170950476Y-131849819D02*
X171569523Y-131849819D01*
X171950476Y-130945057D02*
X171998095Y-130897438D01*
X171998095Y-130897438D02*
X172093333Y-130849819D01*
X172093333Y-130849819D02*
X172331428Y-130849819D01*
X172331428Y-130849819D02*
X172426666Y-130897438D01*
X172426666Y-130897438D02*
X172474285Y-130945057D01*
X172474285Y-130945057D02*
X172521904Y-131040295D01*
X172521904Y-131040295D02*
X172521904Y-131135533D01*
X172521904Y-131135533D02*
X172474285Y-131278390D01*
X172474285Y-131278390D02*
X171902857Y-131849819D01*
X171902857Y-131849819D02*
X172521904Y-131849819D01*
X161684819Y-96566666D02*
X161208628Y-96899999D01*
X161684819Y-97138094D02*
X160684819Y-97138094D01*
X160684819Y-97138094D02*
X160684819Y-96757142D01*
X160684819Y-96757142D02*
X160732438Y-96661904D01*
X160732438Y-96661904D02*
X160780057Y-96614285D01*
X160780057Y-96614285D02*
X160875295Y-96566666D01*
X160875295Y-96566666D02*
X161018152Y-96566666D01*
X161018152Y-96566666D02*
X161113390Y-96614285D01*
X161113390Y-96614285D02*
X161161009Y-96661904D01*
X161161009Y-96661904D02*
X161208628Y-96757142D01*
X161208628Y-96757142D02*
X161208628Y-97138094D01*
X161113390Y-95995237D02*
X161065771Y-96090475D01*
X161065771Y-96090475D02*
X161018152Y-96138094D01*
X161018152Y-96138094D02*
X160922914Y-96185713D01*
X160922914Y-96185713D02*
X160875295Y-96185713D01*
X160875295Y-96185713D02*
X160780057Y-96138094D01*
X160780057Y-96138094D02*
X160732438Y-96090475D01*
X160732438Y-96090475D02*
X160684819Y-95995237D01*
X160684819Y-95995237D02*
X160684819Y-95804761D01*
X160684819Y-95804761D02*
X160732438Y-95709523D01*
X160732438Y-95709523D02*
X160780057Y-95661904D01*
X160780057Y-95661904D02*
X160875295Y-95614285D01*
X160875295Y-95614285D02*
X160922914Y-95614285D01*
X160922914Y-95614285D02*
X161018152Y-95661904D01*
X161018152Y-95661904D02*
X161065771Y-95709523D01*
X161065771Y-95709523D02*
X161113390Y-95804761D01*
X161113390Y-95804761D02*
X161113390Y-95995237D01*
X161113390Y-95995237D02*
X161161009Y-96090475D01*
X161161009Y-96090475D02*
X161208628Y-96138094D01*
X161208628Y-96138094D02*
X161303866Y-96185713D01*
X161303866Y-96185713D02*
X161494342Y-96185713D01*
X161494342Y-96185713D02*
X161589580Y-96138094D01*
X161589580Y-96138094D02*
X161637200Y-96090475D01*
X161637200Y-96090475D02*
X161684819Y-95995237D01*
X161684819Y-95995237D02*
X161684819Y-95804761D01*
X161684819Y-95804761D02*
X161637200Y-95709523D01*
X161637200Y-95709523D02*
X161589580Y-95661904D01*
X161589580Y-95661904D02*
X161494342Y-95614285D01*
X161494342Y-95614285D02*
X161303866Y-95614285D01*
X161303866Y-95614285D02*
X161208628Y-95661904D01*
X161208628Y-95661904D02*
X161161009Y-95709523D01*
X161161009Y-95709523D02*
X161113390Y-95804761D01*
D11*
%TO.C,U2*%
X138903027Y-123835000D02*
X138903027Y-108595000D01*
X155755000Y-107325000D02*
X140173025Y-107325000D01*
X155775000Y-125105000D02*
X140173025Y-125105000D01*
X157025000Y-123835000D02*
X157025000Y-108595000D01*
X138903026Y-108595000D02*
G75*
G02*
X140173026Y-107325000I1269999J1D01*
G01*
X140173026Y-125105000D02*
G75*
G02*
X138903026Y-123835000I-1J1269999D01*
G01*
X155755000Y-107325000D02*
G75*
G02*
X157025000Y-108595000I0J-1270000D01*
G01*
X157044064Y-123834301D02*
G75*
G02*
X155774064Y-125104294I-1269994J1D01*
G01*
%TO.C,U1*%
X138827027Y-97555000D02*
X138827027Y-82315000D01*
X155679000Y-81045000D02*
X140097025Y-81045000D01*
X155699000Y-98825000D02*
X140097025Y-98825000D01*
X156949000Y-97555000D02*
X156949000Y-82315000D01*
X138827026Y-82315000D02*
G75*
G02*
X140097026Y-81045000I1269999J1D01*
G01*
X140097026Y-98825000D02*
G75*
G02*
X138827026Y-97555000I-1J1269999D01*
G01*
X155679000Y-81045000D02*
G75*
G02*
X156949000Y-82315000I0J-1270000D01*
G01*
X156968064Y-97554301D02*
G75*
G02*
X155698064Y-98824294I-1269994J1D01*
G01*
D12*
%TO.C,R1*%
X124855000Y-72455000D02*
X124855000Y-72785000D01*
X124855000Y-75195000D02*
X124855000Y-74865000D01*
X131395000Y-72455000D02*
X124855000Y-72455000D01*
X131395000Y-72785000D02*
X131395000Y-72455000D01*
X131395000Y-74865000D02*
X131395000Y-75195000D01*
X131395000Y-75195000D02*
X124855000Y-75195000D01*
%TO.C,R23*%
X140930000Y-129230000D02*
X140930000Y-135770000D01*
X140930000Y-135770000D02*
X141260000Y-135770000D01*
X141260000Y-129230000D02*
X140930000Y-129230000D01*
X143340000Y-129230000D02*
X143670000Y-129230000D01*
X143670000Y-129230000D02*
X143670000Y-135770000D01*
X143670000Y-135770000D02*
X143340000Y-135770000D01*
%TO.C,R15*%
X170305000Y-111705000D02*
X176845000Y-111705000D01*
X170305000Y-112035000D02*
X170305000Y-111705000D01*
X170305000Y-114115000D02*
X170305000Y-114445000D01*
X170305000Y-114445000D02*
X176845000Y-114445000D01*
X176845000Y-111705000D02*
X176845000Y-112035000D01*
X176845000Y-114445000D02*
X176845000Y-114115000D01*
%TO.C,RV6*%
X184250000Y-116345000D02*
X184250000Y-134485000D01*
X184250000Y-116345000D02*
X194990000Y-116345000D01*
X184250000Y-134485000D02*
X194990000Y-134485000D01*
X194990000Y-116345000D02*
X194990000Y-134485000D01*
X194990000Y-121795000D02*
X199990000Y-121795000D01*
X194990000Y-129035000D02*
X199990000Y-129035000D01*
X199990000Y-121795000D02*
X199990000Y-129035000D01*
X199990000Y-122295000D02*
X209990000Y-122295000D01*
X199990000Y-128535000D02*
X209990000Y-128535000D01*
X209990000Y-122295000D02*
X209990000Y-128535000D01*
%TO.C,R2*%
X124705000Y-78280000D02*
X124705000Y-78610000D01*
X124705000Y-81020000D02*
X124705000Y-80690000D01*
X131245000Y-78280000D02*
X124705000Y-78280000D01*
X131245000Y-78610000D02*
X131245000Y-78280000D01*
X131245000Y-80690000D02*
X131245000Y-81020000D01*
X131245000Y-81020000D02*
X124705000Y-81020000D01*
%TO.C,C3*%
X128495000Y-104875000D02*
G75*
G02*
X121955000Y-104875000I-3270000J0D01*
G01*
X121955000Y-104875000D02*
G75*
G02*
X128495000Y-104875000I3270000J0D01*
G01*
%TO.C,R19*%
X179532844Y-100475000D02*
X179862844Y-100475000D01*
X179532844Y-107015000D02*
X179532844Y-100475000D01*
X179862844Y-107015000D02*
X179532844Y-107015000D01*
X181942844Y-107015000D02*
X182272844Y-107015000D01*
X182272844Y-100475000D02*
X181942844Y-100475000D01*
X182272844Y-107015000D02*
X182272844Y-100475000D01*
%TO.C,C8*%
X177245000Y-78975000D02*
G75*
G02*
X170705000Y-78975000I-3270000J0D01*
G01*
X170705000Y-78975000D02*
G75*
G02*
X177245000Y-78975000I3270000J0D01*
G01*
%TO.C,J3*%
X152095000Y-132055000D02*
X152095000Y-129405000D01*
X154855000Y-129405000D02*
X152095000Y-129405000D01*
X154855000Y-132055000D02*
X152095000Y-132055000D01*
X154855000Y-132055000D02*
X154855000Y-129405000D01*
X154855000Y-133325000D02*
X154855000Y-134705000D01*
X154855000Y-134705000D02*
X153475000Y-134705000D01*
%TO.C,RV5*%
X86161645Y-128561546D02*
X86161645Y-122321546D01*
X96161645Y-122321546D02*
X86161645Y-122321546D01*
X96161645Y-128561546D02*
X86161645Y-128561546D01*
X96161645Y-129061546D02*
X96161645Y-121821546D01*
X101161645Y-121821546D02*
X96161645Y-121821546D01*
X101161645Y-129061546D02*
X96161645Y-129061546D01*
X101161645Y-134511546D02*
X101161645Y-116371546D01*
X111901645Y-116371546D02*
X101161645Y-116371546D01*
X111901645Y-134511546D02*
X101161645Y-134511546D01*
X111901645Y-134511546D02*
X111901645Y-116371546D01*
%TO.C,C11*%
X172445000Y-120715000D02*
G75*
G02*
X165905000Y-120715000I-3270000J0D01*
G01*
X165905000Y-120715000D02*
G75*
G02*
X172445000Y-120715000I3270000J0D01*
G01*
%TO.C,R11*%
X160655000Y-80880000D02*
X160655000Y-81210000D01*
X160655000Y-83620000D02*
X160655000Y-83290000D01*
X167195000Y-80880000D02*
X160655000Y-80880000D01*
X167195000Y-81210000D02*
X167195000Y-80880000D01*
X167195000Y-83290000D02*
X167195000Y-83620000D01*
X167195000Y-83620000D02*
X160655000Y-83620000D01*
%TO.C,J2*%
X146695000Y-76205000D02*
X146695000Y-73555000D01*
X149455000Y-73555000D02*
X146695000Y-73555000D01*
X149455000Y-76205000D02*
X146695000Y-76205000D01*
X149455000Y-76205000D02*
X149455000Y-73555000D01*
X149455000Y-77475000D02*
X149455000Y-78855000D01*
X149455000Y-78855000D02*
X148075000Y-78855000D01*
%TO.C,R6*%
X152245000Y-101830000D02*
X158785000Y-101830000D01*
X152245000Y-102160000D02*
X152245000Y-101830000D01*
X152245000Y-104240000D02*
X152245000Y-104570000D01*
X152245000Y-104570000D02*
X158785000Y-104570000D01*
X158785000Y-101830000D02*
X158785000Y-102160000D01*
X158785000Y-104570000D02*
X158785000Y-104240000D01*
%TO.C,C5*%
X175770000Y-94600000D02*
G75*
G02*
X169230000Y-94600000I-3270000J0D01*
G01*
X169230000Y-94600000D02*
G75*
G02*
X175770000Y-94600000I3270000J0D01*
G01*
%TO.C,C7*%
X177295000Y-86175000D02*
G75*
G02*
X170755000Y-86175000I-3270000J0D01*
G01*
X170755000Y-86175000D02*
G75*
G02*
X177295000Y-86175000I3270000J0D01*
G01*
%TO.C,C10*%
X133145000Y-121775000D02*
G75*
G02*
X126605000Y-121775000I-3270000J0D01*
G01*
X126605000Y-121775000D02*
G75*
G02*
X133145000Y-121775000I3270000J0D01*
G01*
%TO.C,R12*%
X132700000Y-109690000D02*
X132700000Y-116230000D01*
X132700000Y-116230000D02*
X133030000Y-116230000D01*
X133030000Y-109690000D02*
X132700000Y-109690000D01*
X135110000Y-109690000D02*
X135440000Y-109690000D01*
X135440000Y-109690000D02*
X135440000Y-116230000D01*
X135440000Y-116230000D02*
X135110000Y-116230000D01*
%TO.C,R4*%
X125330000Y-97055000D02*
X131870000Y-97055000D01*
X125330000Y-97385000D02*
X125330000Y-97055000D01*
X125330000Y-99465000D02*
X125330000Y-99795000D01*
X125330000Y-99795000D02*
X131870000Y-99795000D01*
X131870000Y-97055000D02*
X131870000Y-97385000D01*
X131870000Y-99795000D02*
X131870000Y-99465000D01*
%TO.C,RV4*%
X184250000Y-70785000D02*
X184250000Y-88925000D01*
X184250000Y-70785000D02*
X194990000Y-70785000D01*
X184250000Y-88925000D02*
X194990000Y-88925000D01*
X194990000Y-70785000D02*
X194990000Y-88925000D01*
X194990000Y-76235000D02*
X199990000Y-76235000D01*
X194990000Y-83475000D02*
X199990000Y-83475000D01*
X199990000Y-76235000D02*
X199990000Y-83475000D01*
X199990000Y-76735000D02*
X209990000Y-76735000D01*
X199990000Y-82975000D02*
X209990000Y-82975000D01*
X209990000Y-76735000D02*
X209990000Y-82975000D01*
%TO.C,R7*%
X171130000Y-100830000D02*
X171130000Y-107370000D01*
X171130000Y-107370000D02*
X171460000Y-107370000D01*
X171460000Y-100830000D02*
X171130000Y-100830000D01*
X173540000Y-100830000D02*
X173870000Y-100830000D01*
X173870000Y-100830000D02*
X173870000Y-107370000D01*
X173870000Y-107370000D02*
X173540000Y-107370000D01*
%TO.C,C14*%
X140570000Y-70125000D02*
G75*
G02*
X134030000Y-70125000I-3270000J0D01*
G01*
X134030000Y-70125000D02*
G75*
G02*
X140570000Y-70125000I3270000J0D01*
G01*
%TO.C,R5*%
X125095000Y-91780000D02*
X125095000Y-92110000D01*
X125095000Y-94520000D02*
X125095000Y-94190000D01*
X131635000Y-91780000D02*
X125095000Y-91780000D01*
X131635000Y-92110000D02*
X131635000Y-91780000D01*
X131635000Y-94190000D02*
X131635000Y-94520000D01*
X131635000Y-94520000D02*
X125095000Y-94520000D01*
%TO.C,C6*%
X167470000Y-105625000D02*
G75*
G02*
X160930000Y-105625000I-3270000J0D01*
G01*
X160930000Y-105625000D02*
G75*
G02*
X167470000Y-105625000I3270000J0D01*
G01*
%TO.C,C2*%
X135020000Y-86175000D02*
G75*
G02*
X128480000Y-86175000I-3270000J0D01*
G01*
X128480000Y-86175000D02*
G75*
G02*
X135020000Y-86175000I3270000J0D01*
G01*
%TO.C,C1*%
X127020000Y-86200000D02*
G75*
G02*
X120480000Y-86200000I-3270000J0D01*
G01*
X120480000Y-86200000D02*
G75*
G02*
X127020000Y-86200000I3270000J0D01*
G01*
%TO.C,R17*%
X113526546Y-75102269D02*
X113526546Y-81642269D01*
X113526546Y-81642269D02*
X113856546Y-81642269D01*
X113856546Y-75102269D02*
X113526546Y-75102269D01*
X115936546Y-75102269D02*
X116266546Y-75102269D01*
X116266546Y-75102269D02*
X116266546Y-81642269D01*
X116266546Y-81642269D02*
X115936546Y-81642269D01*
%TO.C,R3*%
X138870000Y-101905000D02*
X138870000Y-102235000D01*
X138870000Y-104645000D02*
X138870000Y-104315000D01*
X145410000Y-101905000D02*
X138870000Y-101905000D01*
X145410000Y-102235000D02*
X145410000Y-101905000D01*
X145410000Y-104315000D02*
X145410000Y-104645000D01*
X145410000Y-104645000D02*
X138870000Y-104645000D01*
%TO.C,R20*%
X179540000Y-77775000D02*
X179870000Y-77775000D01*
X179540000Y-84315000D02*
X179540000Y-77775000D01*
X179870000Y-84315000D02*
X179540000Y-84315000D01*
X181950000Y-84315000D02*
X182280000Y-84315000D01*
X182280000Y-77775000D02*
X181950000Y-77775000D01*
X182280000Y-84315000D02*
X182280000Y-77775000D01*
%TO.C,R13*%
X123320000Y-127780000D02*
X129860000Y-127780000D01*
X123320000Y-128110000D02*
X123320000Y-127780000D01*
X123320000Y-130190000D02*
X123320000Y-130520000D01*
X123320000Y-130520000D02*
X129860000Y-130520000D01*
X129860000Y-127780000D02*
X129860000Y-128110000D01*
X129860000Y-130520000D02*
X129860000Y-130190000D01*
%TO.C,RV1*%
X86145600Y-82691800D02*
X86145600Y-76451800D01*
X96145600Y-76451800D02*
X86145600Y-76451800D01*
X96145600Y-82691800D02*
X86145600Y-82691800D01*
X96145600Y-83191800D02*
X96145600Y-75951800D01*
X101145600Y-75951800D02*
X96145600Y-75951800D01*
X101145600Y-83191800D02*
X96145600Y-83191800D01*
X101145600Y-88641800D02*
X101145600Y-70501800D01*
X111885600Y-70501800D02*
X101145600Y-70501800D01*
X111885600Y-88641800D02*
X101145600Y-88641800D01*
X111885600Y-88641800D02*
X111885600Y-70501800D01*
%TO.C,R18*%
X113500000Y-98095000D02*
X113500000Y-104635000D01*
X113500000Y-104635000D02*
X113830000Y-104635000D01*
X113830000Y-98095000D02*
X113500000Y-98095000D01*
X115910000Y-98095000D02*
X116240000Y-98095000D01*
X116240000Y-98095000D02*
X116240000Y-104635000D01*
X116240000Y-104635000D02*
X115910000Y-104635000D01*
%TO.C,R10*%
X160605000Y-85955000D02*
X160605000Y-86285000D01*
X160605000Y-88695000D02*
X160605000Y-88365000D01*
X167145000Y-85955000D02*
X160605000Y-85955000D01*
X167145000Y-86285000D02*
X167145000Y-85955000D01*
X167145000Y-88365000D02*
X167145000Y-88695000D01*
X167145000Y-88695000D02*
X160605000Y-88695000D01*
%TO.C,R21*%
X113980000Y-117570000D02*
X114310000Y-117570000D01*
X113980000Y-124110000D02*
X113980000Y-117570000D01*
X114310000Y-124110000D02*
X113980000Y-124110000D01*
X116390000Y-124110000D02*
X116720000Y-124110000D01*
X116720000Y-117570000D02*
X116390000Y-117570000D01*
X116720000Y-124110000D02*
X116720000Y-117570000D01*
%TO.C,C4*%
X136070000Y-104575000D02*
G75*
G02*
X129530000Y-104575000I-3270000J0D01*
G01*
X129530000Y-104575000D02*
G75*
G02*
X136070000Y-104575000I3270000J0D01*
G01*
%TO.C,J1*%
X144180000Y-70205000D02*
X144180000Y-68825000D01*
X145560000Y-70205000D02*
X144180000Y-70205000D01*
X146830000Y-67445000D02*
X152020000Y-67445000D01*
X146830000Y-70205000D02*
X146830000Y-67445000D01*
X146830000Y-70205000D02*
X152020000Y-70205000D01*
X152020000Y-70205000D02*
X152020000Y-67445000D01*
%TO.C,C13*%
X162845000Y-70650000D02*
G75*
G02*
X156305000Y-70650000I-3270000J0D01*
G01*
X156305000Y-70650000D02*
G75*
G02*
X162845000Y-70650000I3270000J0D01*
G01*
%TO.C,C12*%
X180025000Y-120715000D02*
G75*
G02*
X173485000Y-120715000I-3270000J0D01*
G01*
X173485000Y-120715000D02*
G75*
G02*
X180025000Y-120715000I3270000J0D01*
G01*
%TO.C,RV3*%
X184250000Y-93485000D02*
X184250000Y-111625000D01*
X184250000Y-93485000D02*
X194990000Y-93485000D01*
X184250000Y-111625000D02*
X194990000Y-111625000D01*
X194990000Y-93485000D02*
X194990000Y-111625000D01*
X194990000Y-98935000D02*
X199990000Y-98935000D01*
X194990000Y-106175000D02*
X199990000Y-106175000D01*
X199990000Y-98935000D02*
X199990000Y-106175000D01*
X199990000Y-99435000D02*
X209990000Y-99435000D01*
X199990000Y-105675000D02*
X209990000Y-105675000D01*
X209990000Y-99435000D02*
X209990000Y-105675000D01*
%TO.C,R9*%
X160580000Y-75830000D02*
X167120000Y-75830000D01*
X160580000Y-76160000D02*
X160580000Y-75830000D01*
X160580000Y-78240000D02*
X160580000Y-78570000D01*
X160580000Y-78570000D02*
X167120000Y-78570000D01*
X167120000Y-75830000D02*
X167120000Y-76160000D01*
X167120000Y-78570000D02*
X167120000Y-78240000D01*
%TO.C,RV2*%
X86145600Y-105675000D02*
X86145600Y-99435000D01*
X96145600Y-99435000D02*
X86145600Y-99435000D01*
X96145600Y-105675000D02*
X86145600Y-105675000D01*
X96145600Y-106175000D02*
X96145600Y-98935000D01*
X101145600Y-98935000D02*
X96145600Y-98935000D01*
X101145600Y-106175000D02*
X96145600Y-106175000D01*
X101145600Y-111625000D02*
X101145600Y-93485000D01*
X111885600Y-93485000D02*
X101145600Y-93485000D01*
X111885600Y-111625000D02*
X101145600Y-111625000D01*
X111885600Y-111625000D02*
X111885600Y-93485000D01*
%TO.C,C9*%
X125145000Y-121800000D02*
G75*
G02*
X118605000Y-121800000I-3270000J0D01*
G01*
X118605000Y-121800000D02*
G75*
G02*
X125145000Y-121800000I3270000J0D01*
G01*
%TO.C,R14*%
X122755000Y-113805000D02*
X122755000Y-114135000D01*
X122755000Y-116545000D02*
X122755000Y-116215000D01*
X129295000Y-113805000D02*
X122755000Y-113805000D01*
X129295000Y-114135000D02*
X129295000Y-113805000D01*
X129295000Y-116215000D02*
X129295000Y-116545000D01*
X129295000Y-116545000D02*
X122755000Y-116545000D01*
%TO.C,R16*%
X161430000Y-114470000D02*
X161760000Y-114470000D01*
X161430000Y-121010000D02*
X161430000Y-114470000D01*
X161760000Y-121010000D02*
X161430000Y-121010000D01*
X163840000Y-121010000D02*
X164170000Y-121010000D01*
X164170000Y-114470000D02*
X163840000Y-114470000D01*
X164170000Y-121010000D02*
X164170000Y-114470000D01*
%TO.C,R22*%
X167990000Y-127655000D02*
X167990000Y-127985000D01*
X167990000Y-130395000D02*
X167990000Y-130065000D01*
X174530000Y-127655000D02*
X167990000Y-127655000D01*
X174530000Y-127985000D02*
X174530000Y-127655000D01*
X174530000Y-130065000D02*
X174530000Y-130395000D01*
X174530000Y-130395000D02*
X167990000Y-130395000D01*
%TO.C,R8*%
X162230000Y-93130000D02*
X162560000Y-93130000D01*
X162230000Y-99670000D02*
X162230000Y-93130000D01*
X162560000Y-99670000D02*
X162230000Y-99670000D01*
X164640000Y-99670000D02*
X164970000Y-99670000D01*
X164970000Y-93130000D02*
X164640000Y-93130000D01*
X164970000Y-99670000D02*
X164970000Y-93130000D01*
%TD*%
M02*
