M48
; DRILL file {KiCad 9.0.3} date 2025-11-25T14:27:02-0800
; FORMAT={-:-/ absolute / metric / decimal}
; #@! TF.CreationDate,2025-11-25T14:27:02-08:00
; #@! TF.GenerationSoftware,Kicad,Pcbnew,9.0.3
; #@! TF.FileFunction,Plated,1,4,PTH
FMAT,2
METRIC
; #@! TA.AperFunction,Plated,PTH,ViaDrill
T1C0.300
; #@! TA.AperFunction,Plated,PTH,ComponentDrill
T2C1.000
%
G90
G05
T1
X45.45Y-54.09
X46.552Y-74.39
X46.76Y-65.71
X56.819Y-68.764
X57.21Y-65.4
X60.332Y-74.32
X61.885Y-50.928
X64.472Y-63.652
X65.7Y-60.35
X70.61Y-57.393
X71.584Y-64.922
X72.101Y-71.284
X74.422Y-74.32
X76.579Y-61.623
X76.83Y-60.24
X76.867Y-57.353
X79.92Y-46.54
X80.252Y-65.434
X81.471Y-61.532
X81.88Y-57.668
X82.642Y-58.938
X83.301Y-65.434
X83.361Y-67.042
X83.532Y-43.719
X86.198Y-59.08
X86.215Y-60.909
X86.871Y-48.638
X88.382Y-74.42
X90.761Y-55.442
X92.045Y-39.295
X92.057Y-48.642
X94.748Y-54.638
X95.816Y-42.546
X96.801Y-71.284
X97.051Y-49.455
X97.552Y-55.445
X100.815Y-45.335
X101.516Y-47.734
X102.347Y-74.395
X103.16Y-57.7
X103.161Y-66.584
X104.55Y-46.612
X105.519Y-65.532
X107.144Y-66.161
X107.144Y-78.14
X107.398Y-62.89
X107.451Y-60.239
X107.452Y-59.08
X108.109Y-66.17
X108.31Y-46.54
X108.804Y-61.986
X111.929Y-55.016
X112.833Y-56.359
X112.868Y-60.462
X114.361Y-69.384
X117.293Y-64.806
X117.293Y-74.279
X118.097Y-65.684
X118.628Y-55.172
X121.795Y-44.065
X122.651Y-71.284
X123.908Y-60.39
X123.98Y-43.57
X125.787Y-63.621
T2
X48.296Y-79.622
X50.796Y-79.622
X53.296Y-79.622
X62.253Y-79.622
X64.753Y-79.622
X67.253Y-79.622
X76.156Y-79.622
X78.656Y-79.622
X81.156Y-79.622
X90.38Y-79.622
X92.88Y-79.622
X95.38Y-79.622
X104.644Y-79.622
X107.144Y-79.622
X109.644Y-79.622
X118.868Y-79.622
X121.368Y-79.622
X123.868Y-79.622
M30
