%TF.GenerationSoftware,KiCad,Pcbnew,9.0.3*%
%TF.CreationDate,2025-11-25T14:26:53-08:00*%
%TF.ProjectId,PCB_ProyectoFinal_Ecualizador,5043425f-5072-46f7-9965-63746f46696e,1.0*%
%TF.SameCoordinates,Original*%
%TF.FileFunction,Soldermask,Bot*%
%TF.FilePolarity,Negative*%
%FSLAX46Y46*%
G04 Gerber Fmt 4.6, Leading zero omitted, Abs format (unit mm)*
G04 Created by KiCad (PCBNEW 9.0.3) date 2025-11-25 14:26:53*
%MOMM*%
%LPD*%
G01*
G04 APERTURE LIST*
G04 Aperture macros list*
%AMRoundRect*
0 Rectangle with rounded corners*
0 $1 Rounding radius*
0 $2 $3 $4 $5 $6 $7 $8 $9 X,Y pos of 4 corners*
0 Add a 4 corners polygon primitive as box body*
4,1,4,$2,$3,$4,$5,$6,$7,$8,$9,$2,$3,0*
0 Add four circle primitives for the rounded corners*
1,1,$1+$1,$2,$3*
1,1,$1+$1,$4,$5*
1,1,$1+$1,$6,$7*
1,1,$1+$1,$8,$9*
0 Add four rect primitives between the rounded corners*
20,1,$1+$1,$2,$3,$4,$5,0*
20,1,$1+$1,$4,$5,$6,$7,0*
20,1,$1+$1,$6,$7,$8,$9,0*
20,1,$1+$1,$8,$9,$2,$3,0*%
G04 Aperture macros list end*
%ADD10C,0.100000*%
%ADD11C,0.150000*%
%ADD12C,0.300000*%
%ADD13C,0.400000*%
%ADD14C,1.800000*%
%ADD15C,1.600000*%
%ADD16C,1.700000*%
%ADD17RoundRect,0.102000X-0.754000X-0.754000X0.754000X-0.754000X0.754000X0.754000X-0.754000X0.754000X0*%
%ADD18C,1.712000*%
%ADD19C,2.200000*%
G04 APERTURE END LIST*
D10*
D11*
X177002200Y-166007200D02*
X285002200Y-166007200D01*
X285002200Y-198007200D01*
X177002200Y-198007200D01*
X177002200Y-166007200D01*
D10*
D11*
X10000000Y-10000000D02*
X287002200Y-10000000D01*
X287002200Y-200007200D01*
X10000000Y-200007200D01*
X10000000Y-10000000D01*
D10*
D11*
X12000000Y-12000000D02*
X285002200Y-12000000D01*
X285002200Y-198007200D01*
X12000000Y-198007200D01*
X12000000Y-12000000D01*
D10*
D11*
X60000000Y-12000000D02*
X60000000Y-10000000D01*
D10*
D11*
X110000000Y-12000000D02*
X110000000Y-10000000D01*
D10*
D11*
X160000000Y-12000000D02*
X160000000Y-10000000D01*
D10*
D11*
X210000000Y-12000000D02*
X210000000Y-10000000D01*
D10*
D11*
X260000000Y-12000000D02*
X260000000Y-10000000D01*
D10*
D11*
X36089160Y-11593604D02*
X35346303Y-11593604D01*
X35717731Y-11593604D02*
X35717731Y-10293604D01*
X35717731Y-10293604D02*
X35593922Y-10479319D01*
X35593922Y-10479319D02*
X35470112Y-10603128D01*
X35470112Y-10603128D02*
X35346303Y-10665033D01*
D10*
D11*
X85346303Y-10417414D02*
X85408207Y-10355509D01*
X85408207Y-10355509D02*
X85532017Y-10293604D01*
X85532017Y-10293604D02*
X85841541Y-10293604D01*
X85841541Y-10293604D02*
X85965350Y-10355509D01*
X85965350Y-10355509D02*
X86027255Y-10417414D01*
X86027255Y-10417414D02*
X86089160Y-10541223D01*
X86089160Y-10541223D02*
X86089160Y-10665033D01*
X86089160Y-10665033D02*
X86027255Y-10850747D01*
X86027255Y-10850747D02*
X85284398Y-11593604D01*
X85284398Y-11593604D02*
X86089160Y-11593604D01*
D10*
D11*
X135284398Y-10293604D02*
X136089160Y-10293604D01*
X136089160Y-10293604D02*
X135655826Y-10788842D01*
X135655826Y-10788842D02*
X135841541Y-10788842D01*
X135841541Y-10788842D02*
X135965350Y-10850747D01*
X135965350Y-10850747D02*
X136027255Y-10912652D01*
X136027255Y-10912652D02*
X136089160Y-11036461D01*
X136089160Y-11036461D02*
X136089160Y-11345985D01*
X136089160Y-11345985D02*
X136027255Y-11469795D01*
X136027255Y-11469795D02*
X135965350Y-11531700D01*
X135965350Y-11531700D02*
X135841541Y-11593604D01*
X135841541Y-11593604D02*
X135470112Y-11593604D01*
X135470112Y-11593604D02*
X135346303Y-11531700D01*
X135346303Y-11531700D02*
X135284398Y-11469795D01*
D10*
D11*
X185965350Y-10726938D02*
X185965350Y-11593604D01*
X185655826Y-10231700D02*
X185346303Y-11160271D01*
X185346303Y-11160271D02*
X186151064Y-11160271D01*
D10*
D11*
X236027255Y-10293604D02*
X235408207Y-10293604D01*
X235408207Y-10293604D02*
X235346303Y-10912652D01*
X235346303Y-10912652D02*
X235408207Y-10850747D01*
X235408207Y-10850747D02*
X235532017Y-10788842D01*
X235532017Y-10788842D02*
X235841541Y-10788842D01*
X235841541Y-10788842D02*
X235965350Y-10850747D01*
X235965350Y-10850747D02*
X236027255Y-10912652D01*
X236027255Y-10912652D02*
X236089160Y-11036461D01*
X236089160Y-11036461D02*
X236089160Y-11345985D01*
X236089160Y-11345985D02*
X236027255Y-11469795D01*
X236027255Y-11469795D02*
X235965350Y-11531700D01*
X235965350Y-11531700D02*
X235841541Y-11593604D01*
X235841541Y-11593604D02*
X235532017Y-11593604D01*
X235532017Y-11593604D02*
X235408207Y-11531700D01*
X235408207Y-11531700D02*
X235346303Y-11469795D01*
D10*
D11*
X285965350Y-10293604D02*
X285717731Y-10293604D01*
X285717731Y-10293604D02*
X285593922Y-10355509D01*
X285593922Y-10355509D02*
X285532017Y-10417414D01*
X285532017Y-10417414D02*
X285408207Y-10603128D01*
X285408207Y-10603128D02*
X285346303Y-10850747D01*
X285346303Y-10850747D02*
X285346303Y-11345985D01*
X285346303Y-11345985D02*
X285408207Y-11469795D01*
X285408207Y-11469795D02*
X285470112Y-11531700D01*
X285470112Y-11531700D02*
X285593922Y-11593604D01*
X285593922Y-11593604D02*
X285841541Y-11593604D01*
X285841541Y-11593604D02*
X285965350Y-11531700D01*
X285965350Y-11531700D02*
X286027255Y-11469795D01*
X286027255Y-11469795D02*
X286089160Y-11345985D01*
X286089160Y-11345985D02*
X286089160Y-11036461D01*
X286089160Y-11036461D02*
X286027255Y-10912652D01*
X286027255Y-10912652D02*
X285965350Y-10850747D01*
X285965350Y-10850747D02*
X285841541Y-10788842D01*
X285841541Y-10788842D02*
X285593922Y-10788842D01*
X285593922Y-10788842D02*
X285470112Y-10850747D01*
X285470112Y-10850747D02*
X285408207Y-10912652D01*
X285408207Y-10912652D02*
X285346303Y-11036461D01*
D10*
D11*
X60000000Y-198007200D02*
X60000000Y-200007200D01*
D10*
D11*
X110000000Y-198007200D02*
X110000000Y-200007200D01*
D10*
D11*
X160000000Y-198007200D02*
X160000000Y-200007200D01*
D10*
D11*
X210000000Y-198007200D02*
X210000000Y-200007200D01*
D10*
D11*
X260000000Y-198007200D02*
X260000000Y-200007200D01*
D10*
D11*
X36089160Y-199600804D02*
X35346303Y-199600804D01*
X35717731Y-199600804D02*
X35717731Y-198300804D01*
X35717731Y-198300804D02*
X35593922Y-198486519D01*
X35593922Y-198486519D02*
X35470112Y-198610328D01*
X35470112Y-198610328D02*
X35346303Y-198672233D01*
D10*
D11*
X85346303Y-198424614D02*
X85408207Y-198362709D01*
X85408207Y-198362709D02*
X85532017Y-198300804D01*
X85532017Y-198300804D02*
X85841541Y-198300804D01*
X85841541Y-198300804D02*
X85965350Y-198362709D01*
X85965350Y-198362709D02*
X86027255Y-198424614D01*
X86027255Y-198424614D02*
X86089160Y-198548423D01*
X86089160Y-198548423D02*
X86089160Y-198672233D01*
X86089160Y-198672233D02*
X86027255Y-198857947D01*
X86027255Y-198857947D02*
X85284398Y-199600804D01*
X85284398Y-199600804D02*
X86089160Y-199600804D01*
D10*
D11*
X135284398Y-198300804D02*
X136089160Y-198300804D01*
X136089160Y-198300804D02*
X135655826Y-198796042D01*
X135655826Y-198796042D02*
X135841541Y-198796042D01*
X135841541Y-198796042D02*
X135965350Y-198857947D01*
X135965350Y-198857947D02*
X136027255Y-198919852D01*
X136027255Y-198919852D02*
X136089160Y-199043661D01*
X136089160Y-199043661D02*
X136089160Y-199353185D01*
X136089160Y-199353185D02*
X136027255Y-199476995D01*
X136027255Y-199476995D02*
X135965350Y-199538900D01*
X135965350Y-199538900D02*
X135841541Y-199600804D01*
X135841541Y-199600804D02*
X135470112Y-199600804D01*
X135470112Y-199600804D02*
X135346303Y-199538900D01*
X135346303Y-199538900D02*
X135284398Y-199476995D01*
D10*
D11*
X185965350Y-198734138D02*
X185965350Y-199600804D01*
X185655826Y-198238900D02*
X185346303Y-199167471D01*
X185346303Y-199167471D02*
X186151064Y-199167471D01*
D10*
D11*
X236027255Y-198300804D02*
X235408207Y-198300804D01*
X235408207Y-198300804D02*
X235346303Y-198919852D01*
X235346303Y-198919852D02*
X235408207Y-198857947D01*
X235408207Y-198857947D02*
X235532017Y-198796042D01*
X235532017Y-198796042D02*
X235841541Y-198796042D01*
X235841541Y-198796042D02*
X235965350Y-198857947D01*
X235965350Y-198857947D02*
X236027255Y-198919852D01*
X236027255Y-198919852D02*
X236089160Y-199043661D01*
X236089160Y-199043661D02*
X236089160Y-199353185D01*
X236089160Y-199353185D02*
X236027255Y-199476995D01*
X236027255Y-199476995D02*
X235965350Y-199538900D01*
X235965350Y-199538900D02*
X235841541Y-199600804D01*
X235841541Y-199600804D02*
X235532017Y-199600804D01*
X235532017Y-199600804D02*
X235408207Y-199538900D01*
X235408207Y-199538900D02*
X235346303Y-199476995D01*
D10*
D11*
X285965350Y-198300804D02*
X285717731Y-198300804D01*
X285717731Y-198300804D02*
X285593922Y-198362709D01*
X285593922Y-198362709D02*
X285532017Y-198424614D01*
X285532017Y-198424614D02*
X285408207Y-198610328D01*
X285408207Y-198610328D02*
X285346303Y-198857947D01*
X285346303Y-198857947D02*
X285346303Y-199353185D01*
X285346303Y-199353185D02*
X285408207Y-199476995D01*
X285408207Y-199476995D02*
X285470112Y-199538900D01*
X285470112Y-199538900D02*
X285593922Y-199600804D01*
X285593922Y-199600804D02*
X285841541Y-199600804D01*
X285841541Y-199600804D02*
X285965350Y-199538900D01*
X285965350Y-199538900D02*
X286027255Y-199476995D01*
X286027255Y-199476995D02*
X286089160Y-199353185D01*
X286089160Y-199353185D02*
X286089160Y-199043661D01*
X286089160Y-199043661D02*
X286027255Y-198919852D01*
X286027255Y-198919852D02*
X285965350Y-198857947D01*
X285965350Y-198857947D02*
X285841541Y-198796042D01*
X285841541Y-198796042D02*
X285593922Y-198796042D01*
X285593922Y-198796042D02*
X285470112Y-198857947D01*
X285470112Y-198857947D02*
X285408207Y-198919852D01*
X285408207Y-198919852D02*
X285346303Y-199043661D01*
D10*
D11*
X10000000Y-60000000D02*
X12000000Y-60000000D01*
D10*
D11*
X10000000Y-110000000D02*
X12000000Y-110000000D01*
D10*
D11*
X10000000Y-160000000D02*
X12000000Y-160000000D01*
D10*
D11*
X10690476Y-35222176D02*
X11309523Y-35222176D01*
X10566666Y-35593604D02*
X10999999Y-34293604D01*
X10999999Y-34293604D02*
X11433333Y-35593604D01*
D10*
D11*
X11092857Y-84912652D02*
X11278571Y-84974557D01*
X11278571Y-84974557D02*
X11340476Y-85036461D01*
X11340476Y-85036461D02*
X11402380Y-85160271D01*
X11402380Y-85160271D02*
X11402380Y-85345985D01*
X11402380Y-85345985D02*
X11340476Y-85469795D01*
X11340476Y-85469795D02*
X11278571Y-85531700D01*
X11278571Y-85531700D02*
X11154761Y-85593604D01*
X11154761Y-85593604D02*
X10659523Y-85593604D01*
X10659523Y-85593604D02*
X10659523Y-84293604D01*
X10659523Y-84293604D02*
X11092857Y-84293604D01*
X11092857Y-84293604D02*
X11216666Y-84355509D01*
X11216666Y-84355509D02*
X11278571Y-84417414D01*
X11278571Y-84417414D02*
X11340476Y-84541223D01*
X11340476Y-84541223D02*
X11340476Y-84665033D01*
X11340476Y-84665033D02*
X11278571Y-84788842D01*
X11278571Y-84788842D02*
X11216666Y-84850747D01*
X11216666Y-84850747D02*
X11092857Y-84912652D01*
X11092857Y-84912652D02*
X10659523Y-84912652D01*
D10*
D11*
X11402380Y-135469795D02*
X11340476Y-135531700D01*
X11340476Y-135531700D02*
X11154761Y-135593604D01*
X11154761Y-135593604D02*
X11030952Y-135593604D01*
X11030952Y-135593604D02*
X10845238Y-135531700D01*
X10845238Y-135531700D02*
X10721428Y-135407890D01*
X10721428Y-135407890D02*
X10659523Y-135284080D01*
X10659523Y-135284080D02*
X10597619Y-135036461D01*
X10597619Y-135036461D02*
X10597619Y-134850747D01*
X10597619Y-134850747D02*
X10659523Y-134603128D01*
X10659523Y-134603128D02*
X10721428Y-134479319D01*
X10721428Y-134479319D02*
X10845238Y-134355509D01*
X10845238Y-134355509D02*
X11030952Y-134293604D01*
X11030952Y-134293604D02*
X11154761Y-134293604D01*
X11154761Y-134293604D02*
X11340476Y-134355509D01*
X11340476Y-134355509D02*
X11402380Y-134417414D01*
D10*
D11*
X10659523Y-185593604D02*
X10659523Y-184293604D01*
X10659523Y-184293604D02*
X10969047Y-184293604D01*
X10969047Y-184293604D02*
X11154761Y-184355509D01*
X11154761Y-184355509D02*
X11278571Y-184479319D01*
X11278571Y-184479319D02*
X11340476Y-184603128D01*
X11340476Y-184603128D02*
X11402380Y-184850747D01*
X11402380Y-184850747D02*
X11402380Y-185036461D01*
X11402380Y-185036461D02*
X11340476Y-185284080D01*
X11340476Y-185284080D02*
X11278571Y-185407890D01*
X11278571Y-185407890D02*
X11154761Y-185531700D01*
X11154761Y-185531700D02*
X10969047Y-185593604D01*
X10969047Y-185593604D02*
X10659523Y-185593604D01*
D10*
D11*
X287002200Y-60000000D02*
X285002200Y-60000000D01*
D10*
D11*
X287002200Y-110000000D02*
X285002200Y-110000000D01*
D10*
D11*
X287002200Y-160000000D02*
X285002200Y-160000000D01*
D10*
D11*
X285692676Y-35222176D02*
X286311723Y-35222176D01*
X285568866Y-35593604D02*
X286002199Y-34293604D01*
X286002199Y-34293604D02*
X286435533Y-35593604D01*
D10*
D11*
X286095057Y-84912652D02*
X286280771Y-84974557D01*
X286280771Y-84974557D02*
X286342676Y-85036461D01*
X286342676Y-85036461D02*
X286404580Y-85160271D01*
X286404580Y-85160271D02*
X286404580Y-85345985D01*
X286404580Y-85345985D02*
X286342676Y-85469795D01*
X286342676Y-85469795D02*
X286280771Y-85531700D01*
X286280771Y-85531700D02*
X286156961Y-85593604D01*
X286156961Y-85593604D02*
X285661723Y-85593604D01*
X285661723Y-85593604D02*
X285661723Y-84293604D01*
X285661723Y-84293604D02*
X286095057Y-84293604D01*
X286095057Y-84293604D02*
X286218866Y-84355509D01*
X286218866Y-84355509D02*
X286280771Y-84417414D01*
X286280771Y-84417414D02*
X286342676Y-84541223D01*
X286342676Y-84541223D02*
X286342676Y-84665033D01*
X286342676Y-84665033D02*
X286280771Y-84788842D01*
X286280771Y-84788842D02*
X286218866Y-84850747D01*
X286218866Y-84850747D02*
X286095057Y-84912652D01*
X286095057Y-84912652D02*
X285661723Y-84912652D01*
D10*
D11*
X286404580Y-135469795D02*
X286342676Y-135531700D01*
X286342676Y-135531700D02*
X286156961Y-135593604D01*
X286156961Y-135593604D02*
X286033152Y-135593604D01*
X286033152Y-135593604D02*
X285847438Y-135531700D01*
X285847438Y-135531700D02*
X285723628Y-135407890D01*
X285723628Y-135407890D02*
X285661723Y-135284080D01*
X285661723Y-135284080D02*
X285599819Y-135036461D01*
X285599819Y-135036461D02*
X285599819Y-134850747D01*
X285599819Y-134850747D02*
X285661723Y-134603128D01*
X285661723Y-134603128D02*
X285723628Y-134479319D01*
X285723628Y-134479319D02*
X285847438Y-134355509D01*
X285847438Y-134355509D02*
X286033152Y-134293604D01*
X286033152Y-134293604D02*
X286156961Y-134293604D01*
X286156961Y-134293604D02*
X286342676Y-134355509D01*
X286342676Y-134355509D02*
X286404580Y-134417414D01*
D10*
D11*
X285661723Y-185593604D02*
X285661723Y-184293604D01*
X285661723Y-184293604D02*
X285971247Y-184293604D01*
X285971247Y-184293604D02*
X286156961Y-184355509D01*
X286156961Y-184355509D02*
X286280771Y-184479319D01*
X286280771Y-184479319D02*
X286342676Y-184603128D01*
X286342676Y-184603128D02*
X286404580Y-184850747D01*
X286404580Y-184850747D02*
X286404580Y-185036461D01*
X286404580Y-185036461D02*
X286342676Y-185284080D01*
X286342676Y-185284080D02*
X286280771Y-185407890D01*
X286280771Y-185407890D02*
X286156961Y-185531700D01*
X286156961Y-185531700D02*
X285971247Y-185593604D01*
X285971247Y-185593604D02*
X285661723Y-185593604D01*
D10*
D11*
X200458026Y-193793328D02*
X200458026Y-192293328D01*
X200458026Y-192293328D02*
X200815169Y-192293328D01*
X200815169Y-192293328D02*
X201029455Y-192364757D01*
X201029455Y-192364757D02*
X201172312Y-192507614D01*
X201172312Y-192507614D02*
X201243741Y-192650471D01*
X201243741Y-192650471D02*
X201315169Y-192936185D01*
X201315169Y-192936185D02*
X201315169Y-193150471D01*
X201315169Y-193150471D02*
X201243741Y-193436185D01*
X201243741Y-193436185D02*
X201172312Y-193579042D01*
X201172312Y-193579042D02*
X201029455Y-193721900D01*
X201029455Y-193721900D02*
X200815169Y-193793328D01*
X200815169Y-193793328D02*
X200458026Y-193793328D01*
X202600884Y-193793328D02*
X202600884Y-193007614D01*
X202600884Y-193007614D02*
X202529455Y-192864757D01*
X202529455Y-192864757D02*
X202386598Y-192793328D01*
X202386598Y-192793328D02*
X202100884Y-192793328D01*
X202100884Y-192793328D02*
X201958026Y-192864757D01*
X202600884Y-193721900D02*
X202458026Y-193793328D01*
X202458026Y-193793328D02*
X202100884Y-193793328D01*
X202100884Y-193793328D02*
X201958026Y-193721900D01*
X201958026Y-193721900D02*
X201886598Y-193579042D01*
X201886598Y-193579042D02*
X201886598Y-193436185D01*
X201886598Y-193436185D02*
X201958026Y-193293328D01*
X201958026Y-193293328D02*
X202100884Y-193221900D01*
X202100884Y-193221900D02*
X202458026Y-193221900D01*
X202458026Y-193221900D02*
X202600884Y-193150471D01*
X203100884Y-192793328D02*
X203672312Y-192793328D01*
X203315169Y-192293328D02*
X203315169Y-193579042D01*
X203315169Y-193579042D02*
X203386598Y-193721900D01*
X203386598Y-193721900D02*
X203529455Y-193793328D01*
X203529455Y-193793328D02*
X203672312Y-193793328D01*
X204743741Y-193721900D02*
X204600884Y-193793328D01*
X204600884Y-193793328D02*
X204315170Y-193793328D01*
X204315170Y-193793328D02*
X204172312Y-193721900D01*
X204172312Y-193721900D02*
X204100884Y-193579042D01*
X204100884Y-193579042D02*
X204100884Y-193007614D01*
X204100884Y-193007614D02*
X204172312Y-192864757D01*
X204172312Y-192864757D02*
X204315170Y-192793328D01*
X204315170Y-192793328D02*
X204600884Y-192793328D01*
X204600884Y-192793328D02*
X204743741Y-192864757D01*
X204743741Y-192864757D02*
X204815170Y-193007614D01*
X204815170Y-193007614D02*
X204815170Y-193150471D01*
X204815170Y-193150471D02*
X204100884Y-193293328D01*
X205458026Y-193650471D02*
X205529455Y-193721900D01*
X205529455Y-193721900D02*
X205458026Y-193793328D01*
X205458026Y-193793328D02*
X205386598Y-193721900D01*
X205386598Y-193721900D02*
X205458026Y-193650471D01*
X205458026Y-193650471D02*
X205458026Y-193793328D01*
X205458026Y-192864757D02*
X205529455Y-192936185D01*
X205529455Y-192936185D02*
X205458026Y-193007614D01*
X205458026Y-193007614D02*
X205386598Y-192936185D01*
X205386598Y-192936185D02*
X205458026Y-192864757D01*
X205458026Y-192864757D02*
X205458026Y-193007614D01*
X207243741Y-192436185D02*
X207315169Y-192364757D01*
X207315169Y-192364757D02*
X207458027Y-192293328D01*
X207458027Y-192293328D02*
X207815169Y-192293328D01*
X207815169Y-192293328D02*
X207958027Y-192364757D01*
X207958027Y-192364757D02*
X208029455Y-192436185D01*
X208029455Y-192436185D02*
X208100884Y-192579042D01*
X208100884Y-192579042D02*
X208100884Y-192721900D01*
X208100884Y-192721900D02*
X208029455Y-192936185D01*
X208029455Y-192936185D02*
X207172312Y-193793328D01*
X207172312Y-193793328D02*
X208100884Y-193793328D01*
X209029455Y-192293328D02*
X209172312Y-192293328D01*
X209172312Y-192293328D02*
X209315169Y-192364757D01*
X209315169Y-192364757D02*
X209386598Y-192436185D01*
X209386598Y-192436185D02*
X209458026Y-192579042D01*
X209458026Y-192579042D02*
X209529455Y-192864757D01*
X209529455Y-192864757D02*
X209529455Y-193221900D01*
X209529455Y-193221900D02*
X209458026Y-193507614D01*
X209458026Y-193507614D02*
X209386598Y-193650471D01*
X209386598Y-193650471D02*
X209315169Y-193721900D01*
X209315169Y-193721900D02*
X209172312Y-193793328D01*
X209172312Y-193793328D02*
X209029455Y-193793328D01*
X209029455Y-193793328D02*
X208886598Y-193721900D01*
X208886598Y-193721900D02*
X208815169Y-193650471D01*
X208815169Y-193650471D02*
X208743740Y-193507614D01*
X208743740Y-193507614D02*
X208672312Y-193221900D01*
X208672312Y-193221900D02*
X208672312Y-192864757D01*
X208672312Y-192864757D02*
X208743740Y-192579042D01*
X208743740Y-192579042D02*
X208815169Y-192436185D01*
X208815169Y-192436185D02*
X208886598Y-192364757D01*
X208886598Y-192364757D02*
X209029455Y-192293328D01*
X210100883Y-192436185D02*
X210172311Y-192364757D01*
X210172311Y-192364757D02*
X210315169Y-192293328D01*
X210315169Y-192293328D02*
X210672311Y-192293328D01*
X210672311Y-192293328D02*
X210815169Y-192364757D01*
X210815169Y-192364757D02*
X210886597Y-192436185D01*
X210886597Y-192436185D02*
X210958026Y-192579042D01*
X210958026Y-192579042D02*
X210958026Y-192721900D01*
X210958026Y-192721900D02*
X210886597Y-192936185D01*
X210886597Y-192936185D02*
X210029454Y-193793328D01*
X210029454Y-193793328D02*
X210958026Y-193793328D01*
X212315168Y-192293328D02*
X211600882Y-192293328D01*
X211600882Y-192293328D02*
X211529454Y-193007614D01*
X211529454Y-193007614D02*
X211600882Y-192936185D01*
X211600882Y-192936185D02*
X211743740Y-192864757D01*
X211743740Y-192864757D02*
X212100882Y-192864757D01*
X212100882Y-192864757D02*
X212243740Y-192936185D01*
X212243740Y-192936185D02*
X212315168Y-193007614D01*
X212315168Y-193007614D02*
X212386597Y-193150471D01*
X212386597Y-193150471D02*
X212386597Y-193507614D01*
X212386597Y-193507614D02*
X212315168Y-193650471D01*
X212315168Y-193650471D02*
X212243740Y-193721900D01*
X212243740Y-193721900D02*
X212100882Y-193793328D01*
X212100882Y-193793328D02*
X211743740Y-193793328D01*
X211743740Y-193793328D02*
X211600882Y-193721900D01*
X211600882Y-193721900D02*
X211529454Y-193650471D01*
X213029453Y-193221900D02*
X214172311Y-193221900D01*
X215672311Y-193793328D02*
X214815168Y-193793328D01*
X215243739Y-193793328D02*
X215243739Y-192293328D01*
X215243739Y-192293328D02*
X215100882Y-192507614D01*
X215100882Y-192507614D02*
X214958025Y-192650471D01*
X214958025Y-192650471D02*
X214815168Y-192721900D01*
X217100882Y-193793328D02*
X216243739Y-193793328D01*
X216672310Y-193793328D02*
X216672310Y-192293328D01*
X216672310Y-192293328D02*
X216529453Y-192507614D01*
X216529453Y-192507614D02*
X216386596Y-192650471D01*
X216386596Y-192650471D02*
X216243739Y-192721900D01*
X217743738Y-193221900D02*
X218886596Y-193221900D01*
X220386596Y-193793328D02*
X219529453Y-193793328D01*
X219958024Y-193793328D02*
X219958024Y-192293328D01*
X219958024Y-192293328D02*
X219815167Y-192507614D01*
X219815167Y-192507614D02*
X219672310Y-192650471D01*
X219672310Y-192650471D02*
X219529453Y-192721900D01*
X220886595Y-192293328D02*
X221815167Y-192293328D01*
X221815167Y-192293328D02*
X221315167Y-192864757D01*
X221315167Y-192864757D02*
X221529452Y-192864757D01*
X221529452Y-192864757D02*
X221672310Y-192936185D01*
X221672310Y-192936185D02*
X221743738Y-193007614D01*
X221743738Y-193007614D02*
X221815167Y-193150471D01*
X221815167Y-193150471D02*
X221815167Y-193507614D01*
X221815167Y-193507614D02*
X221743738Y-193650471D01*
X221743738Y-193650471D02*
X221672310Y-193721900D01*
X221672310Y-193721900D02*
X221529452Y-193793328D01*
X221529452Y-193793328D02*
X221100881Y-193793328D01*
X221100881Y-193793328D02*
X220958024Y-193721900D01*
X220958024Y-193721900D02*
X220886595Y-193650471D01*
D10*
D11*
X177002200Y-194507200D02*
X285002200Y-194507200D01*
D10*
D11*
X178458026Y-196593328D02*
X178458026Y-195093328D01*
X179315169Y-196593328D02*
X178672312Y-195736185D01*
X179315169Y-195093328D02*
X178458026Y-195950471D01*
X179958026Y-196593328D02*
X179958026Y-195593328D01*
X179958026Y-195093328D02*
X179886598Y-195164757D01*
X179886598Y-195164757D02*
X179958026Y-195236185D01*
X179958026Y-195236185D02*
X180029455Y-195164757D01*
X180029455Y-195164757D02*
X179958026Y-195093328D01*
X179958026Y-195093328D02*
X179958026Y-195236185D01*
X181529455Y-196450471D02*
X181458027Y-196521900D01*
X181458027Y-196521900D02*
X181243741Y-196593328D01*
X181243741Y-196593328D02*
X181100884Y-196593328D01*
X181100884Y-196593328D02*
X180886598Y-196521900D01*
X180886598Y-196521900D02*
X180743741Y-196379042D01*
X180743741Y-196379042D02*
X180672312Y-196236185D01*
X180672312Y-196236185D02*
X180600884Y-195950471D01*
X180600884Y-195950471D02*
X180600884Y-195736185D01*
X180600884Y-195736185D02*
X180672312Y-195450471D01*
X180672312Y-195450471D02*
X180743741Y-195307614D01*
X180743741Y-195307614D02*
X180886598Y-195164757D01*
X180886598Y-195164757D02*
X181100884Y-195093328D01*
X181100884Y-195093328D02*
X181243741Y-195093328D01*
X181243741Y-195093328D02*
X181458027Y-195164757D01*
X181458027Y-195164757D02*
X181529455Y-195236185D01*
X182815170Y-196593328D02*
X182815170Y-195807614D01*
X182815170Y-195807614D02*
X182743741Y-195664757D01*
X182743741Y-195664757D02*
X182600884Y-195593328D01*
X182600884Y-195593328D02*
X182315170Y-195593328D01*
X182315170Y-195593328D02*
X182172312Y-195664757D01*
X182815170Y-196521900D02*
X182672312Y-196593328D01*
X182672312Y-196593328D02*
X182315170Y-196593328D01*
X182315170Y-196593328D02*
X182172312Y-196521900D01*
X182172312Y-196521900D02*
X182100884Y-196379042D01*
X182100884Y-196379042D02*
X182100884Y-196236185D01*
X182100884Y-196236185D02*
X182172312Y-196093328D01*
X182172312Y-196093328D02*
X182315170Y-196021900D01*
X182315170Y-196021900D02*
X182672312Y-196021900D01*
X182672312Y-196021900D02*
X182815170Y-195950471D01*
X184172313Y-196593328D02*
X184172313Y-195093328D01*
X184172313Y-196521900D02*
X184029455Y-196593328D01*
X184029455Y-196593328D02*
X183743741Y-196593328D01*
X183743741Y-196593328D02*
X183600884Y-196521900D01*
X183600884Y-196521900D02*
X183529455Y-196450471D01*
X183529455Y-196450471D02*
X183458027Y-196307614D01*
X183458027Y-196307614D02*
X183458027Y-195879042D01*
X183458027Y-195879042D02*
X183529455Y-195736185D01*
X183529455Y-195736185D02*
X183600884Y-195664757D01*
X183600884Y-195664757D02*
X183743741Y-195593328D01*
X183743741Y-195593328D02*
X184029455Y-195593328D01*
X184029455Y-195593328D02*
X184172313Y-195664757D01*
X186029455Y-195807614D02*
X186529455Y-195807614D01*
X186743741Y-196593328D02*
X186029455Y-196593328D01*
X186029455Y-196593328D02*
X186029455Y-195093328D01*
X186029455Y-195093328D02*
X186743741Y-195093328D01*
X187386598Y-196450471D02*
X187458027Y-196521900D01*
X187458027Y-196521900D02*
X187386598Y-196593328D01*
X187386598Y-196593328D02*
X187315170Y-196521900D01*
X187315170Y-196521900D02*
X187386598Y-196450471D01*
X187386598Y-196450471D02*
X187386598Y-196593328D01*
X188100884Y-196593328D02*
X188100884Y-195093328D01*
X188100884Y-195093328D02*
X188458027Y-195093328D01*
X188458027Y-195093328D02*
X188672313Y-195164757D01*
X188672313Y-195164757D02*
X188815170Y-195307614D01*
X188815170Y-195307614D02*
X188886599Y-195450471D01*
X188886599Y-195450471D02*
X188958027Y-195736185D01*
X188958027Y-195736185D02*
X188958027Y-195950471D01*
X188958027Y-195950471D02*
X188886599Y-196236185D01*
X188886599Y-196236185D02*
X188815170Y-196379042D01*
X188815170Y-196379042D02*
X188672313Y-196521900D01*
X188672313Y-196521900D02*
X188458027Y-196593328D01*
X188458027Y-196593328D02*
X188100884Y-196593328D01*
X189600884Y-196450471D02*
X189672313Y-196521900D01*
X189672313Y-196521900D02*
X189600884Y-196593328D01*
X189600884Y-196593328D02*
X189529456Y-196521900D01*
X189529456Y-196521900D02*
X189600884Y-196450471D01*
X189600884Y-196450471D02*
X189600884Y-196593328D01*
X190243742Y-196164757D02*
X190958028Y-196164757D01*
X190100885Y-196593328D02*
X190600885Y-195093328D01*
X190600885Y-195093328D02*
X191100885Y-196593328D01*
X191600884Y-196450471D02*
X191672313Y-196521900D01*
X191672313Y-196521900D02*
X191600884Y-196593328D01*
X191600884Y-196593328D02*
X191529456Y-196521900D01*
X191529456Y-196521900D02*
X191600884Y-196450471D01*
X191600884Y-196450471D02*
X191600884Y-196593328D01*
X193529456Y-196593328D02*
X193815170Y-196593328D01*
X193815170Y-196593328D02*
X193958027Y-196521900D01*
X193958027Y-196521900D02*
X194029456Y-196450471D01*
X194029456Y-196450471D02*
X194172313Y-196236185D01*
X194172313Y-196236185D02*
X194243742Y-195950471D01*
X194243742Y-195950471D02*
X194243742Y-195379042D01*
X194243742Y-195379042D02*
X194172313Y-195236185D01*
X194172313Y-195236185D02*
X194100885Y-195164757D01*
X194100885Y-195164757D02*
X193958027Y-195093328D01*
X193958027Y-195093328D02*
X193672313Y-195093328D01*
X193672313Y-195093328D02*
X193529456Y-195164757D01*
X193529456Y-195164757D02*
X193458027Y-195236185D01*
X193458027Y-195236185D02*
X193386599Y-195379042D01*
X193386599Y-195379042D02*
X193386599Y-195736185D01*
X193386599Y-195736185D02*
X193458027Y-195879042D01*
X193458027Y-195879042D02*
X193529456Y-195950471D01*
X193529456Y-195950471D02*
X193672313Y-196021900D01*
X193672313Y-196021900D02*
X193958027Y-196021900D01*
X193958027Y-196021900D02*
X194100885Y-195950471D01*
X194100885Y-195950471D02*
X194172313Y-195879042D01*
X194172313Y-195879042D02*
X194243742Y-195736185D01*
X194886598Y-196450471D02*
X194958027Y-196521900D01*
X194958027Y-196521900D02*
X194886598Y-196593328D01*
X194886598Y-196593328D02*
X194815170Y-196521900D01*
X194815170Y-196521900D02*
X194886598Y-196450471D01*
X194886598Y-196450471D02*
X194886598Y-196593328D01*
X195886599Y-195093328D02*
X196029456Y-195093328D01*
X196029456Y-195093328D02*
X196172313Y-195164757D01*
X196172313Y-195164757D02*
X196243742Y-195236185D01*
X196243742Y-195236185D02*
X196315170Y-195379042D01*
X196315170Y-195379042D02*
X196386599Y-195664757D01*
X196386599Y-195664757D02*
X196386599Y-196021900D01*
X196386599Y-196021900D02*
X196315170Y-196307614D01*
X196315170Y-196307614D02*
X196243742Y-196450471D01*
X196243742Y-196450471D02*
X196172313Y-196521900D01*
X196172313Y-196521900D02*
X196029456Y-196593328D01*
X196029456Y-196593328D02*
X195886599Y-196593328D01*
X195886599Y-196593328D02*
X195743742Y-196521900D01*
X195743742Y-196521900D02*
X195672313Y-196450471D01*
X195672313Y-196450471D02*
X195600884Y-196307614D01*
X195600884Y-196307614D02*
X195529456Y-196021900D01*
X195529456Y-196021900D02*
X195529456Y-195664757D01*
X195529456Y-195664757D02*
X195600884Y-195379042D01*
X195600884Y-195379042D02*
X195672313Y-195236185D01*
X195672313Y-195236185D02*
X195743742Y-195164757D01*
X195743742Y-195164757D02*
X195886599Y-195093328D01*
X197029455Y-196450471D02*
X197100884Y-196521900D01*
X197100884Y-196521900D02*
X197029455Y-196593328D01*
X197029455Y-196593328D02*
X196958027Y-196521900D01*
X196958027Y-196521900D02*
X197029455Y-196450471D01*
X197029455Y-196450471D02*
X197029455Y-196593328D01*
X197600884Y-195093328D02*
X198529456Y-195093328D01*
X198529456Y-195093328D02*
X198029456Y-195664757D01*
X198029456Y-195664757D02*
X198243741Y-195664757D01*
X198243741Y-195664757D02*
X198386599Y-195736185D01*
X198386599Y-195736185D02*
X198458027Y-195807614D01*
X198458027Y-195807614D02*
X198529456Y-195950471D01*
X198529456Y-195950471D02*
X198529456Y-196307614D01*
X198529456Y-196307614D02*
X198458027Y-196450471D01*
X198458027Y-196450471D02*
X198386599Y-196521900D01*
X198386599Y-196521900D02*
X198243741Y-196593328D01*
X198243741Y-196593328D02*
X197815170Y-196593328D01*
X197815170Y-196593328D02*
X197672313Y-196521900D01*
X197672313Y-196521900D02*
X197600884Y-196450471D01*
D10*
D11*
X177002200Y-191507200D02*
X285002200Y-191507200D01*
D10*
D12*
X264413853Y-193785528D02*
X263913853Y-193071242D01*
X263556710Y-193785528D02*
X263556710Y-192285528D01*
X263556710Y-192285528D02*
X264128139Y-192285528D01*
X264128139Y-192285528D02*
X264270996Y-192356957D01*
X264270996Y-192356957D02*
X264342425Y-192428385D01*
X264342425Y-192428385D02*
X264413853Y-192571242D01*
X264413853Y-192571242D02*
X264413853Y-192785528D01*
X264413853Y-192785528D02*
X264342425Y-192928385D01*
X264342425Y-192928385D02*
X264270996Y-192999814D01*
X264270996Y-192999814D02*
X264128139Y-193071242D01*
X264128139Y-193071242D02*
X263556710Y-193071242D01*
X265628139Y-193714100D02*
X265485282Y-193785528D01*
X265485282Y-193785528D02*
X265199568Y-193785528D01*
X265199568Y-193785528D02*
X265056710Y-193714100D01*
X265056710Y-193714100D02*
X264985282Y-193571242D01*
X264985282Y-193571242D02*
X264985282Y-192999814D01*
X264985282Y-192999814D02*
X265056710Y-192856957D01*
X265056710Y-192856957D02*
X265199568Y-192785528D01*
X265199568Y-192785528D02*
X265485282Y-192785528D01*
X265485282Y-192785528D02*
X265628139Y-192856957D01*
X265628139Y-192856957D02*
X265699568Y-192999814D01*
X265699568Y-192999814D02*
X265699568Y-193142671D01*
X265699568Y-193142671D02*
X264985282Y-193285528D01*
X266199567Y-192785528D02*
X266556710Y-193785528D01*
X266556710Y-193785528D02*
X266913853Y-192785528D01*
X267485281Y-193642671D02*
X267556710Y-193714100D01*
X267556710Y-193714100D02*
X267485281Y-193785528D01*
X267485281Y-193785528D02*
X267413853Y-193714100D01*
X267413853Y-193714100D02*
X267485281Y-193642671D01*
X267485281Y-193642671D02*
X267485281Y-193785528D01*
X267485281Y-192856957D02*
X267556710Y-192928385D01*
X267556710Y-192928385D02*
X267485281Y-192999814D01*
X267485281Y-192999814D02*
X267413853Y-192928385D01*
X267413853Y-192928385D02*
X267485281Y-192856957D01*
X267485281Y-192856957D02*
X267485281Y-192999814D01*
X270128139Y-193785528D02*
X269270996Y-193785528D01*
X269699567Y-193785528D02*
X269699567Y-192285528D01*
X269699567Y-192285528D02*
X269556710Y-192499814D01*
X269556710Y-192499814D02*
X269413853Y-192642671D01*
X269413853Y-192642671D02*
X269270996Y-192714100D01*
X270770995Y-193642671D02*
X270842424Y-193714100D01*
X270842424Y-193714100D02*
X270770995Y-193785528D01*
X270770995Y-193785528D02*
X270699567Y-193714100D01*
X270699567Y-193714100D02*
X270770995Y-193642671D01*
X270770995Y-193642671D02*
X270770995Y-193785528D01*
X271770996Y-192285528D02*
X271913853Y-192285528D01*
X271913853Y-192285528D02*
X272056710Y-192356957D01*
X272056710Y-192356957D02*
X272128139Y-192428385D01*
X272128139Y-192428385D02*
X272199567Y-192571242D01*
X272199567Y-192571242D02*
X272270996Y-192856957D01*
X272270996Y-192856957D02*
X272270996Y-193214100D01*
X272270996Y-193214100D02*
X272199567Y-193499814D01*
X272199567Y-193499814D02*
X272128139Y-193642671D01*
X272128139Y-193642671D02*
X272056710Y-193714100D01*
X272056710Y-193714100D02*
X271913853Y-193785528D01*
X271913853Y-193785528D02*
X271770996Y-193785528D01*
X271770996Y-193785528D02*
X271628139Y-193714100D01*
X271628139Y-193714100D02*
X271556710Y-193642671D01*
X271556710Y-193642671D02*
X271485281Y-193499814D01*
X271485281Y-193499814D02*
X271413853Y-193214100D01*
X271413853Y-193214100D02*
X271413853Y-192856957D01*
X271413853Y-192856957D02*
X271485281Y-192571242D01*
X271485281Y-192571242D02*
X271556710Y-192428385D01*
X271556710Y-192428385D02*
X271628139Y-192356957D01*
X271628139Y-192356957D02*
X271770996Y-192285528D01*
D10*
D11*
X178386598Y-193721900D02*
X178600884Y-193793328D01*
X178600884Y-193793328D02*
X178958026Y-193793328D01*
X178958026Y-193793328D02*
X179100884Y-193721900D01*
X179100884Y-193721900D02*
X179172312Y-193650471D01*
X179172312Y-193650471D02*
X179243741Y-193507614D01*
X179243741Y-193507614D02*
X179243741Y-193364757D01*
X179243741Y-193364757D02*
X179172312Y-193221900D01*
X179172312Y-193221900D02*
X179100884Y-193150471D01*
X179100884Y-193150471D02*
X178958026Y-193079042D01*
X178958026Y-193079042D02*
X178672312Y-193007614D01*
X178672312Y-193007614D02*
X178529455Y-192936185D01*
X178529455Y-192936185D02*
X178458026Y-192864757D01*
X178458026Y-192864757D02*
X178386598Y-192721900D01*
X178386598Y-192721900D02*
X178386598Y-192579042D01*
X178386598Y-192579042D02*
X178458026Y-192436185D01*
X178458026Y-192436185D02*
X178529455Y-192364757D01*
X178529455Y-192364757D02*
X178672312Y-192293328D01*
X178672312Y-192293328D02*
X179029455Y-192293328D01*
X179029455Y-192293328D02*
X179243741Y-192364757D01*
X179886597Y-193793328D02*
X179886597Y-192793328D01*
X179886597Y-192293328D02*
X179815169Y-192364757D01*
X179815169Y-192364757D02*
X179886597Y-192436185D01*
X179886597Y-192436185D02*
X179958026Y-192364757D01*
X179958026Y-192364757D02*
X179886597Y-192293328D01*
X179886597Y-192293328D02*
X179886597Y-192436185D01*
X180458026Y-192793328D02*
X181243741Y-192793328D01*
X181243741Y-192793328D02*
X180458026Y-193793328D01*
X180458026Y-193793328D02*
X181243741Y-193793328D01*
X182386598Y-193721900D02*
X182243741Y-193793328D01*
X182243741Y-193793328D02*
X181958027Y-193793328D01*
X181958027Y-193793328D02*
X181815169Y-193721900D01*
X181815169Y-193721900D02*
X181743741Y-193579042D01*
X181743741Y-193579042D02*
X181743741Y-193007614D01*
X181743741Y-193007614D02*
X181815169Y-192864757D01*
X181815169Y-192864757D02*
X181958027Y-192793328D01*
X181958027Y-192793328D02*
X182243741Y-192793328D01*
X182243741Y-192793328D02*
X182386598Y-192864757D01*
X182386598Y-192864757D02*
X182458027Y-193007614D01*
X182458027Y-193007614D02*
X182458027Y-193150471D01*
X182458027Y-193150471D02*
X181743741Y-193293328D01*
X183100883Y-193650471D02*
X183172312Y-193721900D01*
X183172312Y-193721900D02*
X183100883Y-193793328D01*
X183100883Y-193793328D02*
X183029455Y-193721900D01*
X183029455Y-193721900D02*
X183100883Y-193650471D01*
X183100883Y-193650471D02*
X183100883Y-193793328D01*
X183100883Y-192864757D02*
X183172312Y-192936185D01*
X183172312Y-192936185D02*
X183100883Y-193007614D01*
X183100883Y-193007614D02*
X183029455Y-192936185D01*
X183029455Y-192936185D02*
X183100883Y-192864757D01*
X183100883Y-192864757D02*
X183100883Y-193007614D01*
X184886598Y-193364757D02*
X185600884Y-193364757D01*
X184743741Y-193793328D02*
X185243741Y-192293328D01*
X185243741Y-192293328D02*
X185743741Y-193793328D01*
X186886598Y-192793328D02*
X186886598Y-193793328D01*
X186529455Y-192221900D02*
X186172312Y-193293328D01*
X186172312Y-193293328D02*
X187100883Y-193293328D01*
D10*
D11*
X263458026Y-196593328D02*
X263458026Y-195093328D01*
X264815170Y-196593328D02*
X264815170Y-195093328D01*
X264815170Y-196521900D02*
X264672312Y-196593328D01*
X264672312Y-196593328D02*
X264386598Y-196593328D01*
X264386598Y-196593328D02*
X264243741Y-196521900D01*
X264243741Y-196521900D02*
X264172312Y-196450471D01*
X264172312Y-196450471D02*
X264100884Y-196307614D01*
X264100884Y-196307614D02*
X264100884Y-195879042D01*
X264100884Y-195879042D02*
X264172312Y-195736185D01*
X264172312Y-195736185D02*
X264243741Y-195664757D01*
X264243741Y-195664757D02*
X264386598Y-195593328D01*
X264386598Y-195593328D02*
X264672312Y-195593328D01*
X264672312Y-195593328D02*
X264815170Y-195664757D01*
X265529455Y-196450471D02*
X265600884Y-196521900D01*
X265600884Y-196521900D02*
X265529455Y-196593328D01*
X265529455Y-196593328D02*
X265458027Y-196521900D01*
X265458027Y-196521900D02*
X265529455Y-196450471D01*
X265529455Y-196450471D02*
X265529455Y-196593328D01*
X265529455Y-195664757D02*
X265600884Y-195736185D01*
X265600884Y-195736185D02*
X265529455Y-195807614D01*
X265529455Y-195807614D02*
X265458027Y-195736185D01*
X265458027Y-195736185D02*
X265529455Y-195664757D01*
X265529455Y-195664757D02*
X265529455Y-195807614D01*
X267600884Y-195736185D02*
X267458027Y-195664757D01*
X267458027Y-195664757D02*
X267386598Y-195593328D01*
X267386598Y-195593328D02*
X267315170Y-195450471D01*
X267315170Y-195450471D02*
X267315170Y-195379042D01*
X267315170Y-195379042D02*
X267386598Y-195236185D01*
X267386598Y-195236185D02*
X267458027Y-195164757D01*
X267458027Y-195164757D02*
X267600884Y-195093328D01*
X267600884Y-195093328D02*
X267886598Y-195093328D01*
X267886598Y-195093328D02*
X268029456Y-195164757D01*
X268029456Y-195164757D02*
X268100884Y-195236185D01*
X268100884Y-195236185D02*
X268172313Y-195379042D01*
X268172313Y-195379042D02*
X268172313Y-195450471D01*
X268172313Y-195450471D02*
X268100884Y-195593328D01*
X268100884Y-195593328D02*
X268029456Y-195664757D01*
X268029456Y-195664757D02*
X267886598Y-195736185D01*
X267886598Y-195736185D02*
X267600884Y-195736185D01*
X267600884Y-195736185D02*
X267458027Y-195807614D01*
X267458027Y-195807614D02*
X267386598Y-195879042D01*
X267386598Y-195879042D02*
X267315170Y-196021900D01*
X267315170Y-196021900D02*
X267315170Y-196307614D01*
X267315170Y-196307614D02*
X267386598Y-196450471D01*
X267386598Y-196450471D02*
X267458027Y-196521900D01*
X267458027Y-196521900D02*
X267600884Y-196593328D01*
X267600884Y-196593328D02*
X267886598Y-196593328D01*
X267886598Y-196593328D02*
X268029456Y-196521900D01*
X268029456Y-196521900D02*
X268100884Y-196450471D01*
X268100884Y-196450471D02*
X268172313Y-196307614D01*
X268172313Y-196307614D02*
X268172313Y-196021900D01*
X268172313Y-196021900D02*
X268100884Y-195879042D01*
X268100884Y-195879042D02*
X268029456Y-195807614D01*
X268029456Y-195807614D02*
X267886598Y-195736185D01*
X269886598Y-195021900D02*
X268600884Y-196950471D01*
X270458027Y-196593328D02*
X270743741Y-196593328D01*
X270743741Y-196593328D02*
X270886598Y-196521900D01*
X270886598Y-196521900D02*
X270958027Y-196450471D01*
X270958027Y-196450471D02*
X271100884Y-196236185D01*
X271100884Y-196236185D02*
X271172313Y-195950471D01*
X271172313Y-195950471D02*
X271172313Y-195379042D01*
X271172313Y-195379042D02*
X271100884Y-195236185D01*
X271100884Y-195236185D02*
X271029456Y-195164757D01*
X271029456Y-195164757D02*
X270886598Y-195093328D01*
X270886598Y-195093328D02*
X270600884Y-195093328D01*
X270600884Y-195093328D02*
X270458027Y-195164757D01*
X270458027Y-195164757D02*
X270386598Y-195236185D01*
X270386598Y-195236185D02*
X270315170Y-195379042D01*
X270315170Y-195379042D02*
X270315170Y-195736185D01*
X270315170Y-195736185D02*
X270386598Y-195879042D01*
X270386598Y-195879042D02*
X270458027Y-195950471D01*
X270458027Y-195950471D02*
X270600884Y-196021900D01*
X270600884Y-196021900D02*
X270886598Y-196021900D01*
X270886598Y-196021900D02*
X271029456Y-195950471D01*
X271029456Y-195950471D02*
X271100884Y-195879042D01*
X271100884Y-195879042D02*
X271172313Y-195736185D01*
D10*
D11*
X177002200Y-187507200D02*
X285002200Y-187507200D01*
D10*
D13*
X178693928Y-188211638D02*
X179836785Y-188211638D01*
X179015357Y-190211638D02*
X179265357Y-188211638D01*
X180253452Y-190211638D02*
X180420119Y-188878304D01*
X180503452Y-188211638D02*
X180396309Y-188306876D01*
X180396309Y-188306876D02*
X180479643Y-188402114D01*
X180479643Y-188402114D02*
X180586786Y-188306876D01*
X180586786Y-188306876D02*
X180503452Y-188211638D01*
X180503452Y-188211638D02*
X180479643Y-188402114D01*
X181086786Y-188878304D02*
X181848690Y-188878304D01*
X181455833Y-188211638D02*
X181241548Y-189925923D01*
X181241548Y-189925923D02*
X181312976Y-190116400D01*
X181312976Y-190116400D02*
X181491548Y-190211638D01*
X181491548Y-190211638D02*
X181682024Y-190211638D01*
X182634405Y-190211638D02*
X182455833Y-190116400D01*
X182455833Y-190116400D02*
X182384405Y-189925923D01*
X182384405Y-189925923D02*
X182598690Y-188211638D01*
X184170119Y-190116400D02*
X183967738Y-190211638D01*
X183967738Y-190211638D02*
X183586785Y-190211638D01*
X183586785Y-190211638D02*
X183408214Y-190116400D01*
X183408214Y-190116400D02*
X183336785Y-189925923D01*
X183336785Y-189925923D02*
X183432024Y-189164019D01*
X183432024Y-189164019D02*
X183551071Y-188973542D01*
X183551071Y-188973542D02*
X183753452Y-188878304D01*
X183753452Y-188878304D02*
X184134404Y-188878304D01*
X184134404Y-188878304D02*
X184312976Y-188973542D01*
X184312976Y-188973542D02*
X184384404Y-189164019D01*
X184384404Y-189164019D02*
X184360595Y-189354495D01*
X184360595Y-189354495D02*
X183384404Y-189544971D01*
X185134405Y-190021161D02*
X185217738Y-190116400D01*
X185217738Y-190116400D02*
X185110595Y-190211638D01*
X185110595Y-190211638D02*
X185027262Y-190116400D01*
X185027262Y-190116400D02*
X185134405Y-190021161D01*
X185134405Y-190021161D02*
X185110595Y-190211638D01*
X185265357Y-188973542D02*
X185348690Y-189068780D01*
X185348690Y-189068780D02*
X185241548Y-189164019D01*
X185241548Y-189164019D02*
X185158214Y-189068780D01*
X185158214Y-189068780D02*
X185265357Y-188973542D01*
X185265357Y-188973542D02*
X185241548Y-189164019D01*
X187586786Y-190211638D02*
X187836786Y-188211638D01*
X187836786Y-188211638D02*
X188598691Y-188211638D01*
X188598691Y-188211638D02*
X188777262Y-188306876D01*
X188777262Y-188306876D02*
X188860596Y-188402114D01*
X188860596Y-188402114D02*
X188932024Y-188592590D01*
X188932024Y-188592590D02*
X188896310Y-188878304D01*
X188896310Y-188878304D02*
X188777262Y-189068780D01*
X188777262Y-189068780D02*
X188670120Y-189164019D01*
X188670120Y-189164019D02*
X188467739Y-189259257D01*
X188467739Y-189259257D02*
X187705834Y-189259257D01*
X189586786Y-190211638D02*
X189753453Y-188878304D01*
X189705834Y-189259257D02*
X189824881Y-189068780D01*
X189824881Y-189068780D02*
X189932024Y-188973542D01*
X189932024Y-188973542D02*
X190134405Y-188878304D01*
X190134405Y-188878304D02*
X190324881Y-188878304D01*
X191598691Y-190116400D02*
X191396310Y-190211638D01*
X191396310Y-190211638D02*
X191015357Y-190211638D01*
X191015357Y-190211638D02*
X190836786Y-190116400D01*
X190836786Y-190116400D02*
X190765357Y-189925923D01*
X190765357Y-189925923D02*
X190860596Y-189164019D01*
X190860596Y-189164019D02*
X190979643Y-188973542D01*
X190979643Y-188973542D02*
X191182024Y-188878304D01*
X191182024Y-188878304D02*
X191562976Y-188878304D01*
X191562976Y-188878304D02*
X191741548Y-188973542D01*
X191741548Y-188973542D02*
X191812976Y-189164019D01*
X191812976Y-189164019D02*
X191789167Y-189354495D01*
X191789167Y-189354495D02*
X190812976Y-189544971D01*
X193396310Y-190211638D02*
X193527262Y-189164019D01*
X193527262Y-189164019D02*
X193455834Y-188973542D01*
X193455834Y-188973542D02*
X193277262Y-188878304D01*
X193277262Y-188878304D02*
X192896310Y-188878304D01*
X192896310Y-188878304D02*
X192693929Y-188973542D01*
X193408215Y-190116400D02*
X193205834Y-190211638D01*
X193205834Y-190211638D02*
X192729643Y-190211638D01*
X192729643Y-190211638D02*
X192551072Y-190116400D01*
X192551072Y-190116400D02*
X192479643Y-189925923D01*
X192479643Y-189925923D02*
X192503453Y-189735447D01*
X192503453Y-189735447D02*
X192622501Y-189544971D01*
X192622501Y-189544971D02*
X192824882Y-189449733D01*
X192824882Y-189449733D02*
X193301072Y-189449733D01*
X193301072Y-189449733D02*
X193503453Y-189354495D01*
X194348691Y-190211638D02*
X194515358Y-188878304D01*
X194491548Y-189068780D02*
X194598691Y-188973542D01*
X194598691Y-188973542D02*
X194801072Y-188878304D01*
X194801072Y-188878304D02*
X195086786Y-188878304D01*
X195086786Y-188878304D02*
X195265358Y-188973542D01*
X195265358Y-188973542D02*
X195336786Y-189164019D01*
X195336786Y-189164019D02*
X195205834Y-190211638D01*
X195336786Y-189164019D02*
X195455834Y-188973542D01*
X195455834Y-188973542D02*
X195658215Y-188878304D01*
X195658215Y-188878304D02*
X195943929Y-188878304D01*
X195943929Y-188878304D02*
X196122501Y-188973542D01*
X196122501Y-188973542D02*
X196193929Y-189164019D01*
X196193929Y-189164019D02*
X196062977Y-190211638D01*
X197182025Y-188878304D02*
X196932025Y-190878304D01*
X197170120Y-188973542D02*
X197372501Y-188878304D01*
X197372501Y-188878304D02*
X197753453Y-188878304D01*
X197753453Y-188878304D02*
X197932025Y-188973542D01*
X197932025Y-188973542D02*
X198015358Y-189068780D01*
X198015358Y-189068780D02*
X198086787Y-189259257D01*
X198086787Y-189259257D02*
X198015358Y-189830685D01*
X198015358Y-189830685D02*
X197896311Y-190021161D01*
X197896311Y-190021161D02*
X197789168Y-190116400D01*
X197789168Y-190116400D02*
X197586787Y-190211638D01*
X197586787Y-190211638D02*
X197205834Y-190211638D01*
X197205834Y-190211638D02*
X197027263Y-190116400D01*
X199110597Y-190211638D02*
X198932025Y-190116400D01*
X198932025Y-190116400D02*
X198860597Y-189925923D01*
X198860597Y-189925923D02*
X199074882Y-188211638D01*
X199872501Y-190211638D02*
X200039168Y-188878304D01*
X200122501Y-188211638D02*
X200015358Y-188306876D01*
X200015358Y-188306876D02*
X200098692Y-188402114D01*
X200098692Y-188402114D02*
X200205835Y-188306876D01*
X200205835Y-188306876D02*
X200122501Y-188211638D01*
X200122501Y-188211638D02*
X200098692Y-188402114D01*
X200705835Y-188878304D02*
X201467739Y-188878304D01*
X200824882Y-190211638D02*
X201039168Y-188497352D01*
X201039168Y-188497352D02*
X201158216Y-188306876D01*
X201158216Y-188306876D02*
X201360597Y-188211638D01*
X201360597Y-188211638D02*
X201551073Y-188211638D01*
X201967739Y-190211638D02*
X202134406Y-188878304D01*
X202217739Y-188211638D02*
X202110596Y-188306876D01*
X202110596Y-188306876D02*
X202193930Y-188402114D01*
X202193930Y-188402114D02*
X202301073Y-188306876D01*
X202301073Y-188306876D02*
X202217739Y-188211638D01*
X202217739Y-188211638D02*
X202193930Y-188402114D01*
X203693930Y-190116400D02*
X203491549Y-190211638D01*
X203491549Y-190211638D02*
X203110596Y-190211638D01*
X203110596Y-190211638D02*
X202932025Y-190116400D01*
X202932025Y-190116400D02*
X202860596Y-189925923D01*
X202860596Y-189925923D02*
X202955835Y-189164019D01*
X202955835Y-189164019D02*
X203074882Y-188973542D01*
X203074882Y-188973542D02*
X203277263Y-188878304D01*
X203277263Y-188878304D02*
X203658215Y-188878304D01*
X203658215Y-188878304D02*
X203836787Y-188973542D01*
X203836787Y-188973542D02*
X203908215Y-189164019D01*
X203908215Y-189164019D02*
X203884406Y-189354495D01*
X203884406Y-189354495D02*
X202908215Y-189544971D01*
X204634406Y-190211638D02*
X204801073Y-188878304D01*
X204753454Y-189259257D02*
X204872501Y-189068780D01*
X204872501Y-189068780D02*
X204979644Y-188973542D01*
X204979644Y-188973542D02*
X205182025Y-188878304D01*
X205182025Y-188878304D02*
X205372501Y-188878304D01*
X205967739Y-189449733D02*
X207491549Y-189449733D01*
X208479644Y-189164019D02*
X209146310Y-189164019D01*
X209301072Y-190211638D02*
X208348691Y-190211638D01*
X208348691Y-190211638D02*
X208598691Y-188211638D01*
X208598691Y-188211638D02*
X209551072Y-188211638D01*
X211182025Y-188878304D02*
X210932025Y-190878304D01*
X211027263Y-190116400D02*
X210824882Y-190211638D01*
X210824882Y-190211638D02*
X210443930Y-190211638D01*
X210443930Y-190211638D02*
X210265358Y-190116400D01*
X210265358Y-190116400D02*
X210182025Y-190021161D01*
X210182025Y-190021161D02*
X210110596Y-189830685D01*
X210110596Y-189830685D02*
X210182025Y-189259257D01*
X210182025Y-189259257D02*
X210301072Y-189068780D01*
X210301072Y-189068780D02*
X210408215Y-188973542D01*
X210408215Y-188973542D02*
X210610596Y-188878304D01*
X210610596Y-188878304D02*
X210991549Y-188878304D01*
X210991549Y-188878304D02*
X211170120Y-188973542D01*
X212991549Y-188878304D02*
X212824882Y-190211638D01*
X212134406Y-188878304D02*
X212003454Y-189925923D01*
X212003454Y-189925923D02*
X212074882Y-190116400D01*
X212074882Y-190116400D02*
X212253454Y-190211638D01*
X212253454Y-190211638D02*
X212539168Y-190211638D01*
X212539168Y-190211638D02*
X212741549Y-190116400D01*
X212741549Y-190116400D02*
X212848692Y-190021161D01*
X214634406Y-190211638D02*
X214765358Y-189164019D01*
X214765358Y-189164019D02*
X214693930Y-188973542D01*
X214693930Y-188973542D02*
X214515358Y-188878304D01*
X214515358Y-188878304D02*
X214134406Y-188878304D01*
X214134406Y-188878304D02*
X213932025Y-188973542D01*
X214646311Y-190116400D02*
X214443930Y-190211638D01*
X214443930Y-190211638D02*
X213967739Y-190211638D01*
X213967739Y-190211638D02*
X213789168Y-190116400D01*
X213789168Y-190116400D02*
X213717739Y-189925923D01*
X213717739Y-189925923D02*
X213741549Y-189735447D01*
X213741549Y-189735447D02*
X213860597Y-189544971D01*
X213860597Y-189544971D02*
X214062978Y-189449733D01*
X214062978Y-189449733D02*
X214539168Y-189449733D01*
X214539168Y-189449733D02*
X214741549Y-189354495D01*
X215872502Y-190211638D02*
X215693930Y-190116400D01*
X215693930Y-190116400D02*
X215622502Y-189925923D01*
X215622502Y-189925923D02*
X215836787Y-188211638D01*
X216634406Y-190211638D02*
X216801073Y-188878304D01*
X216884406Y-188211638D02*
X216777263Y-188306876D01*
X216777263Y-188306876D02*
X216860597Y-188402114D01*
X216860597Y-188402114D02*
X216967740Y-188306876D01*
X216967740Y-188306876D02*
X216884406Y-188211638D01*
X216884406Y-188211638D02*
X216860597Y-188402114D01*
X217562978Y-188878304D02*
X218610597Y-188878304D01*
X218610597Y-188878304D02*
X217396311Y-190211638D01*
X217396311Y-190211638D02*
X218443930Y-190211638D01*
X219979645Y-190116400D02*
X219777264Y-190211638D01*
X219777264Y-190211638D02*
X219396311Y-190211638D01*
X219396311Y-190211638D02*
X219217740Y-190116400D01*
X219217740Y-190116400D02*
X219146311Y-189925923D01*
X219146311Y-189925923D02*
X219241550Y-189164019D01*
X219241550Y-189164019D02*
X219360597Y-188973542D01*
X219360597Y-188973542D02*
X219562978Y-188878304D01*
X219562978Y-188878304D02*
X219943930Y-188878304D01*
X219943930Y-188878304D02*
X220122502Y-188973542D01*
X220122502Y-188973542D02*
X220193930Y-189164019D01*
X220193930Y-189164019D02*
X220170121Y-189354495D01*
X220170121Y-189354495D02*
X219193930Y-189544971D01*
X220920121Y-190211638D02*
X221086788Y-188878304D01*
X221039169Y-189259257D02*
X221158216Y-189068780D01*
X221158216Y-189068780D02*
X221265359Y-188973542D01*
X221265359Y-188973542D02*
X221467740Y-188878304D01*
X221467740Y-188878304D02*
X221658216Y-188878304D01*
X223682026Y-190211638D02*
X223932026Y-188211638D01*
X223932026Y-188211638D02*
X224693931Y-188211638D01*
X224693931Y-188211638D02*
X224872502Y-188306876D01*
X224872502Y-188306876D02*
X224955836Y-188402114D01*
X224955836Y-188402114D02*
X225027264Y-188592590D01*
X225027264Y-188592590D02*
X224991550Y-188878304D01*
X224991550Y-188878304D02*
X224872502Y-189068780D01*
X224872502Y-189068780D02*
X224765360Y-189164019D01*
X224765360Y-189164019D02*
X224562979Y-189259257D01*
X224562979Y-189259257D02*
X223801074Y-189259257D01*
X226848693Y-190021161D02*
X226741550Y-190116400D01*
X226741550Y-190116400D02*
X226443931Y-190211638D01*
X226443931Y-190211638D02*
X226253455Y-190211638D01*
X226253455Y-190211638D02*
X225979645Y-190116400D01*
X225979645Y-190116400D02*
X225812979Y-189925923D01*
X225812979Y-189925923D02*
X225741550Y-189735447D01*
X225741550Y-189735447D02*
X225693931Y-189354495D01*
X225693931Y-189354495D02*
X225729645Y-189068780D01*
X225729645Y-189068780D02*
X225872502Y-188687828D01*
X225872502Y-188687828D02*
X225991550Y-188497352D01*
X225991550Y-188497352D02*
X226205836Y-188306876D01*
X226205836Y-188306876D02*
X226503455Y-188211638D01*
X226503455Y-188211638D02*
X226693931Y-188211638D01*
X226693931Y-188211638D02*
X226967741Y-188306876D01*
X226967741Y-188306876D02*
X227051074Y-188402114D01*
X228479645Y-189164019D02*
X228753455Y-189259257D01*
X228753455Y-189259257D02*
X228836788Y-189354495D01*
X228836788Y-189354495D02*
X228908217Y-189544971D01*
X228908217Y-189544971D02*
X228872502Y-189830685D01*
X228872502Y-189830685D02*
X228753455Y-190021161D01*
X228753455Y-190021161D02*
X228646312Y-190116400D01*
X228646312Y-190116400D02*
X228443931Y-190211638D01*
X228443931Y-190211638D02*
X227682026Y-190211638D01*
X227682026Y-190211638D02*
X227932026Y-188211638D01*
X227932026Y-188211638D02*
X228598693Y-188211638D01*
X228598693Y-188211638D02*
X228777264Y-188306876D01*
X228777264Y-188306876D02*
X228860598Y-188402114D01*
X228860598Y-188402114D02*
X228932026Y-188592590D01*
X228932026Y-188592590D02*
X228908217Y-188783066D01*
X228908217Y-188783066D02*
X228789169Y-188973542D01*
X228789169Y-188973542D02*
X228682026Y-189068780D01*
X228682026Y-189068780D02*
X228479645Y-189164019D01*
X228479645Y-189164019D02*
X227812979Y-189164019D01*
D10*
D11*
X178958026Y-185607614D02*
X178458026Y-185607614D01*
X178458026Y-186393328D02*
X178458026Y-184893328D01*
X178458026Y-184893328D02*
X179172312Y-184893328D01*
X179743740Y-186393328D02*
X179743740Y-185393328D01*
X179743740Y-184893328D02*
X179672312Y-184964757D01*
X179672312Y-184964757D02*
X179743740Y-185036185D01*
X179743740Y-185036185D02*
X179815169Y-184964757D01*
X179815169Y-184964757D02*
X179743740Y-184893328D01*
X179743740Y-184893328D02*
X179743740Y-185036185D01*
X180672312Y-186393328D02*
X180529455Y-186321900D01*
X180529455Y-186321900D02*
X180458026Y-186179042D01*
X180458026Y-186179042D02*
X180458026Y-184893328D01*
X181815169Y-186321900D02*
X181672312Y-186393328D01*
X181672312Y-186393328D02*
X181386598Y-186393328D01*
X181386598Y-186393328D02*
X181243740Y-186321900D01*
X181243740Y-186321900D02*
X181172312Y-186179042D01*
X181172312Y-186179042D02*
X181172312Y-185607614D01*
X181172312Y-185607614D02*
X181243740Y-185464757D01*
X181243740Y-185464757D02*
X181386598Y-185393328D01*
X181386598Y-185393328D02*
X181672312Y-185393328D01*
X181672312Y-185393328D02*
X181815169Y-185464757D01*
X181815169Y-185464757D02*
X181886598Y-185607614D01*
X181886598Y-185607614D02*
X181886598Y-185750471D01*
X181886598Y-185750471D02*
X181172312Y-185893328D01*
X182529454Y-186250471D02*
X182600883Y-186321900D01*
X182600883Y-186321900D02*
X182529454Y-186393328D01*
X182529454Y-186393328D02*
X182458026Y-186321900D01*
X182458026Y-186321900D02*
X182529454Y-186250471D01*
X182529454Y-186250471D02*
X182529454Y-186393328D01*
X182529454Y-185464757D02*
X182600883Y-185536185D01*
X182600883Y-185536185D02*
X182529454Y-185607614D01*
X182529454Y-185607614D02*
X182458026Y-185536185D01*
X182458026Y-185536185D02*
X182529454Y-185464757D01*
X182529454Y-185464757D02*
X182529454Y-185607614D01*
X184386597Y-186393328D02*
X184386597Y-184893328D01*
X184386597Y-184893328D02*
X184958026Y-184893328D01*
X184958026Y-184893328D02*
X185100883Y-184964757D01*
X185100883Y-184964757D02*
X185172312Y-185036185D01*
X185172312Y-185036185D02*
X185243740Y-185179042D01*
X185243740Y-185179042D02*
X185243740Y-185393328D01*
X185243740Y-185393328D02*
X185172312Y-185536185D01*
X185172312Y-185536185D02*
X185100883Y-185607614D01*
X185100883Y-185607614D02*
X184958026Y-185679042D01*
X184958026Y-185679042D02*
X184386597Y-185679042D01*
X186743740Y-186250471D02*
X186672312Y-186321900D01*
X186672312Y-186321900D02*
X186458026Y-186393328D01*
X186458026Y-186393328D02*
X186315169Y-186393328D01*
X186315169Y-186393328D02*
X186100883Y-186321900D01*
X186100883Y-186321900D02*
X185958026Y-186179042D01*
X185958026Y-186179042D02*
X185886597Y-186036185D01*
X185886597Y-186036185D02*
X185815169Y-185750471D01*
X185815169Y-185750471D02*
X185815169Y-185536185D01*
X185815169Y-185536185D02*
X185886597Y-185250471D01*
X185886597Y-185250471D02*
X185958026Y-185107614D01*
X185958026Y-185107614D02*
X186100883Y-184964757D01*
X186100883Y-184964757D02*
X186315169Y-184893328D01*
X186315169Y-184893328D02*
X186458026Y-184893328D01*
X186458026Y-184893328D02*
X186672312Y-184964757D01*
X186672312Y-184964757D02*
X186743740Y-185036185D01*
X187886597Y-185607614D02*
X188100883Y-185679042D01*
X188100883Y-185679042D02*
X188172312Y-185750471D01*
X188172312Y-185750471D02*
X188243740Y-185893328D01*
X188243740Y-185893328D02*
X188243740Y-186107614D01*
X188243740Y-186107614D02*
X188172312Y-186250471D01*
X188172312Y-186250471D02*
X188100883Y-186321900D01*
X188100883Y-186321900D02*
X187958026Y-186393328D01*
X187958026Y-186393328D02*
X187386597Y-186393328D01*
X187386597Y-186393328D02*
X187386597Y-184893328D01*
X187386597Y-184893328D02*
X187886597Y-184893328D01*
X187886597Y-184893328D02*
X188029455Y-184964757D01*
X188029455Y-184964757D02*
X188100883Y-185036185D01*
X188100883Y-185036185D02*
X188172312Y-185179042D01*
X188172312Y-185179042D02*
X188172312Y-185321900D01*
X188172312Y-185321900D02*
X188100883Y-185464757D01*
X188100883Y-185464757D02*
X188029455Y-185536185D01*
X188029455Y-185536185D02*
X187886597Y-185607614D01*
X187886597Y-185607614D02*
X187386597Y-185607614D01*
X188529455Y-186536185D02*
X189672312Y-186536185D01*
X190029454Y-186393328D02*
X190029454Y-184893328D01*
X190029454Y-184893328D02*
X190600883Y-184893328D01*
X190600883Y-184893328D02*
X190743740Y-184964757D01*
X190743740Y-184964757D02*
X190815169Y-185036185D01*
X190815169Y-185036185D02*
X190886597Y-185179042D01*
X190886597Y-185179042D02*
X190886597Y-185393328D01*
X190886597Y-185393328D02*
X190815169Y-185536185D01*
X190815169Y-185536185D02*
X190743740Y-185607614D01*
X190743740Y-185607614D02*
X190600883Y-185679042D01*
X190600883Y-185679042D02*
X190029454Y-185679042D01*
X191529454Y-186393328D02*
X191529454Y-185393328D01*
X191529454Y-185679042D02*
X191600883Y-185536185D01*
X191600883Y-185536185D02*
X191672312Y-185464757D01*
X191672312Y-185464757D02*
X191815169Y-185393328D01*
X191815169Y-185393328D02*
X191958026Y-185393328D01*
X192672311Y-186393328D02*
X192529454Y-186321900D01*
X192529454Y-186321900D02*
X192458025Y-186250471D01*
X192458025Y-186250471D02*
X192386597Y-186107614D01*
X192386597Y-186107614D02*
X192386597Y-185679042D01*
X192386597Y-185679042D02*
X192458025Y-185536185D01*
X192458025Y-185536185D02*
X192529454Y-185464757D01*
X192529454Y-185464757D02*
X192672311Y-185393328D01*
X192672311Y-185393328D02*
X192886597Y-185393328D01*
X192886597Y-185393328D02*
X193029454Y-185464757D01*
X193029454Y-185464757D02*
X193100883Y-185536185D01*
X193100883Y-185536185D02*
X193172311Y-185679042D01*
X193172311Y-185679042D02*
X193172311Y-186107614D01*
X193172311Y-186107614D02*
X193100883Y-186250471D01*
X193100883Y-186250471D02*
X193029454Y-186321900D01*
X193029454Y-186321900D02*
X192886597Y-186393328D01*
X192886597Y-186393328D02*
X192672311Y-186393328D01*
X193672311Y-185393328D02*
X194029454Y-186393328D01*
X194386597Y-185393328D02*
X194029454Y-186393328D01*
X194029454Y-186393328D02*
X193886597Y-186750471D01*
X193886597Y-186750471D02*
X193815168Y-186821900D01*
X193815168Y-186821900D02*
X193672311Y-186893328D01*
X195529454Y-186321900D02*
X195386597Y-186393328D01*
X195386597Y-186393328D02*
X195100883Y-186393328D01*
X195100883Y-186393328D02*
X194958025Y-186321900D01*
X194958025Y-186321900D02*
X194886597Y-186179042D01*
X194886597Y-186179042D02*
X194886597Y-185607614D01*
X194886597Y-185607614D02*
X194958025Y-185464757D01*
X194958025Y-185464757D02*
X195100883Y-185393328D01*
X195100883Y-185393328D02*
X195386597Y-185393328D01*
X195386597Y-185393328D02*
X195529454Y-185464757D01*
X195529454Y-185464757D02*
X195600883Y-185607614D01*
X195600883Y-185607614D02*
X195600883Y-185750471D01*
X195600883Y-185750471D02*
X194886597Y-185893328D01*
X196886597Y-186321900D02*
X196743739Y-186393328D01*
X196743739Y-186393328D02*
X196458025Y-186393328D01*
X196458025Y-186393328D02*
X196315168Y-186321900D01*
X196315168Y-186321900D02*
X196243739Y-186250471D01*
X196243739Y-186250471D02*
X196172311Y-186107614D01*
X196172311Y-186107614D02*
X196172311Y-185679042D01*
X196172311Y-185679042D02*
X196243739Y-185536185D01*
X196243739Y-185536185D02*
X196315168Y-185464757D01*
X196315168Y-185464757D02*
X196458025Y-185393328D01*
X196458025Y-185393328D02*
X196743739Y-185393328D01*
X196743739Y-185393328D02*
X196886597Y-185464757D01*
X197315168Y-185393328D02*
X197886596Y-185393328D01*
X197529453Y-184893328D02*
X197529453Y-186179042D01*
X197529453Y-186179042D02*
X197600882Y-186321900D01*
X197600882Y-186321900D02*
X197743739Y-186393328D01*
X197743739Y-186393328D02*
X197886596Y-186393328D01*
X198600882Y-186393328D02*
X198458025Y-186321900D01*
X198458025Y-186321900D02*
X198386596Y-186250471D01*
X198386596Y-186250471D02*
X198315168Y-186107614D01*
X198315168Y-186107614D02*
X198315168Y-185679042D01*
X198315168Y-185679042D02*
X198386596Y-185536185D01*
X198386596Y-185536185D02*
X198458025Y-185464757D01*
X198458025Y-185464757D02*
X198600882Y-185393328D01*
X198600882Y-185393328D02*
X198815168Y-185393328D01*
X198815168Y-185393328D02*
X198958025Y-185464757D01*
X198958025Y-185464757D02*
X199029454Y-185536185D01*
X199029454Y-185536185D02*
X199100882Y-185679042D01*
X199100882Y-185679042D02*
X199100882Y-186107614D01*
X199100882Y-186107614D02*
X199029454Y-186250471D01*
X199029454Y-186250471D02*
X198958025Y-186321900D01*
X198958025Y-186321900D02*
X198815168Y-186393328D01*
X198815168Y-186393328D02*
X198600882Y-186393328D01*
X200243739Y-185607614D02*
X199743739Y-185607614D01*
X199743739Y-186393328D02*
X199743739Y-184893328D01*
X199743739Y-184893328D02*
X200458025Y-184893328D01*
X201029453Y-186393328D02*
X201029453Y-185393328D01*
X201029453Y-184893328D02*
X200958025Y-184964757D01*
X200958025Y-184964757D02*
X201029453Y-185036185D01*
X201029453Y-185036185D02*
X201100882Y-184964757D01*
X201100882Y-184964757D02*
X201029453Y-184893328D01*
X201029453Y-184893328D02*
X201029453Y-185036185D01*
X201743739Y-185393328D02*
X201743739Y-186393328D01*
X201743739Y-185536185D02*
X201815168Y-185464757D01*
X201815168Y-185464757D02*
X201958025Y-185393328D01*
X201958025Y-185393328D02*
X202172311Y-185393328D01*
X202172311Y-185393328D02*
X202315168Y-185464757D01*
X202315168Y-185464757D02*
X202386597Y-185607614D01*
X202386597Y-185607614D02*
X202386597Y-186393328D01*
X203743740Y-186393328D02*
X203743740Y-185607614D01*
X203743740Y-185607614D02*
X203672311Y-185464757D01*
X203672311Y-185464757D02*
X203529454Y-185393328D01*
X203529454Y-185393328D02*
X203243740Y-185393328D01*
X203243740Y-185393328D02*
X203100882Y-185464757D01*
X203743740Y-186321900D02*
X203600882Y-186393328D01*
X203600882Y-186393328D02*
X203243740Y-186393328D01*
X203243740Y-186393328D02*
X203100882Y-186321900D01*
X203100882Y-186321900D02*
X203029454Y-186179042D01*
X203029454Y-186179042D02*
X203029454Y-186036185D01*
X203029454Y-186036185D02*
X203100882Y-185893328D01*
X203100882Y-185893328D02*
X203243740Y-185821900D01*
X203243740Y-185821900D02*
X203600882Y-185821900D01*
X203600882Y-185821900D02*
X203743740Y-185750471D01*
X204672311Y-186393328D02*
X204529454Y-186321900D01*
X204529454Y-186321900D02*
X204458025Y-186179042D01*
X204458025Y-186179042D02*
X204458025Y-184893328D01*
X204886597Y-186536185D02*
X206029454Y-186536185D01*
X206386596Y-185607614D02*
X206886596Y-185607614D01*
X207100882Y-186393328D02*
X206386596Y-186393328D01*
X206386596Y-186393328D02*
X206386596Y-184893328D01*
X206386596Y-184893328D02*
X207100882Y-184893328D01*
X208386597Y-186321900D02*
X208243739Y-186393328D01*
X208243739Y-186393328D02*
X207958025Y-186393328D01*
X207958025Y-186393328D02*
X207815168Y-186321900D01*
X207815168Y-186321900D02*
X207743739Y-186250471D01*
X207743739Y-186250471D02*
X207672311Y-186107614D01*
X207672311Y-186107614D02*
X207672311Y-185679042D01*
X207672311Y-185679042D02*
X207743739Y-185536185D01*
X207743739Y-185536185D02*
X207815168Y-185464757D01*
X207815168Y-185464757D02*
X207958025Y-185393328D01*
X207958025Y-185393328D02*
X208243739Y-185393328D01*
X208243739Y-185393328D02*
X208386597Y-185464757D01*
X209672311Y-185393328D02*
X209672311Y-186393328D01*
X209029453Y-185393328D02*
X209029453Y-186179042D01*
X209029453Y-186179042D02*
X209100882Y-186321900D01*
X209100882Y-186321900D02*
X209243739Y-186393328D01*
X209243739Y-186393328D02*
X209458025Y-186393328D01*
X209458025Y-186393328D02*
X209600882Y-186321900D01*
X209600882Y-186321900D02*
X209672311Y-186250471D01*
X211029454Y-186393328D02*
X211029454Y-185607614D01*
X211029454Y-185607614D02*
X210958025Y-185464757D01*
X210958025Y-185464757D02*
X210815168Y-185393328D01*
X210815168Y-185393328D02*
X210529454Y-185393328D01*
X210529454Y-185393328D02*
X210386596Y-185464757D01*
X211029454Y-186321900D02*
X210886596Y-186393328D01*
X210886596Y-186393328D02*
X210529454Y-186393328D01*
X210529454Y-186393328D02*
X210386596Y-186321900D01*
X210386596Y-186321900D02*
X210315168Y-186179042D01*
X210315168Y-186179042D02*
X210315168Y-186036185D01*
X210315168Y-186036185D02*
X210386596Y-185893328D01*
X210386596Y-185893328D02*
X210529454Y-185821900D01*
X210529454Y-185821900D02*
X210886596Y-185821900D01*
X210886596Y-185821900D02*
X211029454Y-185750471D01*
X211958025Y-186393328D02*
X211815168Y-186321900D01*
X211815168Y-186321900D02*
X211743739Y-186179042D01*
X211743739Y-186179042D02*
X211743739Y-184893328D01*
X212529453Y-186393328D02*
X212529453Y-185393328D01*
X212529453Y-184893328D02*
X212458025Y-184964757D01*
X212458025Y-184964757D02*
X212529453Y-185036185D01*
X212529453Y-185036185D02*
X212600882Y-184964757D01*
X212600882Y-184964757D02*
X212529453Y-184893328D01*
X212529453Y-184893328D02*
X212529453Y-185036185D01*
X213100882Y-185393328D02*
X213886597Y-185393328D01*
X213886597Y-185393328D02*
X213100882Y-186393328D01*
X213100882Y-186393328D02*
X213886597Y-186393328D01*
X215100883Y-186393328D02*
X215100883Y-185607614D01*
X215100883Y-185607614D02*
X215029454Y-185464757D01*
X215029454Y-185464757D02*
X214886597Y-185393328D01*
X214886597Y-185393328D02*
X214600883Y-185393328D01*
X214600883Y-185393328D02*
X214458025Y-185464757D01*
X215100883Y-186321900D02*
X214958025Y-186393328D01*
X214958025Y-186393328D02*
X214600883Y-186393328D01*
X214600883Y-186393328D02*
X214458025Y-186321900D01*
X214458025Y-186321900D02*
X214386597Y-186179042D01*
X214386597Y-186179042D02*
X214386597Y-186036185D01*
X214386597Y-186036185D02*
X214458025Y-185893328D01*
X214458025Y-185893328D02*
X214600883Y-185821900D01*
X214600883Y-185821900D02*
X214958025Y-185821900D01*
X214958025Y-185821900D02*
X215100883Y-185750471D01*
X216458026Y-186393328D02*
X216458026Y-184893328D01*
X216458026Y-186321900D02*
X216315168Y-186393328D01*
X216315168Y-186393328D02*
X216029454Y-186393328D01*
X216029454Y-186393328D02*
X215886597Y-186321900D01*
X215886597Y-186321900D02*
X215815168Y-186250471D01*
X215815168Y-186250471D02*
X215743740Y-186107614D01*
X215743740Y-186107614D02*
X215743740Y-185679042D01*
X215743740Y-185679042D02*
X215815168Y-185536185D01*
X215815168Y-185536185D02*
X215886597Y-185464757D01*
X215886597Y-185464757D02*
X216029454Y-185393328D01*
X216029454Y-185393328D02*
X216315168Y-185393328D01*
X216315168Y-185393328D02*
X216458026Y-185464757D01*
X217386597Y-186393328D02*
X217243740Y-186321900D01*
X217243740Y-186321900D02*
X217172311Y-186250471D01*
X217172311Y-186250471D02*
X217100883Y-186107614D01*
X217100883Y-186107614D02*
X217100883Y-185679042D01*
X217100883Y-185679042D02*
X217172311Y-185536185D01*
X217172311Y-185536185D02*
X217243740Y-185464757D01*
X217243740Y-185464757D02*
X217386597Y-185393328D01*
X217386597Y-185393328D02*
X217600883Y-185393328D01*
X217600883Y-185393328D02*
X217743740Y-185464757D01*
X217743740Y-185464757D02*
X217815169Y-185536185D01*
X217815169Y-185536185D02*
X217886597Y-185679042D01*
X217886597Y-185679042D02*
X217886597Y-186107614D01*
X217886597Y-186107614D02*
X217815169Y-186250471D01*
X217815169Y-186250471D02*
X217743740Y-186321900D01*
X217743740Y-186321900D02*
X217600883Y-186393328D01*
X217600883Y-186393328D02*
X217386597Y-186393328D01*
X218529454Y-186393328D02*
X218529454Y-185393328D01*
X218529454Y-185679042D02*
X218600883Y-185536185D01*
X218600883Y-185536185D02*
X218672312Y-185464757D01*
X218672312Y-185464757D02*
X218815169Y-185393328D01*
X218815169Y-185393328D02*
X218958026Y-185393328D01*
X219458025Y-186250471D02*
X219529454Y-186321900D01*
X219529454Y-186321900D02*
X219458025Y-186393328D01*
X219458025Y-186393328D02*
X219386597Y-186321900D01*
X219386597Y-186321900D02*
X219458025Y-186250471D01*
X219458025Y-186250471D02*
X219458025Y-186393328D01*
X220172311Y-186393328D02*
X220172311Y-184893328D01*
X220315169Y-185821900D02*
X220743740Y-186393328D01*
X220743740Y-185393328D02*
X220172311Y-185964757D01*
X221386597Y-186393328D02*
X221386597Y-185393328D01*
X221386597Y-184893328D02*
X221315169Y-184964757D01*
X221315169Y-184964757D02*
X221386597Y-185036185D01*
X221386597Y-185036185D02*
X221458026Y-184964757D01*
X221458026Y-184964757D02*
X221386597Y-184893328D01*
X221386597Y-184893328D02*
X221386597Y-185036185D01*
X222743741Y-186321900D02*
X222600883Y-186393328D01*
X222600883Y-186393328D02*
X222315169Y-186393328D01*
X222315169Y-186393328D02*
X222172312Y-186321900D01*
X222172312Y-186321900D02*
X222100883Y-186250471D01*
X222100883Y-186250471D02*
X222029455Y-186107614D01*
X222029455Y-186107614D02*
X222029455Y-185679042D01*
X222029455Y-185679042D02*
X222100883Y-185536185D01*
X222100883Y-185536185D02*
X222172312Y-185464757D01*
X222172312Y-185464757D02*
X222315169Y-185393328D01*
X222315169Y-185393328D02*
X222600883Y-185393328D01*
X222600883Y-185393328D02*
X222743741Y-185464757D01*
X224029455Y-186393328D02*
X224029455Y-185607614D01*
X224029455Y-185607614D02*
X223958026Y-185464757D01*
X223958026Y-185464757D02*
X223815169Y-185393328D01*
X223815169Y-185393328D02*
X223529455Y-185393328D01*
X223529455Y-185393328D02*
X223386597Y-185464757D01*
X224029455Y-186321900D02*
X223886597Y-186393328D01*
X223886597Y-186393328D02*
X223529455Y-186393328D01*
X223529455Y-186393328D02*
X223386597Y-186321900D01*
X223386597Y-186321900D02*
X223315169Y-186179042D01*
X223315169Y-186179042D02*
X223315169Y-186036185D01*
X223315169Y-186036185D02*
X223386597Y-185893328D01*
X223386597Y-185893328D02*
X223529455Y-185821900D01*
X223529455Y-185821900D02*
X223886597Y-185821900D01*
X223886597Y-185821900D02*
X224029455Y-185750471D01*
X225386598Y-186393328D02*
X225386598Y-184893328D01*
X225386598Y-186321900D02*
X225243740Y-186393328D01*
X225243740Y-186393328D02*
X224958026Y-186393328D01*
X224958026Y-186393328D02*
X224815169Y-186321900D01*
X224815169Y-186321900D02*
X224743740Y-186250471D01*
X224743740Y-186250471D02*
X224672312Y-186107614D01*
X224672312Y-186107614D02*
X224672312Y-185679042D01*
X224672312Y-185679042D02*
X224743740Y-185536185D01*
X224743740Y-185536185D02*
X224815169Y-185464757D01*
X224815169Y-185464757D02*
X224958026Y-185393328D01*
X224958026Y-185393328D02*
X225243740Y-185393328D01*
X225243740Y-185393328D02*
X225386598Y-185464757D01*
X225743741Y-186536185D02*
X226886598Y-186536185D01*
X227243740Y-185393328D02*
X227243740Y-186893328D01*
X227243740Y-185464757D02*
X227386598Y-185393328D01*
X227386598Y-185393328D02*
X227672312Y-185393328D01*
X227672312Y-185393328D02*
X227815169Y-185464757D01*
X227815169Y-185464757D02*
X227886598Y-185536185D01*
X227886598Y-185536185D02*
X227958026Y-185679042D01*
X227958026Y-185679042D02*
X227958026Y-186107614D01*
X227958026Y-186107614D02*
X227886598Y-186250471D01*
X227886598Y-186250471D02*
X227815169Y-186321900D01*
X227815169Y-186321900D02*
X227672312Y-186393328D01*
X227672312Y-186393328D02*
X227386598Y-186393328D01*
X227386598Y-186393328D02*
X227243740Y-186321900D01*
X229243741Y-186321900D02*
X229100883Y-186393328D01*
X229100883Y-186393328D02*
X228815169Y-186393328D01*
X228815169Y-186393328D02*
X228672312Y-186321900D01*
X228672312Y-186321900D02*
X228600883Y-186250471D01*
X228600883Y-186250471D02*
X228529455Y-186107614D01*
X228529455Y-186107614D02*
X228529455Y-185679042D01*
X228529455Y-185679042D02*
X228600883Y-185536185D01*
X228600883Y-185536185D02*
X228672312Y-185464757D01*
X228672312Y-185464757D02*
X228815169Y-185393328D01*
X228815169Y-185393328D02*
X229100883Y-185393328D01*
X229100883Y-185393328D02*
X229243741Y-185464757D01*
X229886597Y-186393328D02*
X229886597Y-184893328D01*
X229886597Y-185464757D02*
X230029455Y-185393328D01*
X230029455Y-185393328D02*
X230315169Y-185393328D01*
X230315169Y-185393328D02*
X230458026Y-185464757D01*
X230458026Y-185464757D02*
X230529455Y-185536185D01*
X230529455Y-185536185D02*
X230600883Y-185679042D01*
X230600883Y-185679042D02*
X230600883Y-186107614D01*
X230600883Y-186107614D02*
X230529455Y-186250471D01*
X230529455Y-186250471D02*
X230458026Y-186321900D01*
X230458026Y-186321900D02*
X230315169Y-186393328D01*
X230315169Y-186393328D02*
X230029455Y-186393328D01*
X230029455Y-186393328D02*
X229886597Y-186321900D01*
D10*
D11*
X177002200Y-181507200D02*
X285002200Y-181507200D01*
D10*
D11*
X178386598Y-183621900D02*
X178600884Y-183693328D01*
X178600884Y-183693328D02*
X178958026Y-183693328D01*
X178958026Y-183693328D02*
X179100884Y-183621900D01*
X179100884Y-183621900D02*
X179172312Y-183550471D01*
X179172312Y-183550471D02*
X179243741Y-183407614D01*
X179243741Y-183407614D02*
X179243741Y-183264757D01*
X179243741Y-183264757D02*
X179172312Y-183121900D01*
X179172312Y-183121900D02*
X179100884Y-183050471D01*
X179100884Y-183050471D02*
X178958026Y-182979042D01*
X178958026Y-182979042D02*
X178672312Y-182907614D01*
X178672312Y-182907614D02*
X178529455Y-182836185D01*
X178529455Y-182836185D02*
X178458026Y-182764757D01*
X178458026Y-182764757D02*
X178386598Y-182621900D01*
X178386598Y-182621900D02*
X178386598Y-182479042D01*
X178386598Y-182479042D02*
X178458026Y-182336185D01*
X178458026Y-182336185D02*
X178529455Y-182264757D01*
X178529455Y-182264757D02*
X178672312Y-182193328D01*
X178672312Y-182193328D02*
X179029455Y-182193328D01*
X179029455Y-182193328D02*
X179243741Y-182264757D01*
X179886597Y-183693328D02*
X179886597Y-182193328D01*
X180529455Y-183693328D02*
X180529455Y-182907614D01*
X180529455Y-182907614D02*
X180458026Y-182764757D01*
X180458026Y-182764757D02*
X180315169Y-182693328D01*
X180315169Y-182693328D02*
X180100883Y-182693328D01*
X180100883Y-182693328D02*
X179958026Y-182764757D01*
X179958026Y-182764757D02*
X179886597Y-182836185D01*
X181815169Y-183621900D02*
X181672312Y-183693328D01*
X181672312Y-183693328D02*
X181386598Y-183693328D01*
X181386598Y-183693328D02*
X181243740Y-183621900D01*
X181243740Y-183621900D02*
X181172312Y-183479042D01*
X181172312Y-183479042D02*
X181172312Y-182907614D01*
X181172312Y-182907614D02*
X181243740Y-182764757D01*
X181243740Y-182764757D02*
X181386598Y-182693328D01*
X181386598Y-182693328D02*
X181672312Y-182693328D01*
X181672312Y-182693328D02*
X181815169Y-182764757D01*
X181815169Y-182764757D02*
X181886598Y-182907614D01*
X181886598Y-182907614D02*
X181886598Y-183050471D01*
X181886598Y-183050471D02*
X181172312Y-183193328D01*
X183100883Y-183621900D02*
X182958026Y-183693328D01*
X182958026Y-183693328D02*
X182672312Y-183693328D01*
X182672312Y-183693328D02*
X182529454Y-183621900D01*
X182529454Y-183621900D02*
X182458026Y-183479042D01*
X182458026Y-183479042D02*
X182458026Y-182907614D01*
X182458026Y-182907614D02*
X182529454Y-182764757D01*
X182529454Y-182764757D02*
X182672312Y-182693328D01*
X182672312Y-182693328D02*
X182958026Y-182693328D01*
X182958026Y-182693328D02*
X183100883Y-182764757D01*
X183100883Y-182764757D02*
X183172312Y-182907614D01*
X183172312Y-182907614D02*
X183172312Y-183050471D01*
X183172312Y-183050471D02*
X182458026Y-183193328D01*
X183600883Y-182693328D02*
X184172311Y-182693328D01*
X183815168Y-182193328D02*
X183815168Y-183479042D01*
X183815168Y-183479042D02*
X183886597Y-183621900D01*
X183886597Y-183621900D02*
X184029454Y-183693328D01*
X184029454Y-183693328D02*
X184172311Y-183693328D01*
X184672311Y-183550471D02*
X184743740Y-183621900D01*
X184743740Y-183621900D02*
X184672311Y-183693328D01*
X184672311Y-183693328D02*
X184600883Y-183621900D01*
X184600883Y-183621900D02*
X184672311Y-183550471D01*
X184672311Y-183550471D02*
X184672311Y-183693328D01*
X184672311Y-182764757D02*
X184743740Y-182836185D01*
X184743740Y-182836185D02*
X184672311Y-182907614D01*
X184672311Y-182907614D02*
X184600883Y-182836185D01*
X184600883Y-182836185D02*
X184672311Y-182764757D01*
X184672311Y-182764757D02*
X184672311Y-182907614D01*
D10*
D12*
X179413853Y-180542671D02*
X179342425Y-180614100D01*
X179342425Y-180614100D02*
X179128139Y-180685528D01*
X179128139Y-180685528D02*
X178985282Y-180685528D01*
X178985282Y-180685528D02*
X178770996Y-180614100D01*
X178770996Y-180614100D02*
X178628139Y-180471242D01*
X178628139Y-180471242D02*
X178556710Y-180328385D01*
X178556710Y-180328385D02*
X178485282Y-180042671D01*
X178485282Y-180042671D02*
X178485282Y-179828385D01*
X178485282Y-179828385D02*
X178556710Y-179542671D01*
X178556710Y-179542671D02*
X178628139Y-179399814D01*
X178628139Y-179399814D02*
X178770996Y-179256957D01*
X178770996Y-179256957D02*
X178985282Y-179185528D01*
X178985282Y-179185528D02*
X179128139Y-179185528D01*
X179128139Y-179185528D02*
X179342425Y-179256957D01*
X179342425Y-179256957D02*
X179413853Y-179328385D01*
X180056710Y-179899814D02*
X180556710Y-179899814D01*
X180770996Y-180685528D02*
X180056710Y-180685528D01*
X180056710Y-180685528D02*
X180056710Y-179185528D01*
X180056710Y-179185528D02*
X180770996Y-179185528D01*
X181199568Y-179185528D02*
X182056711Y-179185528D01*
X181628139Y-180685528D02*
X181628139Y-179185528D01*
X182842425Y-179971242D02*
X182842425Y-180685528D01*
X182342425Y-179185528D02*
X182842425Y-179971242D01*
X182842425Y-179971242D02*
X183342425Y-179185528D01*
X183770996Y-180614100D02*
X183985282Y-180685528D01*
X183985282Y-180685528D02*
X184342424Y-180685528D01*
X184342424Y-180685528D02*
X184485282Y-180614100D01*
X184485282Y-180614100D02*
X184556710Y-180542671D01*
X184556710Y-180542671D02*
X184628139Y-180399814D01*
X184628139Y-180399814D02*
X184628139Y-180256957D01*
X184628139Y-180256957D02*
X184556710Y-180114100D01*
X184556710Y-180114100D02*
X184485282Y-180042671D01*
X184485282Y-180042671D02*
X184342424Y-179971242D01*
X184342424Y-179971242D02*
X184056710Y-179899814D01*
X184056710Y-179899814D02*
X183913853Y-179828385D01*
X183913853Y-179828385D02*
X183842424Y-179756957D01*
X183842424Y-179756957D02*
X183770996Y-179614100D01*
X183770996Y-179614100D02*
X183770996Y-179471242D01*
X183770996Y-179471242D02*
X183842424Y-179328385D01*
X183842424Y-179328385D02*
X183913853Y-179256957D01*
X183913853Y-179256957D02*
X184056710Y-179185528D01*
X184056710Y-179185528D02*
X184413853Y-179185528D01*
X184413853Y-179185528D02*
X184628139Y-179256957D01*
X186413852Y-179185528D02*
X186413852Y-180399814D01*
X186413852Y-180399814D02*
X186485281Y-180542671D01*
X186485281Y-180542671D02*
X186556710Y-180614100D01*
X186556710Y-180614100D02*
X186699567Y-180685528D01*
X186699567Y-180685528D02*
X186985281Y-180685528D01*
X186985281Y-180685528D02*
X187128138Y-180614100D01*
X187128138Y-180614100D02*
X187199567Y-180542671D01*
X187199567Y-180542671D02*
X187270995Y-180399814D01*
X187270995Y-180399814D02*
X187270995Y-179185528D01*
X187985281Y-179685528D02*
X187985281Y-180685528D01*
X187985281Y-179828385D02*
X188056710Y-179756957D01*
X188056710Y-179756957D02*
X188199567Y-179685528D01*
X188199567Y-179685528D02*
X188413853Y-179685528D01*
X188413853Y-179685528D02*
X188556710Y-179756957D01*
X188556710Y-179756957D02*
X188628139Y-179899814D01*
X188628139Y-179899814D02*
X188628139Y-180685528D01*
X189342424Y-180685528D02*
X189342424Y-179685528D01*
X189342424Y-179185528D02*
X189270996Y-179256957D01*
X189270996Y-179256957D02*
X189342424Y-179328385D01*
X189342424Y-179328385D02*
X189413853Y-179256957D01*
X189413853Y-179256957D02*
X189342424Y-179185528D01*
X189342424Y-179185528D02*
X189342424Y-179328385D01*
X189913853Y-179685528D02*
X190270996Y-180685528D01*
X190270996Y-180685528D02*
X190628139Y-179685528D01*
X191770996Y-180614100D02*
X191628139Y-180685528D01*
X191628139Y-180685528D02*
X191342425Y-180685528D01*
X191342425Y-180685528D02*
X191199567Y-180614100D01*
X191199567Y-180614100D02*
X191128139Y-180471242D01*
X191128139Y-180471242D02*
X191128139Y-179899814D01*
X191128139Y-179899814D02*
X191199567Y-179756957D01*
X191199567Y-179756957D02*
X191342425Y-179685528D01*
X191342425Y-179685528D02*
X191628139Y-179685528D01*
X191628139Y-179685528D02*
X191770996Y-179756957D01*
X191770996Y-179756957D02*
X191842425Y-179899814D01*
X191842425Y-179899814D02*
X191842425Y-180042671D01*
X191842425Y-180042671D02*
X191128139Y-180185528D01*
X192485281Y-180685528D02*
X192485281Y-179685528D01*
X192485281Y-179971242D02*
X192556710Y-179828385D01*
X192556710Y-179828385D02*
X192628139Y-179756957D01*
X192628139Y-179756957D02*
X192770996Y-179685528D01*
X192770996Y-179685528D02*
X192913853Y-179685528D01*
X193342424Y-180614100D02*
X193485281Y-180685528D01*
X193485281Y-180685528D02*
X193770995Y-180685528D01*
X193770995Y-180685528D02*
X193913852Y-180614100D01*
X193913852Y-180614100D02*
X193985281Y-180471242D01*
X193985281Y-180471242D02*
X193985281Y-180399814D01*
X193985281Y-180399814D02*
X193913852Y-180256957D01*
X193913852Y-180256957D02*
X193770995Y-180185528D01*
X193770995Y-180185528D02*
X193556710Y-180185528D01*
X193556710Y-180185528D02*
X193413852Y-180114100D01*
X193413852Y-180114100D02*
X193342424Y-179971242D01*
X193342424Y-179971242D02*
X193342424Y-179899814D01*
X193342424Y-179899814D02*
X193413852Y-179756957D01*
X193413852Y-179756957D02*
X193556710Y-179685528D01*
X193556710Y-179685528D02*
X193770995Y-179685528D01*
X193770995Y-179685528D02*
X193913852Y-179756957D01*
X194628138Y-180685528D02*
X194628138Y-179685528D01*
X194628138Y-179185528D02*
X194556710Y-179256957D01*
X194556710Y-179256957D02*
X194628138Y-179328385D01*
X194628138Y-179328385D02*
X194699567Y-179256957D01*
X194699567Y-179256957D02*
X194628138Y-179185528D01*
X194628138Y-179185528D02*
X194628138Y-179328385D01*
X195985282Y-180685528D02*
X195985282Y-179185528D01*
X195985282Y-180614100D02*
X195842424Y-180685528D01*
X195842424Y-180685528D02*
X195556710Y-180685528D01*
X195556710Y-180685528D02*
X195413853Y-180614100D01*
X195413853Y-180614100D02*
X195342424Y-180542671D01*
X195342424Y-180542671D02*
X195270996Y-180399814D01*
X195270996Y-180399814D02*
X195270996Y-179971242D01*
X195270996Y-179971242D02*
X195342424Y-179828385D01*
X195342424Y-179828385D02*
X195413853Y-179756957D01*
X195413853Y-179756957D02*
X195556710Y-179685528D01*
X195556710Y-179685528D02*
X195842424Y-179685528D01*
X195842424Y-179685528D02*
X195985282Y-179756957D01*
X197342425Y-180685528D02*
X197342425Y-179899814D01*
X197342425Y-179899814D02*
X197270996Y-179756957D01*
X197270996Y-179756957D02*
X197128139Y-179685528D01*
X197128139Y-179685528D02*
X196842425Y-179685528D01*
X196842425Y-179685528D02*
X196699567Y-179756957D01*
X197342425Y-180614100D02*
X197199567Y-180685528D01*
X197199567Y-180685528D02*
X196842425Y-180685528D01*
X196842425Y-180685528D02*
X196699567Y-180614100D01*
X196699567Y-180614100D02*
X196628139Y-180471242D01*
X196628139Y-180471242D02*
X196628139Y-180328385D01*
X196628139Y-180328385D02*
X196699567Y-180185528D01*
X196699567Y-180185528D02*
X196842425Y-180114100D01*
X196842425Y-180114100D02*
X197199567Y-180114100D01*
X197199567Y-180114100D02*
X197342425Y-180042671D01*
X198699568Y-180685528D02*
X198699568Y-179185528D01*
X198699568Y-180614100D02*
X198556710Y-180685528D01*
X198556710Y-180685528D02*
X198270996Y-180685528D01*
X198270996Y-180685528D02*
X198128139Y-180614100D01*
X198128139Y-180614100D02*
X198056710Y-180542671D01*
X198056710Y-180542671D02*
X197985282Y-180399814D01*
X197985282Y-180399814D02*
X197985282Y-179971242D01*
X197985282Y-179971242D02*
X198056710Y-179828385D01*
X198056710Y-179828385D02*
X198128139Y-179756957D01*
X198128139Y-179756957D02*
X198270996Y-179685528D01*
X198270996Y-179685528D02*
X198556710Y-179685528D01*
X198556710Y-179685528D02*
X198699568Y-179756957D01*
D10*
D11*
X197002200Y-191507200D02*
X197002200Y-194507200D01*
D10*
D11*
X261002200Y-191507200D02*
X261002200Y-198007200D01*
D14*
%TO.C,J1*%
X46830000Y-48600000D03*
D15*
X42330000Y-48600000D03*
%TD*%
D16*
%TO.C,J3*%
X120610000Y-47797500D03*
X127610000Y-47797500D03*
%TD*%
%TO.C,J2*%
X50500000Y-61702500D03*
X43500000Y-61702500D03*
%TD*%
D17*
%TO.C,RV5*%
X104644300Y-79622046D03*
D18*
X107144300Y-79622046D03*
X109644300Y-79622046D03*
%TD*%
D19*
%TO.C,REF\u002A\u002A*%
X129952300Y-83440046D03*
%TD*%
D17*
%TO.C,RV6*%
X118868300Y-79622046D03*
D18*
X121368300Y-79622046D03*
X123868300Y-79622046D03*
%TD*%
D19*
%TO.C,REF\u002A\u002A*%
X41227300Y-83440046D03*
%TD*%
D17*
%TO.C,RV3*%
X76156300Y-79622046D03*
D18*
X78656300Y-79622046D03*
X81156300Y-79622046D03*
%TD*%
D17*
%TO.C,RV1*%
X48296300Y-79622046D03*
D18*
X50796300Y-79622046D03*
X53296300Y-79622046D03*
%TD*%
D17*
%TO.C,RV4*%
X90380300Y-79622046D03*
D18*
X92880300Y-79622046D03*
X95380300Y-79622046D03*
%TD*%
D17*
%TO.C,RV2*%
X62253300Y-79622046D03*
D18*
X64753300Y-79622046D03*
X67253300Y-79622046D03*
%TD*%
D19*
%TO.C,REF\u002A\u002A*%
X41227300Y-39397381D03*
%TD*%
%TO.C,REF\u002A\u002A*%
X129952300Y-39397381D03*
%TD*%
M02*
